<?xml version="1.0" encoding="UTF-8"?>
<svg id="Layer_2" data-name="Layer 2" xmlns="http://www.w3.org/2000/svg" viewBox="0 0 314.14 510.79">
  <g id="Graphic">
    <g>
      <g>
        <polygon points="60.51 194.04 60.51 200.73 12.1 200.73 12.1 194.04 0 194.04 0 216.79 72.61 216.79 72.61 194.04 60.51 194.04" fill="#f7a7b6"/>
        <polygon points="60.51 177.98 52.44 177.98 52.44 184.66 20.17 184.66 20.17 177.98 12.1 177.98 12.1 194.04 60.51 194.04 60.51 177.98" fill="#80de85"/>
        <rect x="12.1" y="194.04" width="48.41" height="6.68" fill="#039"/>
        <polygon points="52.44 161.91 47.06 161.91 47.06 168.6 25.55 168.6 25.55 161.91 20.17 161.91 20.17 177.98 52.44 177.98 52.44 161.91" fill="#f7a7b6"/>
        <rect x="20.17" y="177.98" width="32.27" height="6.68" fill="#039"/>
        <rect x="25.55" y="145.85" width="21.51" height="16.07" fill="#80de85"/>
        <rect x="25.55" y="161.91" width="21.51" height="6.68" fill="#039"/>
      </g>
      <g>
        <path d="M72.61,297.78h-12.35v10.4H12.35v-10.4H0v56.79H12.35v-11.08H60.26v11.08h12.35v-56.79Zm-12.35,37.02H12.35v-17.94H60.26v17.94Z" fill="#ffd940"/>
        <rect x="12.35" y="290.24" width="47.92" height="7.54" fill="#09c"/>
        <rect x="12.35" y="297.78" width="47.92" height="10.4" fill="#039"/>
        <rect x="12.35" y="316.87" width="47.92" height="17.94" fill="#039"/>
        <rect x="12.35" y="354.57" width="47.92" height="6.86" fill="#09c"/>
        <rect x="12.35" y="343.49" width="47.92" height="11.08" fill="#039"/>
      </g>
      <g>
        <polygon points="245.59 56.72 272.92 37.69 245.59 18.67 245.59 56.72" fill="#ffd940"/>
        <polygon points="245.65 47.81 260.18 37.7 245.65 27.58 245.65 47.81" fill="#039"/>
        <polygon points="245.65 75.39 299.81 37.69 245.65 0 245.65 12.01 282.49 37.79 245.65 63.38 245.65 75.39" fill="#feaa2f"/>
      </g>
      <g>
        <rect x="241.53" y="439.85" width="64.49" height="64.49" fill="#039"/>
        <polygon points="306.03 447.23 306.03 504.34 298.36 504.34 298.36 510.79 314.14 510.79 314.14 447.23 306.03 447.23" fill="#ffd940"/>
        <rect x="298.36" y="447.23" width="7.67" height="57.11" fill="#feaa2f"/>
        <rect x="251.51" y="504.34" width="15.78" height="6.45" fill="#ffd940"/>
        <rect x="274.93" y="504.34" width="15.78" height="6.45" fill="#ffd940"/>
        <rect x="251.51" y="489.08" width="15.78" height="15.26" fill="#feaa2f"/>
        <rect x="274.93" y="465.73" width="15.78" height="38.61" fill="#feaa2f"/>
      </g>
      <g>
        <rect x="118.57" y="395.08" width="56.38" height="55.77" fill="#f7a7b6"/>
        <circle cx="146.76" cy="422.96" r="9.11" fill="#039"/>
        <g>
          <path d="M146.76,385.97c-5.03,0-9.11,4.08-9.11,9.11h18.21c0-5.03-4.08-9.11-9.11-9.11Z" fill="#09c"/>
          <path d="M184.06,422.96c0-5.03-4.08-9.11-9.11-9.11v18.21c5.03,0,9.11-4.08,9.11-9.11Z" fill="#09c"/>
          <path d="M174.95,404.18c5.03,0,9.11-4.08,9.11-9.11s-4.08-9.11-9.11-9.11-9.11,4.08-9.11,9.11h9.11v9.11Z" fill="#09c"/>
          <path d="M127.68,395.08c0-5.03-4.08-9.11-9.11-9.11s-9.11,4.08-9.11,9.11,4.08,9.11,9.11,9.11v-9.11h9.11Z" fill="#09c"/>
          <path d="M109.47,422.96c0,5.03,4.08,9.11,9.11,9.11v-18.21c-5.03,0-9.11,4.08-9.11,9.11Z" fill="#09c"/>
          <path d="M118.57,441.74c-5.03,0-9.11,4.08-9.11,9.11s4.08,9.11,9.11,9.11,9.11-4.08,9.11-9.11h-9.11v-9.11Z" fill="#09c"/>
          <path d="M146.76,459.95c5.03,0,9.11-4.08,9.11-9.11h-18.21c0,5.03,4.08,9.11,9.11,9.11Z" fill="#09c"/>
          <path d="M165.84,450.84c0,5.03,4.08,9.11,9.11,9.11s9.11-4.08,9.11-9.11-4.08-9.11-9.11-9.11v9.11h-9.11Z" fill="#09c"/>
        </g>
        <path d="M146.76,404.18c5.03,0,9.11-4.08,9.11-9.11h-18.21c0,5.03,4.08,9.11,9.11,9.11Z" fill="#039"/>
        <path d="M165.84,422.96c0,5.03,4.08,9.11,9.11,9.11v-18.21c-5.03,0-9.11,4.08-9.11,9.11Z" fill="#039"/>
        <path d="M174.95,404.18v-9.11h-9.11c0,5.03,4.08,9.11,9.11,9.11Z" fill="#039"/>
        <path d="M127.68,395.08h-9.11v9.11c5.03,0,9.11-4.08,9.11-9.11Z" fill="#039"/>
        <path d="M127.68,422.96c0-5.03-4.08-9.11-9.11-9.11v18.21c5.03,0,9.11-4.08,9.11-9.11Z" fill="#039"/>
        <path d="M118.57,441.74v9.11h9.11c0-5.03-4.08-9.11-9.11-9.11Z" fill="#039"/>
        <path d="M146.76,441.74c-5.03,0-9.11,4.08-9.11,9.11h18.21c0-5.03-4.08-9.11-9.11-9.11Z" fill="#039"/>
        <path d="M165.84,450.84h9.11v-9.11c-5.03,0-9.11,4.08-9.11,9.11Z" fill="#039"/>
      </g>
      <g>
        <path d="M158.23,58.1h-47.77v9.22h47.77c-.73-1.38-1.14-2.95-1.14-4.61s.42-3.23,1.14-4.61Z" fill="#09c"/>
        <path d="M183.07,58.1h-7.3c.73,1.38,1.14,2.95,1.14,4.61s-.42,3.23-1.14,4.61h7.3v-9.22Z" fill="#09c"/>
        <path d="M167,72.62c3.81,0,7.11-2.15,8.77-5.3h-17.53c1.66,3.15,4.96,5.3,8.76,5.3Z" fill="#feaa2f"/>
        <path d="M167,52.81c-3.81,0-7.11,2.15-8.76,5.3h17.53c-1.66-3.15-4.96-5.3-8.77-5.3Z" fill="#feaa2f"/>
        <path d="M175.76,58.1h-17.53c-.73,1.38-1.14,2.95-1.14,4.61s.42,3.23,1.14,4.61h17.53c.73-1.38,1.14-2.95,1.14-4.61s-.42-3.23-1.14-4.61Z" fill="#039"/>
        <path d="M183.07,83.76h-47.52c.57,1.34,.89,2.82,.89,4.39,0,2.02-.54,3.91-1.45,5.52h48.08v-9.91Z" fill="#09c"/>
        <path d="M117.51,83.76h-7.05v9.91h7.61c-.91-1.61-1.45-3.5-1.45-5.52,0-1.57,.32-3.05,.89-4.39Z" fill="#09c"/>
        <path d="M126.53,78.28c-4.01,0-7.46,2.39-9.02,5.82h18.04c-1.56-3.43-5.01-5.82-9.02-5.82Z" fill="#feaa2f"/>
        <path d="M126.53,98.09c3.59,0,6.72-1.91,8.46-4.77h-16.92c1.74,2.85,4.87,4.77,8.46,4.77Z" fill="#feaa2f"/>
        <path d="M135.55,83.76h-18.04c-.57,1.34-.89,2.82-.89,4.39,0,2.02,.54,3.91,1.45,5.52h16.92c.91-1.61,1.45-3.5,1.45-5.52,0-1.57-.32-3.05-.89-4.39Z" fill="#039"/>
        <g>
          <path d="M144.61,109.9h-34.15v9.22h34.15c-.73-1.38-1.14-2.95-1.14-4.61s.42-3.23,1.14-4.61Z" fill="#09c"/>
          <path d="M183.07,109.9h-20.93c.73,1.38,1.14,2.95,1.14,4.61s-.42,3.23-1.14,4.61h20.93v-9.22Z" fill="#09c"/>
          <path d="M153.37,104.6c-3.81,0-7.11,2.15-8.76,5.3h17.53c-1.66-3.15-4.96-5.3-8.77-5.3Z" fill="#feaa2f"/>
          <path d="M153.37,124.42c3.81,0,7.11-2.15,8.77-5.3h-17.53c1.66,3.15,4.96,5.3,8.76,5.3Z" fill="#feaa2f"/>
          <path d="M162.14,109.9h-17.53c-.73,1.38-1.14,2.95-1.14,4.61s.42,3.23,1.14,4.61h17.53c.73-1.38,1.14-2.95,1.14-4.61s-.42-3.23-1.14-4.61Z" fill="#039"/>
        </g>
      </g>
    </g>
  </g>
</svg>