<?xml version="1.0" encoding="UTF-8"?>
<svg width="392px" height="634px" viewBox="0 0 392 634" version="1.1" xmlns="http://www.w3.org/2000/svg" xmlns:xlink="http://www.w3.org/1999/xlink">
    <title>Group 12</title>
    <g id="Page-1" stroke="none" stroke-width="1" fill="none" fill-rule="evenodd">
        <g id="Start-Page" transform="translate(-990.000000, -39.000000)" fill-rule="nonzero">
            <g id="Group-12" transform="translate(990.000000, 39.000000)">
                <g id="Group-Copy-5" transform="translate(312.000000, 0.000000)">
                    <polygon id="Path" fill="#80DE85" points="0 78 37 52.0070213 0 26"></polygon>
                    <polygon id="Path" fill="#003399" points="0 66 20 52.0071102 0 38"></polygon>
                    <polygon id="Path" fill="#FF9933" points="0 103 74 51.5070192 0 0 0 16.3968925 50.3441472 51.6333651 0 86.5890691"></polygon>
                </g>
                <g id="Group-Copy-4" transform="translate(5.000000, 193.000000)">
                    <path d="M94,9 L78.0183073,9 L78.0183073,21.4542639 L15.9816927,21.4542639 L15.9816927,9 L0,9 L0,77 L15.9816927,77 L15.9816927,63.7313649 L78.0183073,63.7313649 L78.0183073,77 L94,77 L94,9 Z M78.0183073,53.3411109 L15.9816927,53.3411109 L15.9816927,31.8585587 L78.0183073,31.8585587 L78.0183073,53.3411109 Z" id="Shape" fill="#FFD940"></path>
                    <rect id="Rectangle" fill="#0099CC" x="16" y="0" width="62" height="9"></rect>
                    <rect id="Rectangle" fill="#003399" x="16" y="10" width="62" height="12"></rect>
                    <rect id="Rectangle" fill="#003399" x="16" y="32" width="62" height="22"></rect>
                    <rect id="Rectangle" fill="#0099CC" x="16" y="78" width="62" height="8"></rect>
                    <rect id="Rectangle" fill="#003399" x="16" y="64" width="62" height="13"></rect>
                </g>
                <g id="Group-Copy-3" transform="translate(146.000000, 71.000000)">
                    <rect id="Rectangle" fill="#F7A7B6" x="8" y="8" width="71" height="71"></rect>
                    <circle id="Oval" fill="#003399" cx="10.5" cy="10.5" r="10.5"></circle>
                    <circle id="Oval" fill="#003399" cx="43.5" cy="10.5" r="10.5"></circle>
                    <circle id="Oval" fill="#0099CC" cx="77.5" cy="10.5" r="10.5"></circle>
                    <circle id="Oval" fill="#003399" cx="10.5" cy="45.5" r="10.5"></circle>
                    <circle id="Oval" fill="#003399" cx="43.5" cy="45.5" r="10.5"></circle>
                    <circle id="Oval" fill="#003399" cx="77.5" cy="45.5" r="10.5"></circle>
                    <circle id="Oval" fill="#003399" cx="10.5" cy="79.5" r="10.5"></circle>
                    <circle id="Oval" fill="#003399" cx="43.5" cy="79.5" r="10.5"></circle>
                    <circle id="Oval" fill="#003399" cx="77.5" cy="79.5" r="10.5"></circle>
                </g>
                <g id="Group-Copy" transform="translate(0.000000, 363.100000)">
                    <polygon id="Path" fill="#F7A7B6" points="82.4976532 59.8999999 82.4976532 68.1377621 16.4882662 68.1377621 16.4882662 59.8999999 0 59.8999999 0 87.8999999 99 87.8999999 99 59.8999999"></polygon>
                    <polygon id="Path" fill="#80DE85" points="82 39.8999999 71.0046928 39.8999999 71.0046928 48.2309759 27.0093857 48.2309759 27.0093857 39.8999999 16 39.8999999 16 59.8999999 82 59.8999999"></polygon>
                    <rect id="Rectangle" fill="#003399" x="16" y="59.8999999" width="66" height="8"></rect>
                    <polygon id="Path" fill="#F7A7B6" points="71 19.8999999 63.66432 19.8999999 63.66432 28.2227175 34.3216 28.2227175 34.3216 19.8999999 27 19.8999999 27 39.8999999 71 39.8999999"></polygon>
                    <rect id="Rectangle" fill="#003399" x="27" y="39.8999999" width="44" height="8"></rect>
                    <rect id="Rectangle" fill="#80DE85" x="35" y="-0.100000104" width="29" height="20"></rect>
                    <rect id="Rectangle" fill="#003399" x="35" y="19.8999999" width="29" height="8"></rect>
                </g>
                <g id="Group-Copy-6" transform="translate(142.000000, 466.000000)">
                    <path d="M56.5887987,69.4887782 L56.5887987,69.460658 C52.440558,69.3622375 49.1984177,68.2936722 46.4801166,66.6627041 L27.4520092,75.9423503 L35.2246513,55.8505102 C35.2246513,55.8505102 35.2671247,55.8786303 35.2671247,55.8926904 L35.3662294,55.7802098 C31.2604622,51.1966269 26.6308557,47.189507 18.4193213,47.0067261 C11.6660421,46.8520653 7.2204872,49.3828779 3.4545076,52.7151145 C3.46866542,52.8697753 0,89.9321201 0,89.9321201 C1.67062253,88.2027315 3.39787633,86.5577033 5.36581303,85.1798164 C8.60795336,82.9161451 12.4871955,81.3835975 17.7680616,81.5101381 C37.0510098,81.9600603 36.6121174,103.415727 55.8101187,103.96407 L55.8101187,103.99219 C59.1796794,104.076551 61.9829273,103.471968 64.4039142,102.445582 C64.1773891,102.319042 68,66.3815027 68,66.3815027 C64.9560691,68.3217923 61.3458255,69.5731386 56.5746408,69.4887782 L56.5887987,69.4887782 Z" id="Path" fill="#0099CC"></path>
                    <path d="M46.0973185,67 L46.6895515,66.7032272 L46.6895515,66.7032272 C46.6895515,66.7032272 46.7177531,66.6749631 46.7177531,66.6749631 L46.7882571,66.632567 C46.7882571,66.632567 46.7741563,66.6184349 46.7741563,66.6184349 L96,10.4435773 L84.1271382,0 L35,56.0618013 C38.4546926,59.9622443 41.5427647,64.2583843 46.069117,67 L46.0973185,67 Z" id="Path" fill="#FF9933"></path>
                    <path d="M34.7611607,56.069735 L27,76 L46,66.7949791 C41.4479167,64.0892608 38.3660714,59.8493724 34.9025298,56 L34.8035714,56.111576 C34.8035714,56.111576 34.7611607,56.069735 34.7611607,56.069735 Z" id="Path" fill="#003399"></path>
                </g>
                <g id="Group-Copy-2" transform="translate(307.000000, 551.000000)">
                    <rect id="Rectangle" fill="#003399" x="-0.0328275205" y="0.396874864" width="75" height="75"></rect>
                    <polygon id="Rectangle" fill="#FFD940" transform="translate(20.467172, 70.396875) rotate(-90.000000) translate(-20.467172, -70.396875) " points="7.96717248 61.3968749 32.9671725 61.3968749 32.9671725 79.3968749 7.96717248 79.3968749"></polygon>
                    <polygon id="Rectangle" fill="#FFD940" transform="translate(48.467172, 56.396875) rotate(-90.000000) translate(-48.467172, -56.396875) " points="21.9671725 47.3968749 74.9671725 47.3968749 74.9671725 65.3968749 21.9671725 65.3968749"></polygon>
                    <polygon id="Rectangle" fill="#F7A7B6" transform="translate(75.967172, 45.396875) rotate(-90.000000) translate(-75.967172, -45.396875) " points="38.9671725 36.3968749 112.967172 36.3968749 112.967172 54.3968749 38.9671725 54.3968749"></polygon>
                </g>
            </g>
        </g>
    </g>
</svg>