<?xml version="1.0" encoding="UTF-8"?>
<svg id="Layer_2" data-name="Layer 2" xmlns="http://www.w3.org/2000/svg" viewBox="0 0 61.89 61.38">
  <g id="Graphic">
    <g>
      <rect x="7.56" y="7.56" width="46.77" height="46.27" fill="#f7a7b6"/>
      <circle cx="30.94" cy="30.69" r="7.56" fill="#039"/>
      <g>
        <path d="M30.94,0c-4.17,0-7.56,3.38-7.56,7.56h15.11c0-4.17-3.38-7.56-7.56-7.56Z" fill="#09c"/>
        <path d="M61.89,30.69c0-4.17-3.38-7.56-7.56-7.56v15.11c4.17,0,7.56-3.38,7.56-7.56Z" fill="#09c"/>
        <path d="M54.33,15.11c4.17,0,7.56-3.38,7.56-7.56s-3.38-7.56-7.56-7.56-7.56,3.38-7.56,7.56h7.56v7.56Z" fill="#09c"/>
        <path d="M15.11,7.56C15.11,3.38,11.73,0,7.56,0S0,3.38,0,7.56s3.38,7.56,7.56,7.56V7.56h7.56Z" fill="#09c"/>
        <path d="M0,30.69c0,4.17,3.38,7.56,7.56,7.56v-15.11c-4.17,0-7.56,3.38-7.56,7.56Z" fill="#09c"/>
        <path d="M7.56,46.27c-4.17,0-7.56,3.38-7.56,7.56s3.38,7.56,7.56,7.56,7.56-3.38,7.56-7.56H7.56v-7.56Z" fill="#09c"/>
        <path d="M30.94,61.38c4.17,0,7.56-3.38,7.56-7.56h-15.11c0,4.17,3.38,7.56,7.56,7.56Z" fill="#09c"/>
        <path d="M46.77,53.82c0,4.17,3.38,7.56,7.56,7.56s7.56-3.38,7.56-7.56-3.38-7.56-7.56-7.56v7.56h-7.56Z" fill="#09c"/>
      </g>
      <path d="M30.94,15.11c4.17,0,7.56-3.38,7.56-7.56h-15.11c0,4.17,3.38,7.56,7.56,7.56Z" fill="#039"/>
      <path d="M46.77,30.69c0,4.17,3.38,7.56,7.56,7.56v-15.11c-4.17,0-7.56,3.38-7.56,7.56Z" fill="#039"/>
      <path d="M54.33,15.11V7.56h-7.56c0,4.17,3.38,7.56,7.56,7.56Z" fill="#039"/>
      <path d="M15.11,7.56H7.56v7.56c4.17,0,7.56-3.38,7.56-7.56Z" fill="#039"/>
      <path d="M15.11,30.69c0-4.17-3.38-7.56-7.56-7.56v15.11c4.17,0,7.56-3.38,7.56-7.56Z" fill="#039"/>
      <path d="M7.56,46.27v7.56h7.56c0-4.17-3.38-7.56-7.56-7.56Z" fill="#039"/>
      <path d="M30.94,46.27c-4.17,0-7.56,3.38-7.56,7.56h15.11c0-4.17-3.38-7.56-7.56-7.56Z" fill="#039"/>
      <path d="M46.77,53.82h7.56v-7.56c-4.17,0-7.56,3.38-7.56,7.56Z" fill="#039"/>
    </g>
  </g>
</svg>