<?xml version="1.0" encoding="UTF-8"?>
<svg width="69px" height="74px" viewBox="0 0 69 74" version="1.1" xmlns="http://www.w3.org/2000/svg" xmlns:xlink="http://www.w3.org/1999/xlink">
    <title>design-and-style</title>
    <g id="Page-1" stroke="none" stroke-width="1" fill="none" fill-rule="evenodd">
        <g id="design-and-style" transform="translate(0.400000, 0.000000)" fill-rule="nonzero">
            <path d="M39.97,49.41 L39.97,49.39 C37.04,49.32 34.75,48.56 32.83,47.4 L19.39,54 L24.88,39.71 C24.88,39.71 24.91,39.73 24.91,39.74 L24.98,39.66 C22.08,36.4 18.81,33.55 13.01,33.42 C8.24,33.31 5.1,35.11 2.44,37.48 C2.45,37.59 -5.68434189e-14,63.95 -5.68434189e-14,63.95 C1.18,62.72 2.4,61.55 3.79,60.57 C6.08,58.96 8.82,57.87 12.55,57.96 C26.17,58.28 25.86,73.54 39.42,73.93 L39.42,73.95 C41.8,74.01 43.78,73.58 45.49,72.85 C45.33,72.76 48.03,47.2 48.03,47.2 C45.88,48.58 43.33,49.47 39.96,49.41 L39.97,49.41 Z" id="Path" fill="#0099CC"></path>
            <path d="M32.83,47.41 L33.25,47.2 L33.25,47.2 C33.25,47.2 33.27,47.18 33.27,47.18 L33.32,47.15 C33.32,47.15 33.31,47.14 33.31,47.14 L68.22,7.39 L59.8,-1.13686838e-13 L24.96,39.67 C27.41,42.43 29.6,45.47 32.81,47.41 L32.83,47.41 Z" id="Path" fill="#FF9933"></path>
            <path d="M24.88,39.72 L19.39,54.01 L32.83,47.41 C29.61,45.47 27.43,42.43 24.98,39.67 L24.91,39.75 C24.91,39.75 24.88,39.72 24.88,39.72 Z" id="Path" fill="#003399"></path>
        </g>
    </g>
</svg>