<?xml version="1.0" encoding="UTF-8"?>
<svg id="Layer_2" data-name="Layer 2" xmlns="http://www.w3.org/2000/svg" viewBox="0 0 60.24 58.86">
  <g id="Graphic">
    <g>
      <polygon points="50.2 39.99 50.2 45.53 10.04 45.53 10.04 39.99 0 39.99 0 58.86 60.24 58.86 60.24 39.99 50.2 39.99" fill="#f7a7b6"/>
      <polygon points="50.2 26.66 43.51 26.66 43.51 32.2 16.73 32.2 16.73 26.66 10.04 26.66 10.04 39.99 50.2 39.99 50.2 26.66" fill="#80de85"/>
      <rect x="10.04" y="39.99" width="40.16" height="5.55" fill="#039"/>
      <polygon points="43.51 13.33 39.05 13.33 39.05 18.87 21.2 18.87 21.2 13.33 16.73 13.33 16.73 26.66 43.51 26.66 43.51 13.33" fill="#f7a7b6"/>
      <rect x="16.73" y="26.66" width="26.77" height="5.55" fill="#039"/>
      <rect x="21.2" y="0" width="17.85" height="13.33" fill="#80de85"/>
      <rect x="21.2" y="13.33" width="17.85" height="5.55" fill="#039"/>
    </g>
  </g>
</svg>