<?xml version="1.0" encoding="UTF-8"?>
<svg width="68px" height="62px" viewBox="0 0 68 62" version="1.1" xmlns="http://www.w3.org/2000/svg" xmlns:xlink="http://www.w3.org/1999/xlink">
    <title>text</title>
    <g id="Page-1" stroke="none" stroke-width="1" fill="none" fill-rule="evenodd">
        <g id="text" transform="translate(0.690000, 0.620000)" fill-rule="nonzero">
            <path d="M66.64,6.43 L55.31,6.43 L55.31,15.3 L11.33,15.3 L11.33,6.43 L0,6.43 L0,54.86 L11.33,54.86 L11.33,45.41 L55.31,45.41 L55.31,54.86 L66.64,54.86 L66.64,6.43 Z M55.31,38.01 L11.33,38.01 L11.33,22.71 L55.31,22.71 L55.31,38.01 Z" id="Shape" fill="#FFD940"></path>
            <rect id="Rectangle" fill="#0099CC" x="11.32" y="0" width="43.98" height="6.43"></rect>
            <rect id="Rectangle" fill="#003399" x="11.32" y="6.43" width="43.98" height="8.87"></rect>
            <rect id="Rectangle" fill="#003399" x="11.32" y="22.71" width="43.98" height="15.3"></rect>
            <rect id="Rectangle" fill="#0099CC" x="11.32" y="54.86" width="43.98" height="5.85"></rect>
            <rect id="Rectangle" fill="#003399" x="11.32" y="45.41" width="43.98" height="9.45"></rect>
        </g>
    </g>
</svg>