<?xml version="1.0" encoding="UTF-8"?>
<svg id="Layer_2" data-name="Layer 2" xmlns="http://www.w3.org/2000/svg" viewBox="0 0 60.24 59.41">
  <g id="Graphic">
    <g>
      <path d="M39.64,4.39H0v7.65H39.64c-.6-1.14-.95-2.44-.95-3.83s.34-2.68,.95-3.83Z" fill="#09c"/>
      <path d="M60.24,4.39h-6.06c.6,1.14,.95,2.44,.95,3.83s-.35,2.68-.95,3.83h6.06V4.39Z" fill="#09c"/>
      <path d="M54.18,4.39h-14.54c-.6,1.14-.95,2.44-.95,3.83s.34,2.68,.95,3.83h14.54c.6-1.14,.95-2.44,.95-3.83s-.35-2.68-.95-3.83Z" fill="#039"/>
      <path d="M60.24,25.68H20.82c.47,1.11,.74,2.34,.74,3.64,0,1.68-.44,3.24-1.2,4.58H60.24v-8.22Z" fill="#09c"/>
      <path d="M5.85,25.68H0v8.22H6.31c-.76-1.34-1.2-2.9-1.2-4.58,0-1.3,.27-2.53,.74-3.64Z" fill="#09c"/>
      <path d="M28.33,47.37H0v7.65H28.33c-.6-1.14-.95-2.44-.95-3.83s.34-2.68,.95-3.83Z" fill="#09c"/>
      <path d="M60.24,47.37h-17.37c.6,1.14,.95,2.44,.95,3.83s-.35,2.68-.95,3.83h17.37v-7.65Z" fill="#09c"/>
      <path d="M20.82,25.68H5.85c-.47,1.11-.74,2.34-.74,3.64,0,1.68,.44,3.24,1.2,4.58h14.04c.76-1.34,1.2-2.9,1.2-4.58,0-1.3-.27-2.53-.74-3.64Z" fill="#039"/>
      <g>
        <path d="M13.33,37.57c2.98,0,5.58-1.59,7.02-3.96H6.31c1.44,2.37,4.04,3.96,7.02,3.96Z" fill="#feaa2f"/>
        <path d="M46.91,16.44c3.16,0,5.9-1.78,7.27-4.39h-14.54c1.38,2.61,4.11,4.39,7.27,4.39Z" fill="#feaa2f"/>
        <path d="M46.91,0c-3.16,0-5.9,1.78-7.27,4.39h14.54c-1.38-2.61-4.11-4.39-7.27-4.39Z" fill="#feaa2f"/>
        <path d="M13.33,21.13c-3.33,0-6.19,1.98-7.48,4.83h14.97c-1.29-2.85-4.15-4.83-7.48-4.83Z" fill="#feaa2f"/>
        <path d="M35.6,42.97c-3.16,0-5.9,1.78-7.27,4.39h14.54c-1.38-2.61-4.11-4.39-7.27-4.39Z" fill="#feaa2f"/>
        <path d="M35.6,59.41c3.16,0,5.9-1.78,7.27-4.39h-14.54c1.38,2.61,4.11,4.39,7.27,4.39Z" fill="#feaa2f"/>
      </g>
      <path d="M42.88,47.37h-14.54c-.6,1.14-.95,2.44-.95,3.83s.34,2.68,.95,3.83h14.54c.6-1.14,.95-2.44,.95-3.83s-.35-2.68-.95-3.83Z" fill="#039"/>
    </g>
  </g>
</svg>