<?xml version="1.0" encoding="UTF-8"?>
<svg xmlns="http://www.w3.org/2000/svg" viewBox="0 0 513.63 250">
  <g id="Hintergrund">
    <rect x="-44.18" y="0" width="600" height="250" fill="#fef8f9"/>
  </g>
  <g id="Graphic">
    <line x1="9.2" y1="148.65" x2="202.08" y2="148.65" fill="none" stroke="#f7a7b6" stroke-linecap="round" stroke-width=".99"/>
    <line x1="9.2" y1="170.77" x2="202.08" y2="170.77" fill="none" stroke="#f7a7b6" stroke-linecap="round" stroke-width=".99"/>
    <line x1="9.2" y1="104.42" x2="202.08" y2="104.42" fill="none" stroke="#f7a7b6" stroke-linecap="round" stroke-width=".99"/>
    <line x1="9.2" y1="126.54" x2="202.08" y2="126.54" fill="none" stroke="#f7a7b6" stroke-linecap="round" stroke-width=".99"/>
    <line x1="65.69" y1="89.01" x2="65.69" y2="184.84" fill="none" stroke="#f7a7b6" stroke-linecap="round" stroke-width=".99"/>
    <line x1="111.86" y1="89.01" x2="111.86" y2="184.84" fill="none" stroke="#f7a7b6" stroke-linecap="round" stroke-width=".99"/>
    <line x1="163.54" y1="89.01" x2="163.54" y2="184.84" fill="none" stroke="#f7a7b6" stroke-linecap="round" stroke-width=".99"/>
    <line x1="244.21" y1="148.65" x2="509.02" y2="148.65" fill="none" stroke="#f7a7b6" stroke-linecap="round" stroke-width=".99"/>
    <line x1="244.21" y1="170.77" x2="509.02" y2="170.77" fill="none" stroke="#f7a7b6" stroke-linecap="round" stroke-width=".99"/>
    <line x1="244.21" y1="104.42" x2="509.02" y2="104.42" fill="none" stroke="#f7a7b6" stroke-linecap="round" stroke-width=".99"/>
    <line x1="244.21" y1="126.54" x2="509.02" y2="126.54" fill="none" stroke="#f7a7b6" stroke-linecap="round" stroke-width=".99"/>
    <line x1="300.7" y1="89.01" x2="300.7" y2="184.84" fill="none" stroke="#f7a7b6" stroke-linecap="round" stroke-width=".99"/>
    <line x1="366.2" y1="89.01" x2="366.2" y2="184.84" fill="none" stroke="#f7a7b6" stroke-linecap="round" stroke-width=".99"/>
    <line x1="451.73" y1="89.01" x2="451.73" y2="184.84" fill="none" stroke="#f7a7b6" stroke-linecap="round" stroke-width=".99"/>
  </g>
  <g id="Text">
    <text transform="translate(17.05 95.16)" font-family="Ubuntu-Regular, Ubuntu" font-size="10"><tspan x="0" y="0">goods</tspan></text>
    <text transform="translate(151.44 79.89)" font-family="Ubuntu-Regular, Ubuntu" font-size="10"><tspan x="0" y="0">value</tspan></text>
    <text transform="translate(74.75 95.16)" font-family="Ubuntu-Regular, Ubuntu" font-size="10"><tspan x="0" y="0">%, amt</tspan></text>
    <text transform="translate(123.61 95.16)" font-family="Ubuntu-Regular, Ubuntu" font-size="10"><tspan x="0" y="0">in euro</tspan></text>
    <text transform="translate(175.99 95.16)" font-family="Ubuntu-Regular, Ubuntu" font-size="10"><tspan x="0" y="0">in $</tspan></text>
    <text transform="translate(17.05 118.07)" font-family="Ubuntu-Regular, Ubuntu" font-size="10"><tspan x="0" y="0">Insurance</tspan></text>
    <text transform="translate(71.88 118.07)" font-family="Ubuntu-Regular, Ubuntu" font-size="10"><tspan x="0" y="0">30,3</tspan></text>
    <text transform="translate(140.79 118.07)" font-family="Ubuntu-Regular, Ubuntu" font-size="10"><tspan x="0" y="0">3</tspan></text>
    <text transform="translate(140.79 139.73)" font-family="Ubuntu-Regular, Ubuntu" font-size="10"><tspan x="0" y="0">0</tspan></text>
    <text transform="translate(140.79 161.68)" font-family="Ubuntu-Regular, Ubuntu" font-size="10"><tspan x="0" y="0">1</tspan></text>
    <text transform="translate(179.81 118.07)" font-family="Ubuntu-Regular, Ubuntu" font-size="10"><tspan x="0" y="0">4</tspan></text>
    <text transform="translate(179.81 139.73)" font-family="Ubuntu-Regular, Ubuntu" font-size="10"><tspan x="0" y="0">0</tspan></text>
    <text transform="translate(179.81 161.68)" font-family="Ubuntu-Regular, Ubuntu" font-size="10"><tspan x="0" y="0">1,5</tspan></text>
    <text transform="translate(71.88 161.97)" font-family="Ubuntu-Regular, Ubuntu" font-size="10"><tspan x="0" y="0">40,5</tspan></text>
    <text transform="translate(87.65 141.92)" font-family="Ubuntu-Regular, Ubuntu" font-size="10"><tspan x="0" y="0">0</tspan></text>
    <text transform="translate(17.05 140.97)" font-family="Ubuntu-Regular, Ubuntu" font-size="10"><tspan x="0" y="0" letter-spacing="-.04em">T</tspan><tspan x="5.25" y="0">ransport</tspan></text>
    <text transform="translate(17.05 161.97)" font-family="Ubuntu-Regular, Ubuntu" font-size="10"><tspan x="0" y="0" letter-spacing="-.05em">T</tspan><tspan x="5.1" y="0">ourism</tspan></text>
    <text transform="translate(252.06 95.16)" font-family="Ubuntu-Regular, Ubuntu" font-size="10"><tspan x="0" y="0">goods</tspan></text>
    <text transform="translate(306.36 95.16)" font-family="Ubuntu-Regular, Ubuntu" font-size="10"><tspan x="0" y="0">percentage</tspan></text>
    <text transform="translate(373.22 95.16)" font-family="Ubuntu-Regular, Ubuntu" font-size="10"><tspan x="0" y="0">value in millions</tspan></text>
    <text transform="translate(459.8 95.16)" font-family="Ubuntu-Regular, Ubuntu" font-size="10"><tspan x="0" y="0">curren</tspan><tspan x="29.44" y="0" letter-spacing=".01em">c</tspan><tspan x="34.2" y="0">y</tspan></text>
    <text transform="translate(252.06 118.07)" font-family="Ubuntu-Regular, Ubuntu" font-size="10"><tspan x="0" y="0">Insurance</tspan></text>
    <text transform="translate(342.14 118.07)" font-family="Ubuntu-Regular, Ubuntu" font-size="10"><tspan x="0" y="0">30,3</tspan></text>
    <text transform="translate(437.53 118.07)" font-family="Ubuntu-Regular, Ubuntu" font-size="10"><tspan x="0" y="0">3</tspan></text>
    <text transform="translate(437.53 162.06)" font-family="Ubuntu-Regular, Ubuntu" font-size="10"><tspan x="0" y="0">1</tspan></text>
    <text transform="translate(459.8 118.07)" font-family="Ubuntu-Regular, Ubuntu" font-size="10"><tspan x="0" y="0" letter-spacing="-.02em">E</tspan><tspan x="5.52" y="0">uro</tspan></text>
    <text transform="translate(459.8 141.92)" font-family="Ubuntu-Regular, Ubuntu" font-size="10"><tspan x="0" y="0" letter-spacing="-.02em">E</tspan><tspan x="5.52" y="0">uro</tspan></text>
    <text transform="translate(459.8 162.06)" font-family="Ubuntu-Regular, Ubuntu" font-size="10"><tspan x="0" y="0" letter-spacing="-.02em">E</tspan><tspan x="5.52" y="0">uro</tspan></text>
    <text transform="translate(342.14 162.06)" font-family="Ubuntu-Regular, Ubuntu" font-size="10"><tspan x="0" y="0">40,5</tspan></text>
    <text transform="translate(308.1 141.92)" font-family="Ubuntu-Regular, Ubuntu" font-size="10"><tspan x="0" y="0">null</tspan></text>
    <text transform="translate(372.09 141.92)" font-family="Ubuntu-Regular, Ubuntu" font-size="10"><tspan x="0" y="0">null</tspan></text>
    <text transform="translate(252.06 141.92)" font-family="Ubuntu-Regular, Ubuntu" font-size="10"><tspan x="0" y="0" letter-spacing="-.04em">T</tspan><tspan x="5.25" y="0">ransport</tspan></text>
    <text transform="translate(252.06 162.06)" font-family="Ubuntu-Regular, Ubuntu" font-size="10"><tspan x="0" y="0" letter-spacing="-.05em">T</tspan><tspan x="5.1" y="0">ourism</tspan></text>
    <g>
      <rect x="245.42" y="22.6" width="29.87" height=".94" fill="#f7a7b6"/>
      <text transform="translate(244.21 20.19)" font-family="Ubuntu-Bold, Ubuntu" font-size="10"><tspan x="0" y="0">GOOD</tspan></text>
    </g>
    <g>
      <rect x="10.02" y="22.6" width="20.64" height=".94" fill="#f7a7b6"/>
      <text transform="translate(9.2 20.19)" font-family="Ubuntu-Bold, Ubuntu" font-size="10"><tspan x="0" y="0" letter-spacing="0em">B</tspan><tspan x="6.62" y="0">AD</tspan></text>
    </g>
  </g>
</svg>