<?xml version="1.0" encoding="UTF-8"?>
<svg xmlns="http://www.w3.org/2000/svg" viewBox="0 0 600 250">
  <g id="Hintergrund">
    <rect x="-1.13" y="0" width="600" height="250" fill="rgba(255, 248, 238, .4)"/>
  </g>
  <g id="Graphic">
    <line x1="407.77" y1="182.94" x2="196.83" y2="182.94" fill="none" stroke="#feaa2f" stroke-linecap="round" stroke-miterlimit="10" stroke-width=".57"/>
    <line x1="407.77" y1="103.09" x2="196.83" y2="103.1" fill="none" stroke="#feaa2f" stroke-linecap="round" stroke-miterlimit="10" stroke-width=".57"/>
    <line x1="407.77" y1="143.02" x2="196.83" y2="143.02" fill="none" stroke="#feaa2f" stroke-linecap="round" stroke-miterlimit="10" stroke-width=".57"/>
    <line x1="407.77" y1="63.17" x2="196.83" y2="63.17" fill="none" stroke="#feaa2f" stroke-linecap="round" stroke-miterlimit="10" stroke-width=".57"/>
    <line x1="407.77" y1="23.05" x2="196.83" y2="23.05" fill="none" stroke="#feaa2f" stroke-linecap="round" stroke-miterlimit="10" stroke-width=".57"/>
    <circle cx="208.51" cy="197.34" r="9.04" fill="#ffe5c1"/>
    <circle cx="208.79" cy="221.4" r="9.04" fill="#ffe5c1"/>
    <path d="M216.58,196.2l-6.82-6.34v3.82c-1.68,0-7.89,.62-8.01,9.34,0,0,2.16-4.72,8.01-4.47v4.19l6.82-6.55Z" fill="#feaa2f"/>
    <polyline points="205.93 218.34 203.37 221 206.03 223.56" fill="none" stroke="#feaa2f" stroke-linecap="round" stroke-miterlimit="10" stroke-width="1.42"/>
    <polyline points="211.14 218.34 213.7 221 211.04 223.56" fill="none" stroke="#feaa2f" stroke-linecap="round" stroke-miterlimit="10" stroke-width="1.42"/>
    <line x1="207.56" y1="224.86" x2="209.08" y2="217.06" fill="none" stroke="#feaa2f" stroke-linecap="round" stroke-miterlimit="10" stroke-width="1.42"/>
    <path d="M198.39,183.56s6.1-.77,6.1-3.08,4.58-3.86,4.58-3.86c4.58-6.17,8.39-4.67,7.63-7.76s1.53-13.83,1.53-16.15,4.58-6.94,4.58-9.25,2.29-7.71,3.05-10.02,3.81-3.08,4.58-.77,1.53,6.17,3.05,8.48c1.53,2.31,4.58,9.25,4.58,9.25,4.58-2.31,6.86-9.25,6.86-12.34s0-6.94,.76-8.48c.76-1.54,3.81-6.94,4.58-8.48s3.05,.77,5.34-1.54c2.29-2.31,5.34-6.17,5.34-7.71s6.1-.77,6.1-4.63,4.58-8.48,5.34-8.48,4.58,7.71,4.58,7.71c0,0,2.29,8.48,3.05,9.25s3.05,8.48,3.05,8.48c3.81-4.63,6.1-8.48,6.1-8.48l1.53-6.94s6.1-7.71,5.34-10.02c-.76-2.31,2.29-6.17,2.29-7.71s3.05-4.63,3.05-6.94,1.53-3.86,2.29-6.94,4.58-6.94,4.58-6.94l4.58-6.94,2.29-6.17,6.86-6.94s3.81-4.63,3.05-6.94c-.76-2.31,1.53-4.63,2.29-6.94s3.81-4.63,6.1-2.31,6.1,.77,6.1,.77c0,0,9.15,.77,9.91,4.63,.76,3.86,3.05,9.25,3.05,9.25,0,0,2.29,5.4,2.29,6.94s.76,6.17,.76,6.17l.76,11.57s0,5.4,.76,8.48,0,6.94,1.53,10.8c1.53,3.86,6.1,3.86,6.86,1.54,.76-2.31,2.29-6.17,2.29-6.17,0,0,4.58,.77,5.34-.77,.76-1.54,1.53-6.94,1.53-6.94l5.34-3.86,5.34-3.08,6.1,3.08v106.75s-192.95-.34-192.95,.43Z" fill="#febe61"/>
  </g>
  <g id="Text">
    <text transform="translate(224.83 225.64)" fill="#feaa2f" font-family="Ubuntu-Medium, Ubuntu" font-size="10"><tspan x="0" y="0">&lt;iframe title = </tspan><tspan x="68.64" y="0" letter-spacing="-.02em">„</tspan><tspan x="72.93" y="0">Graphic on the mos</tspan><tspan x="162.12" y="0" letter-spacing="0em">t</tspan><tspan x="166.39" y="0">...</tspan></text>
    <text transform="translate(224.83 200.68)" fill="#feaa2f" font-family="Ubuntu-Medium, Ubuntu" font-size="10"><tspan x="0" y="0">Share visualization</tspan></text>
  </g>
</svg>