<?xml version="1.0" encoding="UTF-8"?>
<svg id="Graphic" xmlns="http://www.w3.org/2000/svg" viewBox="0 0 600 250">
  <rect width="600" height="250" fill="#e1eae1"/>
  <g>
    <rect x="231.31" y="26.43" width="143.38" height="202.88" fill="#bfeec2"/>
    <rect x="225.32" y="20.69" width="143.38" height="202.88" fill="#80d980"/>
    <line x1="246.45" y1="78.51" x2="348.5" y2="78.51" fill="none" stroke="#fff" stroke-miterlimit="10" stroke-width="2.13"/>
    <line x1="246.45" y1="88.01" x2="334.78" y2="88.01" fill="none" stroke="#fff" stroke-miterlimit="10" stroke-width="2.13"/>
    <line x1="246.45" y1="97.51" x2="344.28" y2="97.51" fill="none" stroke="#fff" stroke-miterlimit="10" stroke-width="2.13"/>
    <line x1="246.45" y1="107.01" x2="337.42" y2="107.01" fill="none" stroke="#fff" stroke-miterlimit="10" stroke-width="2.13"/>
    <line x1="246.45" y1="166.52" x2="333.86" y2="166.52" fill="none" stroke="#fff" stroke-miterlimit="10" stroke-width="2.13"/>
    <line x1="246.45" y1="176.02" x2="345.13" y2="176.02" fill="none" stroke="#fff" stroke-miterlimit="10" stroke-width="2.13"/>
    <line x1="246.45" y1="185.52" x2="329.88" y2="185.52" fill="none" stroke="#fff" stroke-miterlimit="10" stroke-width="2.13"/>
    <line x1="246.45" y1="195.02" x2="337.42" y2="195.02" fill="none" stroke="#fff" stroke-miterlimit="10" stroke-width="2.13"/>
    <g>
      <rect x="281.79" y="34.7" width="30.73" height="30.73" fill="none"/>
      <polygon points="281.79 65.43 292.61 50.07 299.25 56.35 312.51 38.89 312.51 65.43 281.79 65.43" fill="#fff"/>
    </g>
    <g>
      <rect x="279.67" y="125.62" width="30.73" height="30.73" fill="none"/>
      <rect x="281.71" y="148.06" width="9.69" height="7.05" transform="translate(134.98 438.14) rotate(-90)" fill="#fff"/>
      <rect x="285.17" y="142.84" width="20.12" height="7.05" transform="translate(148.86 441.6) rotate(-90)" fill="#fff"/>
      <rect x="289.71" y="138.71" width="28.38" height="7.05" transform="translate(161.66 446.14) rotate(-90)" fill="#fff"/>
    </g>
  </g>
</svg>