<?xml version="1.0" encoding="UTF-8"?>
<svg xmlns="http://www.w3.org/2000/svg" viewBox="0 0 600 250">
  <g id="Hintergrund">
    <rect x="-.16" y="0" width="600" height="250" fill="#f2fcf3"/>
  </g>
  <g id="Graphic">
    <g>
      <rect x="314.65" y="29.6" width="143.38" height="202.88" fill="#bfeec2"/>
      <rect x="308.66" y="23.86" width="143.38" height="202.88" fill="#80d980"/>
      <line x1="329.79" y1="81.67" x2="431.84" y2="81.67" fill="none" stroke="#fff" stroke-linecap="round" stroke-miterlimit="10" stroke-width="2.13"/>
      <line x1="329.79" y1="91.17" x2="418.12" y2="91.17" fill="none" stroke="#fff" stroke-linecap="round" stroke-miterlimit="10" stroke-width="2.13"/>
      <line x1="329.79" y1="100.67" x2="427.62" y2="100.67" fill="none" stroke="#fff" stroke-linecap="round" stroke-miterlimit="10" stroke-width="2.13"/>
      <line x1="329.79" y1="110.17" x2="420.76" y2="110.17" fill="none" stroke="#fff" stroke-linecap="round" stroke-miterlimit="10" stroke-width="2.13"/>
      <line x1="330.45" y1="121.42" x2="424" y2="121.42" fill="none" stroke="#fff" stroke-linecap="round" stroke-miterlimit="10" stroke-width="2.13"/>
      <line x1="330.45" y1="130.92" x2="433.12" y2="130.92" fill="none" stroke="#fff" stroke-linecap="round" stroke-miterlimit="10" stroke-width="2.13"/>
      <line x1="330.45" y1="140.42" x2="410.97" y2="140.42" fill="none" stroke="#fff" stroke-linecap="round" stroke-miterlimit="10" stroke-width="2.13"/>
      <line x1="330.45" y1="149.92" x2="421.41" y2="149.92" fill="none" stroke="#fff" stroke-linecap="round" stroke-miterlimit="10" stroke-width="2.13"/>
      <line x1="329.79" y1="169.69" x2="417.2" y2="169.69" fill="none" stroke="#fff" stroke-linecap="round" stroke-miterlimit="10" stroke-width="2.13"/>
      <line x1="329.79" y1="179.19" x2="428.47" y2="179.19" fill="none" stroke="#fff" stroke-linecap="round" stroke-miterlimit="10" stroke-width="2.13"/>
      <line x1="329.79" y1="188.69" x2="413.22" y2="188.69" fill="none" stroke="#fff" stroke-linecap="round" stroke-miterlimit="10" stroke-width="2.13"/>
      <line x1="329.79" y1="198.19" x2="420.76" y2="198.19" fill="none" stroke="#fff" stroke-linecap="round" stroke-miterlimit="10" stroke-width="2.13"/>
      <g>
        <rect x="365.13" y="37.86" width="30.73" height="30.73" fill="none"/>
        <polygon points="365.13 68.59 375.95 53.23 382.59 59.52 395.85 42.06 395.85 68.59 365.13 68.59" fill="#fff"/>
      </g>
      <rect x="153.05" y="29.6" width="143.38" height="202.88" fill="#bfeec2"/>
      <rect x="147.07" y="23.86" width="143.38" height="202.88" fill="#80d980"/>
      <line x1="168.2" y1="81.67" x2="265.45" y2="81.67" fill="none" stroke="#fff" stroke-linecap="round" stroke-miterlimit="10" stroke-width="2.13"/>
      <line x1="168.2" y1="91.17" x2="256.53" y2="91.17" fill="none" stroke="#fff" stroke-linecap="round" stroke-miterlimit="10" stroke-width="2.13"/>
      <line x1="168.2" y1="100.67" x2="266.03" y2="100.67" fill="none" stroke="#fff" stroke-linecap="round" stroke-miterlimit="10" stroke-width="2.13"/>
      <line x1="168.2" y1="110.17" x2="259.17" y2="110.17" fill="none" stroke="#fff" stroke-linecap="round" stroke-miterlimit="10" stroke-width="2.13"/>
      <line x1="168.2" y1="52.08" x2="262.84" y2="52.08" fill="none" stroke="#fff" stroke-linecap="round" stroke-miterlimit="10" stroke-width="2.13"/>
      <line x1="168.2" y1="61.58" x2="256.32" y2="61.58" fill="none" stroke="#fff" stroke-linecap="round" stroke-miterlimit="10" stroke-width="2.13"/>
      <line x1="168.2" y1="71.08" x2="263.27" y2="71.08" fill="none" stroke="#fff" stroke-linecap="round" stroke-miterlimit="10" stroke-width="2.13"/>
      <line x1="168.2" y1="169.69" x2="255.61" y2="169.69" fill="none" stroke="#fff" stroke-linecap="round" stroke-miterlimit="10" stroke-width="2.13"/>
      <line x1="168.2" y1="179.19" x2="266.88" y2="179.19" fill="none" stroke="#fff" stroke-linecap="round" stroke-miterlimit="10" stroke-width="2.13"/>
      <line x1="168.2" y1="188.69" x2="251.63" y2="188.69" fill="none" stroke="#fff" stroke-linecap="round" stroke-miterlimit="10" stroke-width="2.13"/>
      <line x1="168.2" y1="198.19" x2="259.17" y2="198.19" fill="none" stroke="#fff" stroke-linecap="round" stroke-miterlimit="10" stroke-width="2.13"/>
      <rect x="203.54" y="37.86" width="30.73" height="30.73" fill="none"/>
      <g>
        <rect x="201.41" y="128.78" width="30.73" height="30.73" fill="none"/>
        <rect x="203.46" y="151.22" width="9.69" height="7.05" transform="translate(53.56 363.05) rotate(-90)" fill="#fff"/>
        <rect x="206.92" y="146.01" width="20.12" height="7.05" transform="translate(67.45 366.51) rotate(-90)" fill="#fff"/>
        <rect x="211.46" y="141.88" width="28.38" height="7.05" transform="translate(80.25 371.05) rotate(-90)" fill="#fff"/>
      </g>
    </g>
  </g>
</svg>