<?xml version="1.0" encoding="UTF-8"?>
<svg id="Graphic" xmlns="http://www.w3.org/2000/svg" viewBox="0 0 600 250">
  <rect width="600" height="250" fill="#e1eae1"/>
  <g>
    <rect x="231.31" y="26.43" width="143.38" height="202.88" fill="#bfeec2"/>
    <rect x="225.32" y="20.69" width="143.38" height="202.88" fill="#80d980"/>
    <g>
      <rect x="243.22" y="42.88" width="30.73" height="30.73" fill="none"/>
      <polygon points="243.22 73.6 254.04 58.24 260.67 64.53 273.94 47.07 273.94 73.6 243.22 73.6" fill="#fff"/>
    </g>
    <g>
      <rect x="243.42" y="87.26" width="30.73" height="30.73" fill="none"/>
      <rect x="245.47" y="109.7" width="9.69" height="7.05" transform="translate(137.09 363.54) rotate(-90)" fill="#fff"/>
      <rect x="248.93" y="104.48" width="20.12" height="7.05" transform="translate(150.98 367) rotate(-90)" fill="#fff"/>
      <rect x="253.47" y="100.36" width="28.38" height="7.05" transform="translate(163.78 371.54) rotate(-90)" fill="#fff"/>
    </g>
    <g>
      <rect x="243.37" y="135.15" width="30.73" height="30.73" fill="none"/>
      <path d="M268.03,141.22c2.38,2.38,3.85,5.66,3.85,9.29,0,7.26-5.88,13.14-13.14,13.14s-13.14-5.88-13.14-13.14,5.88-13.14,13.14-13.14v13.14l9.29-9.29Z" fill="#fff"/>
    </g>
    <line x1="287.7" y1="52.49" x2="344.07" y2="52.49" fill="none" stroke="#fff" stroke-miterlimit="10" stroke-width="2.13"/>
    <line x1="287.7" y1="61.99" x2="344.07" y2="61.99" fill="none" stroke="#fff" stroke-miterlimit="10" stroke-width="2.13"/>
    <line x1="287.7" y1="71.49" x2="344.07" y2="71.49" fill="none" stroke="#fff" stroke-miterlimit="10" stroke-width="2.13"/>
    <line x1="287.7" y1="94.35" x2="344.07" y2="94.35" fill="none" stroke="#fff" stroke-miterlimit="10" stroke-width="2.13"/>
    <line x1="287.7" y1="103.85" x2="344.07" y2="103.85" fill="none" stroke="#fff" stroke-miterlimit="10" stroke-width="2.13"/>
    <line x1="287.7" y1="113.35" x2="344.07" y2="113.35" fill="none" stroke="#fff" stroke-miterlimit="10" stroke-width="2.13"/>
    <line x1="287.7" y1="140.26" x2="344.07" y2="140.26" fill="none" stroke="#fff" stroke-miterlimit="10" stroke-width="2.13"/>
    <line x1="287.7" y1="149.76" x2="344.07" y2="149.76" fill="none" stroke="#fff" stroke-miterlimit="10" stroke-width="2.13"/>
    <line x1="287.7" y1="159.26" x2="344.07" y2="159.26" fill="none" stroke="#fff" stroke-miterlimit="10" stroke-width="2.13"/>
  </g>
</svg>