<?xml version="1.0" encoding="UTF-8"?>
<svg xmlns="http://www.w3.org/2000/svg" viewBox="0 0 600 250">
  <g id="Hintergrund">
    <rect x="-.17" width="600" height="250" fill="#f2fcf3"/>
  </g>
  <g id="Graphic">
    <g>
      <rect x="234.67" y="29.26" width="143.38" height="202.88" fill="#bfeec2"/>
      <rect x="228.69" y="23.51" width="143.38" height="202.88" fill="#80d980"/>
      <g>
        <rect x="246.59" y="45.7" width="30.73" height="30.73" fill="none"/>
        <polygon points="246.59 76.43 257.41 61.07 264.04 67.35 277.31 49.89 277.31 76.43 246.59 76.43" fill="#fff"/>
      </g>
      <g>
        <rect x="246.79" y="90.08" width="30.73" height="30.73" fill="none"/>
        <rect x="248.84" y="112.52" width="9.69" height="7.05" transform="translate(137.64 369.73) rotate(-90)" fill="#fff"/>
        <rect x="252.3" y="107.31" width="20.12" height="7.05" transform="translate(151.52 373.19) rotate(-90)" fill="#fff"/>
        <rect x="256.84" y="103.18" width="28.38" height="7.05" transform="translate(164.33 377.73) rotate(-90)" fill="#fff"/>
      </g>
      <g>
        <rect x="246.74" y="137.98" width="30.73" height="30.73" fill="none"/>
        <path d="M271.4,144.05c2.38,2.38,3.85,5.66,3.85,9.29,0,7.26-5.88,13.14-13.14,13.14s-13.14-5.88-13.14-13.14,5.88-13.14,13.14-13.14v13.14l9.29-9.29Z" fill="#fff"/>
      </g>
      <line x1="291.07" y1="55.31" x2="347.43" y2="55.31" fill="none" stroke="#fff" stroke-linecap="round" stroke-miterlimit="10" stroke-width="2.13"/>
      <line x1="291.07" y1="64.81" x2="347.43" y2="64.81" fill="none" stroke="#fff" stroke-linecap="round" stroke-miterlimit="10" stroke-width="2.13"/>
      <line x1="291.07" y1="97.17" x2="347.43" y2="97.17" fill="none" stroke="#fff" stroke-linecap="round" stroke-miterlimit="10" stroke-width="2.13"/>
      <line x1="291.07" y1="106.67" x2="347.43" y2="106.67" fill="none" stroke="#fff" stroke-linecap="round" stroke-miterlimit="10" stroke-width="2.13"/>
      <line x1="291.07" y1="143.08" x2="347.43" y2="143.08" fill="none" stroke="#fff" stroke-linecap="round" stroke-miterlimit="10" stroke-width="2.13"/>
      <line x1="291.07" y1="152.58" x2="347.43" y2="152.58" fill="none" stroke="#fff" stroke-linecap="round" stroke-miterlimit="10" stroke-width="2.13"/>
    </g>
  </g>
</svg>