<?xml version="1.0" encoding="UTF-8"?>
<svg xmlns="http://www.w3.org/2000/svg" viewBox="0 0 600 250">
  <g id="Hintergrund">
    <rect width="600" height="250" fill="#f8fdf8"/>
  </g>
  <g id="Graphic">
    <g>
      <rect x="314.81" y="29.6" width="143.38" height="202.88" fill="#bfeec2"/>
      <rect x="308.82" y="23.86" width="143.38" height="202.88" fill="#80d980"/>
      <line x1="329.96" y1="81.67" x2="432.01" y2="81.67" fill="none" stroke="#fff" stroke-linecap="round" stroke-miterlimit="10" stroke-width="2.13"/>
      <line x1="329.96" y1="91.17" x2="418.28" y2="91.17" fill="none" stroke="#fff" stroke-linecap="round" stroke-miterlimit="10" stroke-width="2.13"/>
      <line x1="329.96" y1="100.67" x2="427.78" y2="100.67" fill="none" stroke="#fff" stroke-linecap="round" stroke-miterlimit="10" stroke-width="2.13"/>
      <line x1="329.96" y1="110.17" x2="420.92" y2="110.17" fill="none" stroke="#fff" stroke-linecap="round" stroke-miterlimit="10" stroke-width="2.13"/>
      <line x1="330.61" y1="121.42" x2="424.16" y2="121.42" fill="none" stroke="#fff" stroke-linecap="round" stroke-miterlimit="10" stroke-width="2.13"/>
      <line x1="330.61" y1="130.92" x2="433.28" y2="130.92" fill="none" stroke="#fff" stroke-linecap="round" stroke-miterlimit="10" stroke-width="2.13"/>
      <line x1="330.61" y1="140.42" x2="411.13" y2="140.42" fill="none" stroke="#fff" stroke-linecap="round" stroke-miterlimit="10" stroke-width="2.13"/>
      <line x1="330.61" y1="149.92" x2="421.58" y2="149.92" fill="none" stroke="#fff" stroke-linecap="round" stroke-miterlimit="10" stroke-width="2.13"/>
      <line x1="329.96" y1="169.69" x2="417.36" y2="169.69" fill="none" stroke="#fff" stroke-linecap="round" stroke-miterlimit="10" stroke-width="2.13"/>
      <line x1="329.96" y1="179.19" x2="428.64" y2="179.19" fill="none" stroke="#fff" stroke-linecap="round" stroke-miterlimit="10" stroke-width="2.13"/>
      <line x1="329.96" y1="188.69" x2="413.38" y2="188.69" fill="none" stroke="#fff" stroke-linecap="round" stroke-miterlimit="10" stroke-width="2.13"/>
      <line x1="329.96" y1="198.19" x2="420.92" y2="198.19" fill="none" stroke="#fff" stroke-linecap="round" stroke-miterlimit="10" stroke-width="2.13"/>
      <g>
        <rect x="365.29" y="37.86" width="30.73" height="30.73" fill="none"/>
        <polygon points="365.29 68.59 376.12 53.23 382.75 59.52 396.02 42.06 396.02 68.59 365.29 68.59" fill="#fff"/>
      </g>
      <rect x="153.22" y="29.6" width="143.38" height="202.88" fill="#bfeec2"/>
      <rect x="147.23" y="23.86" width="143.38" height="202.88" fill="#80d980"/>
      <line x1="168.37" y1="81.67" x2="265.61" y2="81.67" fill="none" stroke="#fff" stroke-linecap="round" stroke-miterlimit="10" stroke-width="2.13"/>
      <line x1="168.37" y1="91.17" x2="256.69" y2="91.17" fill="none" stroke="#fff" stroke-linecap="round" stroke-miterlimit="10" stroke-width="2.13"/>
      <line x1="168.37" y1="100.67" x2="266.19" y2="100.67" fill="none" stroke="#fff" stroke-linecap="round" stroke-miterlimit="10" stroke-width="2.13"/>
      <line x1="168.37" y1="110.17" x2="259.33" y2="110.17" fill="none" stroke="#fff" stroke-linecap="round" stroke-miterlimit="10" stroke-width="2.13"/>
      <line x1="168.37" y1="52.08" x2="263" y2="52.08" fill="none" stroke="#fff" stroke-linecap="round" stroke-miterlimit="10" stroke-width="2.13"/>
      <line x1="168.37" y1="61.58" x2="256.49" y2="61.58" fill="none" stroke="#fff" stroke-linecap="round" stroke-miterlimit="10" stroke-width="2.13"/>
      <line x1="168.37" y1="71.08" x2="263.44" y2="71.08" fill="none" stroke="#fff" stroke-linecap="round" stroke-miterlimit="10" stroke-width="2.13"/>
      <line x1="168.37" y1="169.69" x2="255.77" y2="169.69" fill="none" stroke="#fff" stroke-linecap="round" stroke-miterlimit="10" stroke-width="2.13"/>
      <line x1="168.37" y1="179.19" x2="267.05" y2="179.19" fill="none" stroke="#fff" stroke-linecap="round" stroke-miterlimit="10" stroke-width="2.13"/>
      <line x1="168.37" y1="188.69" x2="251.79" y2="188.69" fill="none" stroke="#fff" stroke-linecap="round" stroke-miterlimit="10" stroke-width="2.13"/>
      <line x1="168.37" y1="198.19" x2="259.33" y2="198.19" fill="none" stroke="#fff" stroke-linecap="round" stroke-miterlimit="10" stroke-width="2.13"/>
      <rect x="203.7" y="37.86" width="30.73" height="30.73" fill="none"/>
      <g>
        <rect x="201.58" y="128.78" width="30.73" height="30.73" fill="none"/>
        <rect x="203.62" y="151.22" width="9.69" height="7.05" transform="translate(53.72 363.22) rotate(-90)" fill="#fff"/>
        <rect x="207.08" y="146.01" width="20.12" height="7.05" transform="translate(67.61 366.67) rotate(-90)" fill="#fff"/>
        <rect x="211.63" y="141.88" width="28.38" height="7.05" transform="translate(80.41 371.22) rotate(-90)" fill="#fff"/>
      </g>
    </g>
  </g>
</svg>