<?xml version="1.0" encoding="UTF-8"?>
<svg xmlns="http://www.w3.org/2000/svg" viewBox="0 0 471.19 250">
  <g id="Hintergrund">
    <rect x="-65.26" y="0" width="600" height="250" fill="#f3f5fa"/>
  </g>
  <g id="Text">
    <text transform="translate(29.3 52.01)" font-family="Ubuntu-Medium, Ubuntu" font-size="10"><tspan x="0" y="0" letter-spacing="0em">L</tspan><tspan x="5.24" y="0">et</tspan><tspan x="15.13" y="0" letter-spacing="0em">t</tspan><tspan x="19.22" y="0">ers </tspan><tspan x="35.86" y="0" letter-spacing="-.01em">b</tspan><tspan x="41.71" y="0" letter-spacing="0em">y popularity</tspan></text>
    <text transform="translate(260.4 66.42)" font-family="Ubuntu-Regular, Ubuntu" font-size="8"><tspan x="0" y="0" letter-spacing="-.01em">L</tspan><tspan x="4.06" y="0" letter-spacing="0em">et</tspan><tspan x="11.74" y="0" letter-spacing="-.01em">t</tspan><tspan x="14.88" y="0">ers </tspan><tspan x="27.86" y="0" letter-spacing="-.01em">b</tspan><tspan x="32.46" y="0">y popularity in the </tspan><tspan x="100.1" y="0" letter-spacing="-.02em">E</tspan><tspan x="104.49" y="0" letter-spacing="-.01em">U</tspan><tspan x="109.92" y="0">, 2022, </tspan><tspan x="0" y="9.6">in percent</tspan></text>
    <text transform="translate(29.47 66.42)" font-family="Ubuntu-Regular, Ubuntu" font-size="8"><tspan x="0" y="0">In the </tspan><tspan x="22.7" y="0" letter-spacing="-.02em">E</tspan><tspan x="27.09" y="0" letter-spacing="-.01em">U</tspan><tspan x="32.51" y="0">, 2022, in percent</tspan></text>
    <text transform="translate(260.4 52.01)" font-family="Ubuntu-Medium, Ubuntu" font-size="10"><tspan x="0" y="0" letter-spacing="-.07em">‘</tspan><tspan x="1.85" y="0" letter-spacing="-.06em">A</tspan><tspan x="8.08" y="0" letter-spacing="0em">’ is the most popular let</tspan><tspan x="117.6" y="0" letter-spacing="0em">t</tspan><tspan x="121.69" y="0">er</tspan></text>
    <text transform="translate(19.81 107.78)" fill="#1a171b" font-family="Ubuntu-Regular, Ubuntu" font-size="10"><tspan x="0" y="0">A</tspan></text>
    <text transform="translate(19.81 133.11)" fill="#1a171b" font-family="Ubuntu-Regular, Ubuntu" font-size="10"><tspan x="0" y="0">B</tspan></text>
    <text transform="translate(19.81 158.8)" fill="#1a171b" font-family="Ubuntu-Regular, Ubuntu" font-size="10"><tspan x="0" y="0">C</tspan></text>
    <text transform="translate(19.81 184.85)" fill="#1a171b" font-family="Ubuntu-Regular, Ubuntu" font-size="10"><tspan x="0" y="0">D</tspan></text>
    <text transform="translate(19.81 209.81)" fill="#1a171b" font-family="Ubuntu-Regular, Ubuntu" font-size="10"><tspan x="0" y="0">E</tspan></text>
    <text transform="translate(248.85 107.78)" fill="#1a181b" font-family="Ubuntu-Regular, Ubuntu" font-size="10"><tspan x="0" y="0">A</tspan></text>
    <text transform="translate(248.85 133.11)" fill="#1a181b" font-family="Ubuntu-Regular, Ubuntu" font-size="10"><tspan x="0" y="0">B</tspan></text>
    <text transform="translate(248.85 158.8)" fill="#1a181b" font-family="Ubuntu-Regular, Ubuntu" font-size="10"><tspan x="0" y="0">C</tspan></text>
    <text transform="translate(248.85 184.85)" fill="#1a181b" font-family="Ubuntu-Regular, Ubuntu" font-size="10"><tspan x="0" y="0">D</tspan></text>
    <text transform="translate(248.85 209.81)" fill="#1a181b" font-family="Ubuntu-Regular, Ubuntu" font-size="10"><tspan x="0" y="0">E</tspan></text>
    <g>
      <line x1="66.68" y1="88.87" x2="66.68" y2="226.55" fill="none" stroke="#c0c1c3" stroke-linecap="round" stroke-miterlimit="10" stroke-width=".57"/>
      <line x1="102.38" y1="88.87" x2="102.38" y2="226.55" fill="none" stroke="#c0c1c3" stroke-linecap="round" stroke-miterlimit="10" stroke-width=".57"/>
      <line x1="138.07" y1="88.87" x2="138.07" y2="226.55" fill="none" stroke="#c0c1c3" stroke-linecap="round" stroke-miterlimit="10" stroke-width=".57"/>
      <line x1="173.77" y1="88.87" x2="173.77" y2="226.55" fill="none" stroke="#c0c1c3" stroke-linecap="round" stroke-miterlimit="10" stroke-width=".57"/>
      <line x1="30.99" y1="88.87" x2="30.99" y2="226.55" fill="none" stroke="#c0c1c3" stroke-linecap="round" stroke-miterlimit="10" stroke-width=".85"/>
    </g>
    <rect x="30.99" y="98.44" width="142.78" height="13.54" fill="#039"/>
    <rect x="30.95" y="123.93" width="128.94" height="13.54" fill="#039"/>
    <rect x="30.89" y="149.42" width="107.48" height="13.54" fill="#039"/>
    <rect x="30.87" y="174.91" width="85.59" height="13.54" fill="#039"/>
    <rect x="30.99" y="200.4" width="71.39" height="13.54" fill="#039"/>
    <g>
      <line x1="297.38" y1="88.87" x2="297.38" y2="226.55" fill="none" stroke="#c0c1c3" stroke-linecap="round" stroke-miterlimit="10" stroke-width=".57"/>
      <line x1="333.07" y1="88.87" x2="333.07" y2="226.55" fill="none" stroke="#c0c1c3" stroke-linecap="round" stroke-miterlimit="10" stroke-width=".57"/>
      <line x1="368.77" y1="88.87" x2="368.77" y2="226.55" fill="none" stroke="#c0c1c3" stroke-linecap="round" stroke-miterlimit="10" stroke-width=".57"/>
      <line x1="404.46" y1="88.87" x2="404.46" y2="226.55" fill="none" stroke="#c0c1c3" stroke-linecap="round" stroke-miterlimit="10" stroke-width=".57"/>
      <line x1="261.68" y1="88.87" x2="261.68" y2="226.55" fill="none" stroke="#c0c1c3" stroke-linecap="round" stroke-miterlimit="10" stroke-width=".85"/>
    </g>
    <rect x="261.68" y="98.44" width="142.78" height="13.54" fill="#039"/>
    <rect x="261.64" y="123.93" width="128.94" height="13.54" fill="#039"/>
    <rect x="261.59" y="149.42" width="107.48" height="13.54" fill="#039"/>
    <rect x="261.57" y="174.91" width="85.59" height="13.54" fill="#039"/>
    <rect x="261.68" y="200.4" width="71.39" height="13.54" fill="#039"/>
    <rect x="262.23" y="21.96" width="29.87" height=".94" fill="#039"/>
    <rect x="31.41" y="21.96" width="20.64" height=".94" fill="#039"/>
    <text transform="translate(262.14 19.54)" font-family="Ubuntu-Bold, Ubuntu" font-size="10"><tspan x="0" y="0">GOOD</tspan></text>
    <text transform="translate(30.58 19.54)" font-family="Ubuntu-Bold, Ubuntu" font-size="10"><tspan x="0" y="0" letter-spacing="0em">B</tspan><tspan x="6.62" y="0">AD</tspan></text>
  </g>
</svg>