<?xml version="1.0" encoding="UTF-8"?>
<svg xmlns="http://www.w3.org/2000/svg" viewBox="0 0 600 250">
  <g id="Hintergrund">
    <rect y="-.88" width="600" height="250" fill="rgba(214, 222, 239, .4)"/>
  </g>
  <g id="Text">
    <rect x="324.7" y="23.1" width="29.87" height=".94" fill="#039"/>
    <rect x="94.38" y="23.1" width="20.64" height=".94" fill="#039"/>
    <text transform="translate(324.88 20.69)" font-family="Ubuntu-Bold, Ubuntu" font-size="10"><tspan x="0" y="0">GOOD</tspan></text>
    <text transform="translate(93.56 20.69)" font-family="Ubuntu-Bold, Ubuntu" font-size="10"><tspan x="0" y="0" letter-spacing="0em">B</tspan><tspan x="6.62" y="0">AD</tspan></text>
    <g>
      <line x1="125.1" y1="63.69" x2="125.1" y2="194.6" fill="none" stroke="#c0c1c3" stroke-linecap="round" stroke-miterlimit="10" stroke-width=".57"/>
      <line x1="156.06" y1="63.69" x2="156.06" y2="194.6" fill="none" stroke="#c0c1c3" stroke-linecap="round" stroke-miterlimit="10" stroke-width=".57"/>
      <line x1="187.03" y1="63.69" x2="187.03" y2="194.6" fill="none" stroke="#c0c1c3" stroke-linecap="round" stroke-miterlimit="10" stroke-width=".57"/>
      <line x1="218" y1="63.69" x2="218" y2="194.6" fill="none" stroke="#c0c1c3" stroke-linecap="round" stroke-miterlimit="10" stroke-width=".57"/>
      <line x1="94.13" y1="63.69" x2="94.13" y2="194.6" fill="none" stroke="#c0c1c3" stroke-linecap="round" stroke-miterlimit="10" stroke-width=".85"/>
    </g>
    <rect x="94.13" y="169.2" width="123.87" height="11.74" fill="#039"/>
    <rect x="94.1" y="147.27" width="111.86" height="11.74" fill="#039"/>
    <rect x="94.05" y="81.46" width="93.24" height="11.74" fill="#039"/>
    <rect x="94.03" y="125.33" width="74.25" height="11.74" fill="#039"/>
    <rect x="94.13" y="103.4" width="61.93" height="11.74" fill="#039"/>
    <g>
      <line x1="355.58" y1="63.69" x2="355.58" y2="194.6" fill="none" stroke="#c0c1c3" stroke-linecap="round" stroke-miterlimit="10" stroke-width=".57"/>
      <line x1="386.55" y1="63.69" x2="386.55" y2="194.6" fill="none" stroke="#c0c1c3" stroke-linecap="round" stroke-miterlimit="10" stroke-width=".57"/>
      <line x1="417.51" y1="63.69" x2="417.51" y2="194.6" fill="none" stroke="#c0c1c3" stroke-linecap="round" stroke-miterlimit="10" stroke-width=".57"/>
      <line x1="448.48" y1="63.69" x2="448.48" y2="194.6" fill="none" stroke="#c0c1c3" stroke-linecap="round" stroke-miterlimit="10" stroke-width=".57"/>
      <line x1="324.61" y1="63.69" x2="324.61" y2="194.6" fill="none" stroke="#c0c1c3" stroke-linecap="round" stroke-miterlimit="10" stroke-width=".85"/>
    </g>
    <rect x="324.61" y="80.87" width="123.87" height="11.74" fill="#039"/>
    <rect x="324.58" y="102.98" width="111.86" height="11.74" fill="#039"/>
    <rect x="324.53" y="125.09" width="93.24" height="11.74" fill="#039"/>
    <rect x="324.51" y="147.21" width="74.25" height="11.74" fill="#039"/>
    <rect x="324.61" y="169.32" width="61.93" height="11.74" fill="#039"/>
  </g>
</svg>