<?xml version="1.0" encoding="UTF-8"?>
<svg xmlns="http://www.w3.org/2000/svg" viewBox="0 0 600 250">
  <g id="Hintergrund">
    <rect y="-.88" width="600" height="250" fill="rgba(214, 222, 239, .4)"/>
  </g>
  <g id="Text">
    <rect x="324.74" y="23.11" width="29.87" height=".94" fill="#039"/>
    <rect x="94.68" y="23.11" width="20.64" height=".94" fill="#039"/>
    <text transform="translate(324.92 20.69)" font-family="Ubuntu-Bold, Ubuntu" font-size="10"><tspan x="0" y="0">GOOD</tspan></text>
    <text transform="translate(93.85 20.69)" font-family="Ubuntu-Bold, Ubuntu" font-size="10"><tspan x="0" y="0" letter-spacing="0em">B</tspan><tspan x="6.62" y="0">AD</tspan></text>
    <circle cx="179.09" cy="131.3" r="38.47" transform="translate(-5 7.11) rotate(-2.24)" fill="#80de85"/>
    <path d="M206.21,104.2c6.99,6.99,11.31,16.64,11.31,27.31,0,21.33-17.29,38.62-38.62,38.62s-38.62-17.29-38.62-38.62c0-21.33,17.29-38.62,38.62-38.62v38.62s27.31-27.31,27.31-27.31Z" fill="#feaa2f"/>
    <circle cx="427.35" cy="131.3" r="38.47" transform="translate(-4.81 16.82) rotate(-2.24)" fill="#039"/>
    <path d="M454.46,104.2c6.99,6.99,11.31,16.64,11.31,27.31,0,21.33-17.29,38.62-38.62,38.62s-38.62-17.29-38.62-38.62c0-21.33,17.29-38.62,38.62-38.62v38.62s27.31-27.31,27.31-27.31Z" fill="#f7a7b6"/>
    <text transform="translate(199.61 80.19)" font-family="Ubuntu-Regular, Ubuntu" font-size="8.86"><tspan x="0" y="0" letter-spacing="-.02em">P</tspan><tspan x="5.2" y="0">ositi</tspan><tspan x="22.43" y="0" letter-spacing="-.01em">v</tspan><tspan x="26.75" y="0">e</tspan></text>
    <text transform="translate(141.58 80.19)" font-family="Ubuntu-Regular, Ubuntu" font-size="8.86"><tspan x="0" y="0">Negati</tspan><tspan x="26.96" y="0" letter-spacing="-.01em">v</tspan><tspan x="31.28" y="0" letter-spacing="0em">e</tspan></text>
    <text transform="translate(457.22 78.42)" font-family="Ubuntu-Regular, Ubuntu" font-size="8.86"><tspan x="0" y="0" letter-spacing="-.02em">P</tspan><tspan x="5.2" y="0">ositi</tspan><tspan x="22.43" y="0" letter-spacing="-.01em">v</tspan><tspan x="26.75" y="0">e</tspan></text>
    <text transform="translate(363.84 77.86)" font-family="Ubuntu-Regular, Ubuntu" font-size="8.86"><tspan x="0" y="0">Negati</tspan><tspan x="26.96" y="0" letter-spacing="-.01em">v</tspan><tspan x="31.28" y="0" letter-spacing="0em">e</tspan></text>
    <circle cx="193.66" cy="76.84" r="2.82" fill="#80de85"/>
    <circle cx="135.82" cy="76.84" r="2.82" fill="#feaa2f"/>
    <path d="M438.01,94.47v-12.67c0-3.25,2.66-5.91,5.91-5.91h10.12" fill="none" stroke="#c0c1c3" stroke-linecap="round" stroke-miterlimit="10" stroke-width=".57"/>
    <path d="M420.34,94.15v-12.34c0-3.25-2.66-5.91-5.91-5.91h-9.98" fill="none" stroke="#c0c1c3" stroke-linecap="round" stroke-miterlimit="10" stroke-width=".57"/>
  </g>
</svg>