<?xml version="1.0" encoding="UTF-8"?>
<svg id="Text" xmlns="http://www.w3.org/2000/svg" viewBox="0 0 471.19 250">
  <rect x="-64.4" y="-.88" width="600" height="250" fill="#f3f5fa"/>
  <line x1="429.28" y1="212.77" x2="275.66" y2="212.77" fill="none" stroke="#c0c1c3" stroke-linecap="round" stroke-miterlimit="10" stroke-width=".85"/>
  <line x1="429.28" y1="180.41" x2="275.66" y2="180.41" fill="none" stroke="#c0c1c3" stroke-linecap="round" stroke-miterlimit="10" stroke-width=".57"/>
  <line x1="429.28" y1="148.05" x2="275.66" y2="148.05" fill="none" stroke="#c0c1c3" stroke-linecap="round" stroke-miterlimit="10" stroke-width=".57"/>
  <line x1="429.28" y1="115.69" x2="275.66" y2="115.69" fill="none" stroke="#c0c1c3" stroke-linecap="round" stroke-miterlimit="10" stroke-width=".57"/>
  <line x1="429.28" y1="83.16" x2="275.66" y2="83.16" fill="none" stroke="#c0c1c3" stroke-linecap="round" stroke-miterlimit="10" stroke-width=".57"/>
  <rect x="278.44" y="22.38" width="29.87" height=".94" fill="#039"/>
  <rect x="49.37" y="22.38" width="20.64" height=".94" fill="#039"/>
  <text transform="translate(278.62 19.97)" font-family="Ubuntu-Bold, Ubuntu" font-size="10"><tspan x="0" y="0">GOOD</tspan></text>
  <text transform="translate(48.55 19.97)" font-family="Ubuntu-Bold, Ubuntu" font-size="10"><tspan x="0" y="0" letter-spacing="0em">B</tspan><tspan x="6.62" y="0">AD</tspan></text>
  <text transform="translate(272.98 52.19)" font-family="Ubuntu-Bold, Ubuntu" font-size="13"><tspan x="0" y="0">This is a title</tspan></text>
  <text transform="translate(272.98 66.39)" font-family="Ubuntu-Regular, Ubuntu" font-size="10"><tspan x="0" y="0">This is a subtitle</tspan></text>
  <text transform="translate(274.7 225.49)" fill="#58585a" font-family="Ubuntu-Regular, Ubuntu" font-size="8"><tspan x="0" y="0">2020</tspan></text>
  <text transform="translate(410.02 225.49)" fill="#58585a" font-family="Ubuntu-Regular, Ubuntu" font-size="8"><tspan x="0" y="0">2022</tspan></text>
  <text transform="translate(260.56 118.27)" fill="#58585a" font-family="Ubuntu-Regular, Ubuntu" font-size="8"><tspan x="0" y="0">60</tspan></text>
  <text transform="translate(260.56 85.03)" fill="#58585a" font-family="Ubuntu-Regular, Ubuntu" font-size="8"><tspan x="0" y="0">80</tspan></text>
  <text transform="translate(260.56 150.49)" fill="#58585a" font-family="Ubuntu-Regular, Ubuntu" font-size="8"><tspan x="0" y="0">40</tspan></text>
  <text transform="translate(260.56 183.11)" fill="#58585a" font-family="Ubuntu-Regular, Ubuntu" font-size="8"><tspan x="0" y="0">20</tspan></text>
  <text transform="translate(265.07 212.9)" fill="#58585a" font-family="Ubuntu-Regular, Ubuntu" font-size="8"><tspan x="0" y="0">0</tspan></text>
  <path d="M275.71,211.96s4.77-.6,4.77-2.38,3.58-2.98,3.58-2.98c3.58-4.77,6.56-5.37,5.96-7.75-.6-2.38,1.19-8.94,1.19-10.73s3.58-5.37,3.58-7.15,1.79-5.96,2.38-7.75,2.98-2.38,3.58-.6c.6,1.79,1.19,4.77,2.38,6.56s3.58,7.15,3.58,7.15c3.58-1.79,5.37-7.15,5.37-9.54s0-5.37,.6-6.56,2.98-5.37,3.58-6.56c.6-1.19,2.38,.6,4.17-1.19s4.17-4.77,4.17-5.96,4.77-.6,4.77-3.58,3.58-6.56,4.17-6.56,3.58,5.96,3.58,5.96c0,0,1.79,6.56,2.38,7.15,.6,.6,2.38,6.56,2.38,6.56,2.98-3.58,4.77-6.56,4.77-6.56l1.19-5.37s4.77-5.96,4.17-7.75c-.6-1.79,1.79-4.77,1.79-5.96s2.38-3.58,2.38-5.37,1.19-2.98,1.79-5.37c.6-2.38,3.58-5.37,3.58-5.37l3.58-5.37,1.79-4.77,5.37-5.37s2.98-3.58,2.38-5.37,1.19-3.58,1.79-5.37,2.98-3.58,4.77-1.79c1.79,1.79,4.77,.6,4.77,.6,0,0,7.15,.6,7.75,3.58,.6,2.98,2.38,7.15,2.38,7.15,0,0,1.79,4.17,1.79,5.37s.6,4.77,.6,4.77l.6,8.94s0,4.17,.6,6.56c.6,2.38,0,5.37,1.19,8.35s4.77,2.98,5.37,1.19c.6-1.79,1.79-4.77,1.79-4.77,0,0,3.58,.6,4.17-.6,.6-1.19,1.19-5.37,1.19-5.37l4.17-2.98,4.17-2.38,4.77,2.38" fill="none" stroke="#039" stroke-miterlimit="10" stroke-width="2"/>
  <line x1="196.33" y1="211.47" x2="46.41" y2="211.47" fill="none" stroke="#c0c1c3" stroke-linecap="round" stroke-miterlimit="10" stroke-width=".85"/>
  <line x1="196.33" y1="179.88" x2="46.41" y2="179.89" fill="none" stroke="#c0c1c3" stroke-linecap="round" stroke-miterlimit="10" stroke-width=".57"/>
  <line x1="196.33" y1="148.3" x2="46.41" y2="148.3" fill="none" stroke="#c0c1c3" stroke-linecap="round" stroke-miterlimit="10" stroke-width=".57"/>
  <line x1="196.33" y1="116.72" x2="46.41" y2="116.72" fill="none" stroke="#c0c1c3" stroke-linecap="round" stroke-miterlimit="10" stroke-width=".57"/>
  <line x1="196.33" y1="84.97" x2="46.41" y2="84.97" fill="none" stroke="#c0c1c3" stroke-linecap="round" stroke-miterlimit="10" stroke-width=".57"/>
  <text transform="translate(43.78 62.92) scale(.49 1)" font-family="ComicSansMS, &apos;Comic Sans MS&apos;" font-size="21.11" letter-spacing=".14em"><tspan x="0" y="0">THIS IS A TITLE</tspan></text>
  <text transform="translate(26.9 213.12) rotate(-90)" font-family="ComicSansMS, &apos;Comic Sans MS&apos;" font-size="7.79"><tspan x="0" y="0">This is a subtitle</tspan></text>
  <text transform="translate(45.74 223.89)" fill="#58585a" font-family="BodoniOldFasURW-RegIta, &apos;BodoniOldFasURW RegIta&apos;" font-size="8"><tspan x="0" y="0">2020</tspan></text>
  <text transform="translate(177.54 223.89)" fill="#58585a" font-family="BodoniOldFasURW-RegIta, &apos;BodoniOldFasURW RegIta&apos;" font-size="8"><tspan x="0" y="0">2022</tspan></text>
  <text transform="translate(35.23 117.98)" fill="#58585a" font-family="GTAmerica-Light, &apos;GT America&apos;" font-size="3.9"><tspan x="0" y="0">60</tspan></text>
  <text transform="translate(35.21 86.12)" fill="#58585a" font-family="GTAmerica-Light, &apos;GT America&apos;" font-size="3.9"><tspan x="0" y="0">80</tspan></text>
  <text transform="translate(35.19 149.7)" fill="#58585a" font-family="GTAmerica-Light, &apos;GT America&apos;" font-size="3.9"><tspan x="0" y="0">40</tspan></text>
  <text transform="translate(35.39 180.16)" fill="#58585a" font-family="GTAmerica-Light, &apos;GT America&apos;" font-size="3.9"><tspan x="0" y="0" letter-spacing="-.01em">2</tspan><tspan x="2.06" y="0">0</tspan></text>
  <text transform="translate(37.45 210.62)" fill="#58585a" font-family="GTAmerica-Light, &apos;GT America&apos;" font-size="3.9"><tspan x="0" y="0">0</tspan></text>
  <path d="M46.45,210.68s4.65-.58,4.65-2.33,3.49-2.91,3.49-2.91c3.49-4.65,6.4-5.24,5.82-7.56-.58-2.33,1.16-8.73,1.16-10.47s3.49-5.24,3.49-6.98,1.75-5.82,2.33-7.56,2.91-2.33,3.49-.58c.58,1.75,1.16,4.65,2.33,6.4,1.16,1.75,3.49,6.98,3.49,6.98,3.49-1.75,5.24-6.98,5.24-9.31s0-5.24,.58-6.4,2.91-5.24,3.49-6.4c.58-1.16,2.33,.58,4.07-1.16,1.75-1.75,4.07-4.65,4.07-5.82s4.65-.58,4.65-3.49,3.49-6.4,4.07-6.4,3.49,5.82,3.49,5.82c0,0,1.75,6.4,2.33,6.98s2.33,6.4,2.33,6.4c2.91-3.49,4.65-6.4,4.65-6.4l1.16-5.24s4.65-5.82,4.07-7.56c-.58-1.75,1.75-4.65,1.75-5.82s2.33-3.49,2.33-5.24,1.16-2.91,1.75-5.24c.58-2.33,3.49-5.24,3.49-5.24l3.49-5.24,1.75-4.65,5.24-5.24s2.91-3.49,2.33-5.24c-.58-1.75,1.16-3.49,1.75-5.24s2.91-3.49,4.65-1.75c1.75,1.75,4.65,.58,4.65,.58,0,0,6.98,.58,7.56,3.49s2.33,6.98,2.33,6.98c0,0,1.75,4.07,1.75,5.24s.58,4.65,.58,4.65l.58,8.73s0,4.07,.58,6.4c.58,2.33,0,5.24,1.16,8.15,1.16,2.91,4.65,2.91,5.24,1.16,.58-1.75,1.75-4.65,1.75-4.65,0,0,3.49,.58,4.07-.58s1.16-5.24,1.16-5.24l4.07-2.91,4.07-2.33,4.65,2.33" fill="none" stroke="#039" stroke-miterlimit="10" stroke-width="2"/>
</svg>