<?xml version="1.0" encoding="UTF-8"?>
<svg xmlns="http://www.w3.org/2000/svg" viewBox="0 0 471.19 250">
  <g id="Hintergrund">
    <rect x="-64.03" y="-.88" width="600" height="250" fill="#f3f5fa"/>
  </g>
  <g id="Text">
    <rect x="260.71" y="23.11" width="29.87" height=".94" fill="#039"/>
    <rect x="30.65" y="23.11" width="20.64" height=".94" fill="#039"/>
    <text transform="translate(260.89 20.69)" font-family="Ubuntu-Bold, Ubuntu" font-size="10"><tspan x="0" y="0">GOOD</tspan></text>
    <text transform="translate(29.82 20.69)" font-family="Ubuntu-Bold, Ubuntu" font-size="10"><tspan x="0" y="0" letter-spacing="0em">B</tspan><tspan x="6.62" y="0">AD</tspan></text>
    <circle cx="115.06" cy="131.3" r="38.47" transform="translate(-5.05 4.6) rotate(-2.24)" fill="#80de85"/>
    <path d="M142.18,104.2c6.99,6.99,11.31,16.64,11.31,27.31,0,21.33-17.29,38.62-38.62,38.62s-38.62-17.29-38.62-38.62c0-21.33,17.29-38.62,38.62-38.62v38.62s27.31-27.31,27.31-27.31Z" fill="#feaa2f"/>
    <circle cx="363.32" cy="131.3" r="38.47" transform="translate(-4.86 14.32) rotate(-2.24)" fill="#039"/>
    <path d="M390.43,104.2c6.99,6.99,11.31,16.64,11.31,27.31,0,21.33-17.29,38.62-38.62,38.62s-38.62-17.29-38.62-38.62c0-21.33,17.29-38.62,38.62-38.62v38.62s27.31-27.31,27.31-27.31Z" fill="#f7a7b6"/>
    <text transform="translate(135.58 80.19)" font-family="Ubuntu-Regular, Ubuntu" font-size="8.86"><tspan x="0" y="0" letter-spacing="-.02em">P</tspan><tspan x="5.2" y="0">ositi</tspan><tspan x="22.43" y="0" letter-spacing="-.01em">v</tspan><tspan x="26.75" y="0">e</tspan></text>
    <text transform="translate(77.55 80.19)" font-family="Ubuntu-Regular, Ubuntu" font-size="8.86"><tspan x="0" y="0">Negati</tspan><tspan x="26.96" y="0" letter-spacing="-.01em">v</tspan><tspan x="31.28" y="0" letter-spacing="0em">e</tspan></text>
    <text transform="translate(393.19 78.42)" font-family="Ubuntu-Regular, Ubuntu" font-size="8.86"><tspan x="0" y="0" letter-spacing="-.02em">P</tspan><tspan x="5.2" y="0">ositi</tspan><tspan x="22.43" y="0" letter-spacing="-.01em">v</tspan><tspan x="26.75" y="0">e</tspan></text>
    <text transform="translate(299.81 77.86)" font-family="Ubuntu-Regular, Ubuntu" font-size="8.86"><tspan x="0" y="0">Negati</tspan><tspan x="26.96" y="0" letter-spacing="-.01em">v</tspan><tspan x="31.28" y="0" letter-spacing="0em">e</tspan></text>
    <circle cx="129.63" cy="76.84" r="2.82" fill="#80de85"/>
    <circle cx="71.79" cy="76.84" r="2.82" fill="#feaa2f"/>
    <path d="M373.98,94.47v-12.67c0-3.25,2.66-5.91,5.91-5.91h10.12" fill="none" stroke="#c0c1c3" stroke-linecap="round" stroke-miterlimit="10" stroke-width=".57"/>
    <path d="M356.31,94.15v-12.34c0-3.25-2.66-5.91-5.91-5.91h-9.98" fill="none" stroke="#c0c1c3" stroke-linecap="round" stroke-miterlimit="10" stroke-width=".57"/>
  </g>
</svg>