<?xml version="1.0" encoding="UTF-8"?>
<svg xmlns="http://www.w3.org/2000/svg" viewBox="0 0 600 250">
  <g id="Hintergrund">
    <rect y="-.88" width="600" height="250" fill="rgba(214, 222, 239, .4)"/>
  </g>
  <g id="Graphic">
    <line x1="253.95" y1="209.36" x2="106.66" y2="209.36" fill="none" stroke="#c0c1c3" stroke-linecap="round" stroke-miterlimit="10" stroke-width=".85"/>
    <line x1="253.95" y1="178.46" x2="106.66" y2="178.46" fill="none" stroke="#c0c1c3" stroke-linecap="round" stroke-miterlimit="10" stroke-width=".57"/>
    <line x1="253.95" y1="146.15" x2="106.66" y2="146.15" fill="none" stroke="#c0c1c3" stroke-linecap="round" stroke-miterlimit="10" stroke-width=".57"/>
    <line x1="253.95" y1="113.83" x2="106.66" y2="113.83" fill="none" stroke="#c0c1c3" stroke-linecap="round" stroke-miterlimit="10" stroke-width=".57"/>
    <path d="M253.95,186.2s-3.12-.65-3.12-1.3c0-.65-1.87-1.63-1.87-1.63l-1.56-3.25-.31-4.23-2.19-1.95-2.81-5.53-3.43-1.95s-1.25-2.28-1.87-3.58c-.62-1.3-3.12-4.88-3.12-4.88l-4.06-.33s-1.56,2.93-3.12,2.28c-1.56-.65-4.06-.98-4.37-2.6s.62-.65-1.56-1.95c-2.19-1.3-4.06-2.93-4.06-2.93,0,0-.94,1.3-4.06-1.95-3.12-3.25-5.62-1.63-8.43-1.63s-1.25,2.28-3.75,1.95c-2.5-.33-2.45-.33-4.66-.33-2.21,0-2.21,3.9-4.08,3.58-1.87-.33-2.5-2.93-2.5-2.93l-2.19-2.93-1.56-4.55c-1.56-3.9-.31-1.95-1.56-3.9-1.25-1.95-.62,1.95-1.25-1.95s-1.56-4.88-1.87-6.83-1.56-3.25-1.87-4.55-2.5-3.58-2.5-3.58l-2.19-4.23s-2.81-3.9-3.75-3.9c-.94,0-7.8-3.25-7.8-3.25,0,0-3.75,.65-5.93,0s-5.93-2.6-6.87-2.6c-.94,0-.62,.65-2.19,.33s0,0-3.12,0c-3.12,0-4.37-.33-5.93-.33-1.56,0,.94,0-1.56,0h-2.5s-3.75,1.63-3.75,1.63c0,0,0,3.9-4.06,3.58-4.06-.33-3.12,.98-6.56,.65l-3.43-.33s-2.19-3.58-5.31-3.58-4.05,3.06-4.05,3.06" fill="none" stroke="#039" stroke-dasharray="0 0 3 6" stroke-linecap="round" stroke-miterlimit="10" stroke-width="2"/>
    <line x1="253.95" y1="81.35" x2="106.66" y2="81.35" fill="none" stroke="#c0c1c3" stroke-linecap="round" stroke-miterlimit="10" stroke-width=".57"/>
    <line x1="486.46" y1="136.02" x2="327.49" y2="136.02" fill="none" stroke="#c0c1c3" stroke-linecap="round" stroke-miterlimit="10" stroke-width=".85"/>
    <line x1="486.46" y1="122.51" x2="327.49" y2="122.51" fill="none" stroke="#c0c1c3" stroke-linecap="round" stroke-miterlimit="10" stroke-width=".57"/>
    <line x1="486.46" y1="108.99" x2="327.49" y2="108.99" fill="none" stroke="#c0c1c3" stroke-linecap="round" stroke-miterlimit="10" stroke-width=".57"/>
    <line x1="486.46" y1="95.48" x2="327.49" y2="95.48" fill="none" stroke="#c0c1c3" stroke-linecap="round" stroke-miterlimit="10" stroke-width=".57"/>
    <line x1="486.46" y1="81.9" x2="327.49" y2="81.9" fill="none" stroke="#c0c1c3" stroke-linecap="round" stroke-miterlimit="10" stroke-width=".57"/>
    <line x1="486.46" y1="209.6" x2="327.49" y2="209.6" fill="none" stroke="#c0c1c3" stroke-linecap="round" stroke-miterlimit="10" stroke-width=".85"/>
    <line x1="486.46" y1="196.09" x2="327.49" y2="196.09" fill="none" stroke="#c0c1c3" stroke-linecap="round" stroke-miterlimit="10" stroke-width=".57"/>
    <line x1="486.46" y1="182.58" x2="327.49" y2="182.58" fill="none" stroke="#c0c1c3" stroke-linecap="round" stroke-miterlimit="10" stroke-width=".57"/>
    <line x1="486.46" y1="169.06" x2="327.49" y2="169.06" fill="none" stroke="#c0c1c3" stroke-linecap="round" stroke-miterlimit="10" stroke-width=".57"/>
    <path d="M486.46,199.32s-3.37-.27-3.37-.54c0-.27-2.02-.68-2.02-.68l-1.68-1.36-.34-1.77-2.36-.82-3.03-2.31-3.71-.82s-1.35-.95-2.02-1.5c-.67-.54-3.37-2.04-3.37-2.04l-4.38-.14s-1.68,1.22-3.37,.95c-1.68-.27-4.38-.41-4.72-1.09s.67-.27-1.68-.82c-2.36-.54-4.38-1.22-4.38-1.22,0,0-1.01,.54-4.38-.82-3.37-1.36-6.07-.68-9.1-.68-3.03,0-1.35,.95-4.04,.82s-2.64-.14-5.03-.14c-2.38,0-2.38,1.63-4.41,1.5s-2.7-1.22-2.7-1.22l-2.36-1.22-1.68-1.9c-1.68-1.63-.34-.82-1.68-1.63-1.35-.82-.67,.82-1.35-.82s-1.68-2.04-2.02-2.86-1.68-1.36-2.02-1.9c-.34-.54-2.7-1.5-2.7-1.5l-2.36-1.77s-3.03-1.63-4.04-1.63c-1.01,0-8.42-1.36-8.42-1.36,0,0-4.04,.27-6.4,0s-6.4-1.09-7.41-1.09c-1.01,0-.67,.27-2.36,.14-1.68-.14,0,0-3.37,0-3.37,0-4.72-.14-6.4-.14s1.01,0-1.68,0h-2.7s-4.04,.68-4.04,.68c0,0,0,1.63-4.38,1.5s-3.37,.41-7.08,.27l-3.71-.14s-2.36-1.5-5.73-1.5-4.37,1.28-4.37,1.28" fill="none" stroke="#039" stroke-dasharray="0 0 3 6" stroke-linecap="round" stroke-miterlimit="10" stroke-width="2"/>
    <line x1="486.46" y1="155.48" x2="327.49" y2="155.48" fill="none" stroke="#c0c1c3" stroke-linecap="round" stroke-miterlimit="10" stroke-width=".57"/>
  </g>
  <g id="Text">
    <text transform="translate(236.94 222.69)" fill="#58585a" font-family="Ubuntu-Regular, Ubuntu" font-size="8"><tspan x="0" y="0">2022</tspan></text>
    <text transform="translate(107.64 222.69)" fill="#58585a" font-family="Ubuntu-Regular, Ubuntu" font-size="8"><tspan x="0" y="0">2020</tspan></text>
    <text transform="translate(93.51 115.53)" fill="#58585a" font-family="Ubuntu-Regular, Ubuntu" font-size="8"><tspan x="0" y="0">60</tspan></text>
    <text transform="translate(93.51 84.03)" fill="#58585a" font-family="Ubuntu-Regular, Ubuntu" font-size="8"><tspan x="0" y="0">80</tspan></text>
    <text transform="translate(106.81 70.37)" font-family="Ubuntu-Regular, Ubuntu" font-size="8"><tspan x="0" y="0" letter-spacing="-.03em">V</tspan><tspan x="5.05" y="0">alue 1</tspan></text>
    <text transform="translate(93.51 148.71)" fill="#58585a" font-family="Ubuntu-Regular, Ubuntu" font-size="8"><tspan x="0" y="0">40</tspan></text>
    <text transform="translate(93.51 180.7)" fill="#58585a" font-family="Ubuntu-Regular, Ubuntu" font-size="8"><tspan x="0" y="0">20</tspan></text>
    <text transform="translate(98.03 211.48)" fill="#58585a" font-family="Ubuntu-Regular, Ubuntu" font-size="8"><tspan x="0" y="0">0</tspan></text>
    <text transform="translate(258.44 117.68)" fill="#58585a" font-family="Ubuntu-Regular, Ubuntu" font-size="8"><tspan x="0" y="0">150</tspan></text>
    <text transform="translate(258.44 84.02)" fill="#58585a" font-family="Ubuntu-Regular, Ubuntu" font-size="8"><tspan x="0" y="0">200</tspan></text>
    <text transform="translate(226.52 70.37)" font-family="Ubuntu-Regular, Ubuntu" font-size="8"><tspan x="0" y="0" letter-spacing="-.03em">V</tspan><tspan x="5.05" y="0">alue 2</tspan></text>
    <text transform="translate(258.44 148.71)" fill="#58585a" font-family="Ubuntu-Regular, Ubuntu" font-size="8"><tspan x="0" y="0">100</tspan></text>
    <text transform="translate(258.44 181.56)" fill="#58585a" font-family="Ubuntu-Regular, Ubuntu" font-size="8"><tspan x="0" y="0">50</tspan></text>
    <text transform="translate(258.44 211.48)" fill="#58585a" font-family="Ubuntu-Regular, Ubuntu" font-size="8"><tspan x="0" y="0">0</tspan></text>
    <path d="M106.71,209.97s4.57-.6,4.57-2.38,3.43-2.98,3.43-2.98c3.43-4.76,6.29-5.36,5.72-7.74-.57-2.38,1.14-8.93,1.14-10.72s3.43-5.36,3.43-7.14,1.71-5.95,2.29-7.74c.57-1.79,2.86-2.38,3.43-.6,.57,1.79,1.14,4.76,2.29,6.55,1.14,1.79,3.43,7.14,3.43,7.14,3.43-1.79,5.14-7.14,5.14-9.53s0-5.36,.57-6.55c.57-1.19,2.86-5.36,3.43-6.55,.57-1.19,2.29,.6,4-1.19,1.71-1.79,4-4.76,4-5.95s4.57-.6,4.57-3.57,3.43-6.55,4-6.55,3.43,5.95,3.43,5.95c0,0,1.71,6.55,2.29,7.14s2.29,6.55,2.29,6.55c2.86-3.57,4.57-6.55,4.57-6.55l1.14-5.36s4.57-5.95,4-7.74c-.57-1.79,1.71-4.76,1.71-5.95s2.29-3.57,2.29-5.36,1.14-2.98,1.71-5.36,3.43-5.36,3.43-5.36l3.43-5.36,1.71-4.76,5.14-5.36s2.86-3.57,2.29-5.36,1.14-3.57,1.71-5.36c.57-1.79,2.86-3.57,4.57-1.79,1.71,1.79,4.57,.6,4.57,.6,0,0,6.86,.6,7.43,3.57,.57,2.98,2.29,7.14,2.29,7.14,0,0,1.71,4.17,1.71,5.36s.57,4.76,.57,4.76l.57,8.93s0,4.17,.57,6.55c.57,2.38,0,5.36,1.14,8.33,1.14,2.98,4.57,2.98,5.14,1.19s1.71-4.76,1.71-4.76c0,0,3.43,.6,4-.6,.57-1.19,1.14-5.36,1.14-5.36l4-2.98,4-2.38,4.57,2.38" fill="none" stroke="#039" stroke-miterlimit="10" stroke-width="2"/>
    <text transform="translate(326.09 147.94)" fill="#58585a" font-family="Ubuntu-Regular, Ubuntu" font-size="8"><tspan x="0" y="0">2020</tspan></text>
    <text transform="translate(468.35 147.94)" fill="#58585a" font-family="Ubuntu-Regular, Ubuntu" font-size="8"><tspan x="0" y="0">2022</tspan></text>
    <text transform="translate(313.31 98.29)" fill="#58585a" font-family="Ubuntu-Regular, Ubuntu" font-size="8"><tspan x="0" y="0">60</tspan></text>
    <text transform="translate(313.31 84.17)" fill="#58585a" font-family="Ubuntu-Regular, Ubuntu" font-size="8"><tspan x="0" y="0">80</tspan></text>
    <text transform="translate(339.64 69.16)" font-family="Ubuntu-Regular, Ubuntu" font-size="10"><tspan x="0" y="0" letter-spacing="-.03em">V</tspan><tspan x="6.31" y="0" letter-spacing="0em">alue 1</tspan></text>
    <text transform="translate(313.31 111.86)" fill="#58585a" font-family="Ubuntu-Regular, Ubuntu" font-size="8"><tspan x="0" y="0">40</tspan></text>
    <text transform="translate(313.31 124.89)" fill="#58585a" font-family="Ubuntu-Regular, Ubuntu" font-size="8"><tspan x="0" y="0">20</tspan></text>
    <text transform="translate(317.82 137.92)" fill="#58585a" font-family="Ubuntu-Regular, Ubuntu" font-size="8"><tspan x="0" y="0">0</tspan></text>
    <path d="M327.53,135.68s4.94-.25,4.94-1,3.7-1.24,3.7-1.24c3.7-1.99,6.79-2.24,6.17-3.24-.62-1,1.23-3.73,1.23-4.48s3.7-2.24,3.7-2.99,1.85-2.49,2.47-3.24,3.08-1,3.7-.25,1.23,1.99,2.47,2.74c1.23,.75,3.7,2.99,3.7,2.99,3.7-.75,5.55-2.99,5.55-3.98s0-2.24,.62-2.74,3.08-2.24,3.7-2.74c.62-.5,2.47,.25,4.32-.5,1.85-.75,4.32-1.99,4.32-2.49s4.94-.25,4.94-1.49,3.7-2.74,4.32-2.74,3.7,2.49,3.7,2.49c0,0,1.85,2.74,2.47,2.99s2.47,2.74,2.47,2.74c3.08-1.49,4.94-2.74,4.94-2.74l1.23-2.24s4.94-2.49,4.32-3.24,1.85-1.99,1.85-2.49,2.47-1.49,2.47-2.24,1.23-1.24,1.85-2.24,3.7-2.24,3.7-2.24l3.7-2.24,1.85-1.99,5.55-2.24s3.08-1.49,2.47-2.24,1.23-1.49,1.85-2.24,3.08-1.49,4.94-.75c1.85,.75,4.94,.25,4.94,.25,0,0,7.4,.25,8.02,1.49,.62,1.24,2.47,2.99,2.47,2.99,0,0,1.85,1.74,1.85,2.24s.62,1.99,.62,1.99l.62,3.73s0,1.74,.62,2.74c.62,1,0,2.24,1.23,3.49s4.94,1.24,5.55,.5c.62-.75,1.85-1.99,1.85-1.99,0,0,3.7,.25,4.32-.25s1.23-2.24,1.23-2.24l4.32-1.24,4.32-1,4.94,1" fill="none" stroke="#039" stroke-miterlimit="10" stroke-width="2"/>
    <text transform="translate(308.8 172.44)" fill="#58585a" font-family="Ubuntu-Regular, Ubuntu" font-size="8"><tspan x="0" y="0">150</tspan></text>
    <text transform="translate(308.8 158.32)" fill="#58585a" font-family="Ubuntu-Regular, Ubuntu" font-size="8"><tspan x="0" y="0">200</tspan></text>
    <text transform="translate(397.13 70.12)" font-family="Ubuntu-Regular, Ubuntu" font-size="10"><tspan x="0" y="0" letter-spacing="-.03em">V</tspan><tspan x="6.31" y="0" letter-spacing="0em">alue 2</tspan></text>
    <text transform="translate(308.8 186.01)" fill="#58585a" font-family="Ubuntu-Regular, Ubuntu" font-size="8"><tspan x="0" y="0">100</tspan></text>
    <text transform="translate(313.31 199.04)" fill="#58585a" font-family="Ubuntu-Regular, Ubuntu" font-size="8"><tspan x="0" y="0">50</tspan></text>
    <text transform="translate(317.82 212.07)" fill="#58585a" font-family="Ubuntu-Regular, Ubuntu" font-size="8"><tspan x="0" y="0">0</tspan></text>
    <rect x="325.88" y="22.83" width="29.87" height=".94" fill="#039"/>
    <rect x="96.82" y="22.83" width="20.64" height=".94" fill="#039"/>
    <text transform="translate(326.06 20.43)" font-family="Ubuntu-Bold, Ubuntu" font-size="10"><tspan x="0" y="0">GOOD</tspan></text>
    <text transform="translate(95.99 20.43)" font-family="Ubuntu-Bold, Ubuntu" font-size="10"><tspan x="0" y="0" letter-spacing="0em">B</tspan><tspan x="6.62" y="0">AD</tspan></text>
    <line x1="327.14" y1="69.32" x2="334.11" y2="62.36" fill="none" stroke="#039" stroke-linecap="round" stroke-miterlimit="10" stroke-width="2"/>
    <line x1="387.37" y1="69.32" x2="394.34" y2="62.36" fill="none" stroke="#039" stroke-dasharray="0 0 1.42 2.83" stroke-linecap="round" stroke-miterlimit="10" stroke-width="2"/>
  </g>
</svg>