<?xml version="1.0" encoding="UTF-8"?>
<svg xmlns="http://www.w3.org/2000/svg" viewBox="0 0 600 300">
  <g id="Graphic">
    <rect y="0" width="600" height="300" fill="#e8e2e4"/>
  </g>
  <g id="Text">
    <g>
      <line x1="278.6" y1="254.21" x2="86.66" y2="254.21" fill="none" stroke="#000" stroke-miterlimit="10"/>
      <line x1="278.6" y1="213.78" x2="86.66" y2="213.78" fill="none" stroke="#000" stroke-miterlimit="10"/>
      <line x1="278.6" y1="173.35" x2="86.66" y2="173.35" fill="none" stroke="#000" stroke-miterlimit="10"/>
      <line x1="278.6" y1="132.91" x2="86.66" y2="132.91" fill="none" stroke="#000" stroke-miterlimit="10"/>
      <path d="M278.6,223.46s-4.07-.81-4.07-1.63c0-.81-2.44-2.03-2.44-2.03l-2.03-4.07-.41-5.29-2.85-2.44-3.66-6.92-4.48-2.44s-1.63-2.85-2.44-4.48-4.07-6.1-4.07-6.1l-5.29-.41s-2.03,3.66-4.07,2.85-5.29-1.22-5.7-3.25c-.41-2.03,.81-.81-2.03-2.44-2.85-1.63-5.29-3.66-5.29-3.66,0,0-1.22,1.63-5.29-2.44s-7.32-2.03-10.98-2.03c-3.66,0-1.63,2.85-4.88,2.44-3.25-.41-3.19-.41-6.07-.41-2.88,0-2.88,4.88-5.32,4.48s-3.25-3.66-3.25-3.66l-2.85-3.66-2.03-5.7c-2.03-4.88-.41-2.44-2.03-4.88-1.63-2.44-.81,2.44-1.63-2.44-.81-4.88-2.03-6.1-2.44-8.54s-2.03-4.07-2.44-5.7-3.25-4.48-3.25-4.48l-2.85-5.29s-3.66-4.88-4.88-4.88c-1.22,0-10.17-4.07-10.17-4.07,0,0-4.88,.81-7.73,0s-7.73-3.25-8.95-3.25c-1.22,0-.81,.81-2.85,.41s0,0-4.07,0-5.7-.41-7.73-.41c-2.03,0,1.22,0-2.03,0h-3.25s-4.88,2.03-4.88,2.03c0,0,0,4.88-5.29,4.48-5.29-.41-4.07,1.22-8.54,.81l-4.48-.41s-2.85-4.48-6.92-4.48c-4.07,0-5.28,3.83-5.28,3.83" fill="none" stroke="#f7a7b6" stroke-dasharray="0 0 8.5 11.34" stroke-linecap="round" stroke-miterlimit="10" stroke-width="2.83"/>
      <line x1="278.6" y1="92.27" x2="86.66" y2="92.27" fill="none" stroke="#000" stroke-miterlimit="10"/>
      <line x1="517.92" y1="146.05" x2="432.43" y2="146.05" fill="none" stroke="#000" stroke-miterlimit="10"/>
      <line x1="517.92" y1="128.04" x2="432.43" y2="128.04" fill="none" stroke="#000" stroke-miterlimit="10"/>
      <line x1="517.92" y1="110.04" x2="432.43" y2="110.04" fill="none" stroke="#000" stroke-miterlimit="10"/>
      <line x1="517.92" y1="92.03" x2="432.43" y2="92.03" fill="none" stroke="#000" stroke-miterlimit="10"/>
      <line x1="517.92" y1="73.93" x2="432.43" y2="73.93" fill="none" stroke="#000" stroke-miterlimit="10"/>
      <line x1="517.92" y1="270.11" x2="432.43" y2="270.11" fill="none" stroke="#000" stroke-miterlimit="10"/>
      <line x1="517.92" y1="252.1" x2="432.43" y2="252.1" fill="none" stroke="#000" stroke-miterlimit="10"/>
      <line x1="517.92" y1="234.09" x2="432.43" y2="234.09" fill="none" stroke="#000" stroke-miterlimit="10"/>
      <line x1="517.92" y1="216.08" x2="432.43" y2="216.08" fill="none" stroke="#000" stroke-miterlimit="10"/>
      <path d="M517.92,256.41s-1.81-.36-1.81-.72c0-.36-1.09-.91-1.09-.91l-.91-1.81-.18-2.36-1.27-1.09-1.63-3.08-1.99-1.09s-.72-1.27-1.09-1.99-1.81-2.72-1.81-2.72l-2.36-.18s-.91,1.63-1.81,1.27c-.91-.36-2.36-.54-2.54-1.45s.36-.36-.91-1.09-2.36-1.63-2.36-1.63c0,0-.54,.72-2.36-1.09s-3.26-.91-4.89-.91c-1.63,0-.72,1.27-2.17,1.09s-1.42-.18-2.7-.18-1.28,2.17-2.37,1.99-1.45-1.63-1.45-1.63l-1.27-1.63-.91-2.54c-.91-2.17-.18-1.09-.91-2.17s-.36,1.09-.72-1.09c-.36-2.17-.91-2.72-1.09-3.81s-.91-1.81-1.09-2.54-1.45-1.99-1.45-1.99l-1.27-2.36s-1.63-2.17-2.17-2.17-4.53-1.81-4.53-1.81c0,0-2.17,.36-3.44,0s-3.44-1.45-3.99-1.45-.36,.36-1.27,.18,0,0-1.81,0-2.54-.18-3.44-.18,.54,0-.91,0h-1.45s-2.17,.91-2.17,.91c0,0,0,2.17-2.36,1.99s-1.81,.54-3.81,.36l-1.99-.18s-1.27-1.99-3.08-1.99c-1.81,0-2.35,1.71-2.35,1.71" fill="none" stroke="#f7a7b6" stroke-miterlimit="10" stroke-width="2.83"/>
      <line x1="517.92" y1="197.98" x2="432.43" y2="197.98" fill="none" stroke="#000" stroke-miterlimit="10"/>
      <g>
        <path d="M86.19,269.51c.69-.5,1.63-1.27,2.5-2.12,.84-.84,1.16-1.47,1.16-2.29,0-.91-.51-1.44-1.39-1.44s-1.44,.53-1.44,1.36c0,.18,.03,.39,.08,.64l-.74-.07c-.05-.19-.07-.39-.07-.58,0-1.22,.83-1.99,2.21-1.99s2.12,.75,2.12,2.07c0,.95-.46,1.78-1.46,2.73-.58,.57-1.25,1.13-1.98,1.63h3.54v.66h-4.53v-.61Z"/>
        <path d="M91.63,266.64c0-2.22,.92-3.61,2.63-3.61s2.62,1.4,2.62,3.62-.91,3.61-2.62,3.61-2.63-1.4-2.63-3.62Zm4.53,.01c0-1.85-.64-3-1.9-3s-1.9,1.15-1.9,2.99,.64,3,1.9,3,1.9-1.15,1.9-2.99Z"/>
        <path d="M97.8,269.51c.69-.5,1.63-1.27,2.5-2.12,.84-.84,1.16-1.47,1.16-2.29,0-.91-.51-1.44-1.39-1.44s-1.44,.53-1.44,1.36c0,.18,.03,.39,.08,.64l-.74-.07c-.05-.19-.07-.39-.07-.58,0-1.22,.83-1.99,2.21-1.99s2.12,.75,2.12,2.07c0,.95-.46,1.78-1.46,2.73-.58,.57-1.25,1.13-1.98,1.63h3.54v.66h-4.53v-.61Z"/>
        <path d="M103.24,266.64c0-2.22,.92-3.61,2.63-3.61s2.62,1.4,2.62,3.62-.91,3.61-2.62,3.61-2.63-1.4-2.63-3.62Zm4.53,.01c0-1.85-.64-3-1.9-3s-1.9,1.15-1.9,2.99,.64,3,1.9,3,1.9-1.15,1.9-2.99Z"/>
      </g>
      <g>
        <path d="M256.01,269.51c.69-.5,1.63-1.27,2.5-2.12,.84-.84,1.16-1.47,1.16-2.29,0-.91-.51-1.44-1.39-1.44s-1.44,.53-1.44,1.36c0,.18,.03,.39,.08,.64l-.74-.07c-.05-.19-.07-.39-.07-.58,0-1.22,.83-1.99,2.21-1.99s2.12,.75,2.12,2.07c0,.95-.46,1.78-1.46,2.73-.58,.57-1.25,1.13-1.98,1.63h3.54v.66h-4.53v-.61Z"/>
        <path d="M261.45,266.64c0-2.22,.92-3.61,2.63-3.61s2.62,1.4,2.62,3.62-.91,3.61-2.62,3.61-2.63-1.4-2.63-3.62Zm4.53,.01c0-1.85-.64-3-1.9-3s-1.9,1.15-1.9,2.99,.64,3,1.9,3,1.9-1.15,1.9-2.99Z"/>
        <path d="M267.62,269.51c.69-.5,1.63-1.27,2.5-2.12,.84-.84,1.16-1.47,1.16-2.29,0-.91-.51-1.44-1.39-1.44s-1.44,.53-1.44,1.36c0,.18,.03,.39,.08,.64l-.74-.07c-.05-.19-.07-.39-.07-.58,0-1.22,.83-1.99,2.21-1.99s2.12,.75,2.12,2.07c0,.95-.46,1.78-1.46,2.73-.58,.57-1.25,1.13-1.98,1.63h3.54v.66h-4.53v-.61Z"/>
        <path d="M273.03,269.51c.69-.5,1.63-1.27,2.5-2.12,.84-.84,1.16-1.47,1.16-2.29,0-.91-.51-1.44-1.39-1.44s-1.44,.53-1.44,1.36c0,.18,.03,.39,.08,.64l-.74-.07c-.05-.19-.07-.39-.07-.58,0-1.22,.83-1.99,2.21-1.99s2.12,.75,2.12,2.07c0,.95-.46,1.78-1.46,2.73-.58,.57-1.25,1.13-1.98,1.63h3.54v.66h-4.53v-.61Z"/>
      </g>
      <g>
        <path d="M71.62,132.27c0,1.43-.92,2.4-2.27,2.4-1.65,0-2.5-1.19-2.5-3.48s.92-3.75,2.55-3.75c1.16,0,1.9,.61,2.11,1.74l-.74,.15c-.17-.85-.62-1.27-1.38-1.27-1.2,0-1.84,1.06-1.83,3.05,.3-.76,.99-1.22,1.89-1.22,1.3,0,2.16,.94,2.16,2.38Zm-.74,0c0-1.09-.6-1.77-1.56-1.77-.86,0-1.48,.59-1.71,1.6,.15,1.22,.79,1.95,1.75,1.95s1.52-.7,1.52-1.78Z"/>
        <path d="M72.56,131.06c0-2.22,.92-3.61,2.63-3.61s2.62,1.4,2.62,3.62-.91,3.61-2.62,3.61-2.63-1.4-2.63-3.62Zm4.53,.01c0-1.85-.64-3-1.9-3s-1.9,1.15-1.9,2.99,.64,3,1.9,3,1.9-1.15,1.9-2.99Z"/>
      </g>
      <g>
        <path d="M71.6,90.47c0,1.2-.94,1.97-2.42,1.97s-2.46-.74-2.46-1.93c0-.96,.52-1.59,1.52-1.87-.89-.35-1.27-.87-1.27-1.69,0-1.05,.88-1.76,2.2-1.76s2.19,.68,2.19,1.75c0,.83-.46,1.39-1.33,1.63,1.12,.37,1.58,.94,1.58,1.9Zm-.73,0c0-.72-.41-1.14-1.35-1.42l-.62-.19c-1.01,.32-1.44,.79-1.44,1.54,0,.89,.67,1.45,1.72,1.45s1.69-.51,1.69-1.38Zm-1.91-2.22l.36,.11c.97-.33,1.29-.69,1.29-1.39,0-.76-.55-1.22-1.47-1.22s-1.44,.46-1.44,1.2c0,.66,.37,1.04,1.26,1.3Z"/>
        <path d="M72.56,88.82c0-2.22,.92-3.61,2.63-3.61s2.62,1.4,2.62,3.62-.91,3.61-2.62,3.61-2.63-1.4-2.63-3.62Zm4.53,0c0-1.85-.64-3-1.9-3s-1.9,1.15-1.9,2.99,.64,3,1.9,3,1.9-1.15,1.9-2.99Z"/>
      </g>
      <g>
        <path d="M63.11,60.63h.82l1.82,5.34c.16,.45,.23,.73,.29,.99h.03c.06-.26,.13-.54,.29-.99l1.82-5.34h.82l-2.51,7.09h-.85l-2.51-7.09Z"/>
        <path d="M69.35,66.4c0-.48,.21-.87,.61-1.12,.36-.21,.85-.35,1.64-.45l1.11-.13v-.08c0-1.03-.36-1.44-1.21-1.44-.75,0-1.21,.39-1.25,1.1h-.75c.06-1.03,.84-1.68,1.99-1.68,1.34,0,1.92,.62,1.92,2.07v1.3c0,.78,.05,1.34,.16,1.75h-.73c-.05-.27-.08-.63-.09-1-.24,.7-.88,1.12-1.74,1.12-1,0-1.66-.58-1.66-1.44Zm3.36-.86v-.32l-1.42,.2c-.85,.12-1.22,.41-1.22,.96s.42,.88,1.09,.88c.93,0,1.55-.7,1.55-1.72Z"/>
        <path d="M75.9,67.72h-.69v-7.23h.69v7.23Z"/>
        <path d="M77.69,65.89v-3.16h.69v3.09c0,.98,.46,1.42,1.14,1.42,.91,0,1.46-.78,1.46-1.79v-2.72h.7v4.99h-.66v-1.03c-.23,.66-.86,1.15-1.62,1.15-1.25,0-1.71-.76-1.71-1.95Z"/>
        <path d="M87.42,65.4h-3.62c0,1.13,.63,1.82,1.6,1.82,.7,0,1.2-.39,1.41-1.07l.59,.24c-.31,.93-1.04,1.45-2.05,1.45-1.42,0-2.25-.91-2.25-2.58s.84-2.64,2.21-2.64,2.11,.8,2.11,2.32v.48Zm-.71-.66c0-1.03-.52-1.58-1.41-1.58s-1.49,.64-1.51,1.67h2.91v-.09Z"/>
        <path d="M92.52,62.07c-.23,.36-.79,.55-1.22,.55h-.32v-.66h.19c.7,0,1.3-.43,1.46-1.18h.62v6.94h-.73v-5.65Z"/>
      </g>
      <g>
        <path d="M70.49,173.33v1.82h-.69v-1.82h-3.31v-.51l3.19-4.61h.81v4.54h1.16v.58h-1.16Zm-.67-4.38h-.02c-.12,.29-.23,.47-.44,.78l-1.58,2.27c-.22,.34-.37,.55-.56,.76h2.58v-2.88c0-.47,0-.6,.02-.92Z"/>
        <path d="M72.56,171.67c0-2.22,.92-3.61,2.63-3.61s2.62,1.4,2.62,3.62-.91,3.61-2.62,3.61-2.63-1.4-2.63-3.62Zm4.53,.01c0-1.85-.64-3-1.9-3s-1.9,1.15-1.9,2.99,.64,3,1.9,3,1.9-1.15,1.9-2.99Z"/>
      </g>
      <g>
        <path d="M67.13,213.52c.69-.5,1.63-1.27,2.5-2.12,.84-.84,1.16-1.47,1.16-2.29,0-.91-.51-1.44-1.39-1.44s-1.44,.53-1.44,1.36c0,.18,.03,.39,.08,.64l-.74-.07c-.05-.19-.07-.39-.07-.58,0-1.22,.83-1.99,2.21-1.99s2.12,.75,2.12,2.07c0,.95-.46,1.78-1.46,2.73-.58,.57-1.25,1.13-1.98,1.63h3.54v.66h-4.53v-.61Z"/>
        <path d="M72.57,210.66c0-2.22,.92-3.61,2.63-3.61s2.62,1.4,2.62,3.62-.91,3.61-2.62,3.61-2.63-1.4-2.63-3.62Zm4.53,.01c0-1.85-.64-3-1.9-3s-1.9,1.15-1.9,2.99,.64,3,1.9,3,1.9-1.15,1.9-2.99Z"/>
      </g>
      <path d="M72.56,249.65c0-2.22,.92-3.61,2.63-3.61s2.62,1.4,2.62,3.62-.91,3.61-2.62,3.61-2.63-1.4-2.63-3.62Zm4.53,.01c0-1.85-.64-3-1.9-3s-1.9,1.15-1.9,2.99,.64,3,1.9,3,1.9-1.15,1.9-2.99Z"/>
      <g>
        <path d="M289.1,128.88c-.23,.36-.79,.55-1.22,.55h-.32v-.66h.19c.7,0,1.3-.43,1.46-1.18h.62v6.94h-.73v-5.65Z"/>
        <path d="M291.6,132.85l.76-.08c.15,.76,.68,1.28,1.55,1.28,1,0,1.6-.69,1.6-1.8s-.54-1.82-1.56-1.82c-.79,0-1.34,.48-1.53,1.25l-.71-.07,.41-4.02h3.78v.64h-3.23l-.27,2.6c.34-.67,.93-1.02,1.73-1.02,1.32,0,2.12,.92,2.12,2.41s-.93,2.45-2.38,2.45c-1.22,0-2.09-.71-2.27-1.83Z"/>
        <path d="M297.24,131.06c0-2.22,.92-3.61,2.63-3.61s2.62,1.4,2.62,3.62-.91,3.61-2.62,3.61-2.63-1.4-2.63-3.62Zm4.53,.01c0-1.85-.64-3-1.9-3s-1.9,1.15-1.9,2.99,.64,3,1.9,3,1.9-1.15,1.9-2.99Z"/>
      </g>
      <g>
        <path d="M285.48,91.68c.69-.5,1.63-1.27,2.5-2.12,.84-.84,1.16-1.47,1.16-2.29,0-.91-.51-1.44-1.39-1.44s-1.44,.53-1.44,1.36c0,.18,.03,.39,.08,.64l-.74-.07c-.05-.19-.07-.39-.07-.58,0-1.22,.83-1.99,2.21-1.99s2.12,.75,2.12,2.07c0,.95-.46,1.78-1.46,2.73-.58,.57-1.25,1.13-1.98,1.63h3.54v.66h-4.53v-.61Z"/>
        <path d="M290.91,88.82c0-2.22,.92-3.61,2.63-3.61s2.62,1.4,2.62,3.62-.91,3.61-2.62,3.61-2.63-1.4-2.63-3.62Zm4.53,0c0-1.85-.64-3-1.9-3s-1.9,1.15-1.9,2.99,.64,3,1.9,3,1.9-1.15,1.9-2.99Z"/>
        <path d="M297.24,88.82c0-2.22,.92-3.61,2.63-3.61s2.62,1.4,2.62,3.62-.91,3.61-2.62,3.61-2.63-1.4-2.63-3.62Zm4.53,0c0-1.85-.64-3-1.9-3s-1.9,1.15-1.9,2.99,.64,3,1.9,3,1.9-1.15,1.9-2.99Z"/>
      </g>
      <g>
        <path d="M269.63,60.63h.82l1.82,5.34c.16,.45,.23,.73,.29,.99h.03c.06-.26,.13-.54,.29-.99l1.82-5.34h.82l-2.51,7.09h-.85l-2.51-7.09Z"/>
        <path d="M275.86,66.4c0-.48,.21-.87,.61-1.12,.36-.21,.85-.35,1.64-.45l1.11-.13v-.08c0-1.03-.36-1.44-1.21-1.44-.75,0-1.21,.39-1.25,1.1h-.75c.06-1.03,.84-1.68,1.99-1.68,1.34,0,1.92,.62,1.92,2.07v1.3c0,.78,.05,1.34,.16,1.75h-.73c-.05-.27-.08-.63-.09-1-.24,.7-.88,1.12-1.74,1.12-1,0-1.66-.58-1.66-1.44Zm3.36-.86v-.32l-1.42,.2c-.85,.12-1.22,.41-1.22,.96s.42,.88,1.09,.88c.93,0,1.55-.7,1.55-1.72Z"/>
        <path d="M282.41,67.72h-.69v-7.23h.69v7.23Z"/>
        <path d="M284.21,65.89v-3.16h.69v3.09c0,.98,.46,1.42,1.14,1.42,.91,0,1.46-.78,1.46-1.79v-2.72h.7v4.99h-.66v-1.03c-.23,.66-.86,1.15-1.62,1.15-1.25,0-1.71-.76-1.71-1.95Z"/>
        <path d="M293.93,65.4h-3.62c0,1.13,.63,1.82,1.6,1.82,.7,0,1.2-.39,1.41-1.07l.59,.24c-.31,.93-1.04,1.45-2.05,1.45-1.42,0-2.25-.91-2.25-2.58s.84-2.64,2.21-2.64,2.11,.8,2.11,2.32v.48Zm-.71-.66c0-1.03-.52-1.58-1.41-1.58s-1.49,.64-1.51,1.67h2.91v-.09Z"/>
        <path d="M297.48,67.11c.69-.5,1.63-1.27,2.5-2.12,.84-.84,1.16-1.47,1.16-2.29,0-.91-.51-1.44-1.39-1.44s-1.44,.53-1.44,1.36c0,.18,.03,.39,.08,.64l-.74-.07c-.05-.19-.07-.39-.07-.58,0-1.22,.83-1.99,2.21-1.99s2.12,.75,2.12,2.07c0,.95-.46,1.78-1.46,2.73-.58,.57-1.25,1.13-1.98,1.63h3.54v.66h-4.53v-.61Z"/>
      </g>
      <g>
        <path d="M288.4,169.5c-.23,.36-.79,.55-1.22,.55h-.32v-.66h.19c.7,0,1.3-.43,1.46-1.18h.62v6.94h-.73v-5.65Z"/>
        <path d="M290.91,171.67c0-2.22,.92-3.61,2.63-3.61s2.62,1.4,2.62,3.62-.91,3.61-2.62,3.61-2.63-1.4-2.63-3.62Zm4.53,.01c0-1.85-.64-3-1.9-3s-1.9,1.15-1.9,2.99,.64,3,1.9,3,1.9-1.15,1.9-2.99Z"/>
        <path d="M297.24,171.67c0-2.22,.92-3.61,2.63-3.61s2.62,1.4,2.62,3.62-.91,3.61-2.62,3.61-2.63-1.4-2.63-3.62Zm4.53,.01c0-1.85-.64-3-1.9-3s-1.9,1.15-1.9,2.99,.64,3,1.9,3,1.9-1.15,1.9-2.99Z"/>
      </g>
      <g>
        <path d="M291.6,212.46l.76-.08c.15,.76,.68,1.28,1.55,1.28,1,0,1.6-.69,1.6-1.8s-.54-1.82-1.56-1.82c-.79,0-1.34,.48-1.53,1.25l-.71-.07,.41-4.02h3.78v.64h-3.23l-.27,2.6c.34-.67,.93-1.02,1.73-1.02,1.32,0,2.12,.92,2.12,2.41s-.93,2.45-2.38,2.45c-1.22,0-2.09-.71-2.27-1.83Z"/>
        <path d="M297.24,210.66c0-2.22,.92-3.61,2.63-3.61s2.62,1.4,2.62,3.62-.91,3.61-2.62,3.61-2.63-1.4-2.63-3.62Zm4.53,.01c0-1.85-.64-3-1.9-3s-1.9,1.15-1.9,2.99,.64,3,1.9,3,1.9-1.15,1.9-2.99Z"/>
      </g>
      <path d="M297.24,249.65c0-2.22,.92-3.61,2.63-3.61s2.62,1.4,2.62,3.62-.91,3.61-2.62,3.61-2.63-1.4-2.63-3.62Zm4.53,.01c0-1.85-.64-3-1.9-3s-1.9,1.15-1.9,2.99,.64,3,1.9,3,1.9-1.15,1.9-2.99Z"/>
      <path d="M86.72,253.2s5.96-.74,5.96-2.98,4.47-3.72,4.47-3.72c4.47-5.96,8.19-6.7,7.45-9.68-.74-2.98,1.49-11.17,1.49-13.41s4.47-6.7,4.47-8.94,2.23-7.45,2.98-9.68c.74-2.23,3.72-2.98,4.47-.74,.74,2.23,1.49,5.96,2.98,8.19,1.49,2.23,4.47,8.94,4.47,8.94,4.47-2.23,6.7-8.94,6.7-11.92s0-6.7,.74-8.19c.74-1.49,3.72-6.7,4.47-8.19,.74-1.49,2.98,.74,5.21-1.49,2.23-2.23,5.21-5.96,5.21-7.45s5.96-.74,5.96-4.47,4.47-8.19,5.21-8.19,4.47,7.45,4.47,7.45c0,0,2.23,8.19,2.98,8.94s2.98,8.19,2.98,8.19c3.72-4.47,5.96-8.19,5.96-8.19l1.49-6.7s5.96-7.45,5.21-9.68c-.74-2.23,2.23-5.96,2.23-7.45s2.98-4.47,2.98-6.7,1.49-3.72,2.23-6.7c.74-2.98,4.47-6.7,4.47-6.7l4.47-6.7,2.23-5.96,6.7-6.7s3.72-4.47,2.98-6.7,1.49-4.47,2.23-6.7c.74-2.23,3.72-4.47,5.96-2.23,2.23,2.23,5.96,.74,5.96,.74,0,0,8.94,.74,9.68,4.47,.74,3.72,2.98,8.94,2.98,8.94,0,0,2.23,5.21,2.23,6.7s.74,5.96,.74,5.96l.74,11.17s0,5.21,.74,8.19c.74,2.98,0,6.7,1.49,10.43,1.49,3.72,5.96,3.72,6.7,1.49,.74-2.23,2.23-5.96,2.23-5.96,0,0,4.47,.74,5.21-.74s1.49-6.7,1.49-6.7l5.21-3.72,5.21-2.98,5.96,2.98" fill="none" stroke="#f7a7b6" stroke-miterlimit="10" stroke-width="2.83"/>
      <g>
        <path d="M432.44,159.44c.69-.5,1.63-1.27,2.5-2.12,.84-.84,1.16-1.47,1.16-2.29,0-.91-.51-1.44-1.39-1.44s-1.44,.53-1.44,1.36c0,.18,.03,.39,.08,.64l-.74-.07c-.05-.19-.07-.39-.07-.58,0-1.22,.83-1.99,2.21-1.99s2.12,.75,2.12,2.07c0,.95-.46,1.78-1.46,2.73-.58,.57-1.25,1.13-1.98,1.63h3.54v.66h-4.53v-.61Z"/>
        <path d="M437.87,156.57c0-2.22,.92-3.61,2.63-3.61s2.62,1.4,2.62,3.62-.91,3.61-2.62,3.61-2.63-1.4-2.63-3.62Zm4.53,.01c0-1.85-.64-3-1.9-3s-1.9,1.15-1.9,2.99,.64,3,1.9,3,1.9-1.15,1.9-2.99Z"/>
        <path d="M444.04,159.44c.69-.5,1.63-1.27,2.5-2.12,.84-.84,1.16-1.47,1.16-2.29,0-.91-.51-1.44-1.39-1.44s-1.44,.53-1.44,1.36c0,.18,.03,.39,.08,.64l-.74-.07c-.05-.19-.07-.39-.07-.58,0-1.22,.83-1.99,2.21-1.99s2.12,.75,2.12,2.07c0,.95-.46,1.78-1.46,2.73-.58,.57-1.25,1.13-1.98,1.63h3.54v.66h-4.53v-.61Z"/>
        <path d="M449.48,156.57c0-2.22,.92-3.61,2.63-3.61s2.62,1.4,2.62,3.62-.91,3.61-2.62,3.61-2.63-1.4-2.63-3.62Zm4.53,.01c0-1.85-.64-3-1.9-3s-1.9,1.15-1.9,2.99,.64,3,1.9,3,1.9-1.15,1.9-2.99Z"/>
      </g>
      <g>
        <path d="M496.83,159.44c.69-.5,1.63-1.27,2.5-2.12,.84-.84,1.16-1.47,1.16-2.29,0-.91-.51-1.44-1.39-1.44s-1.44,.53-1.44,1.36c0,.18,.03,.39,.08,.64l-.74-.07c-.05-.19-.07-.39-.07-.58,0-1.22,.83-1.99,2.21-1.99s2.12,.75,2.12,2.07c0,.95-.46,1.78-1.46,2.73-.58,.57-1.25,1.13-1.98,1.63h3.54v.66h-4.53v-.61Z"/>
        <path d="M502.27,156.57c0-2.22,.92-3.61,2.63-3.61s2.62,1.4,2.62,3.62-.91,3.61-2.62,3.61-2.63-1.4-2.63-3.62Zm4.53,.01c0-1.85-.64-3-1.9-3s-1.9,1.15-1.9,2.99,.64,3,1.9,3,1.9-1.15,1.9-2.99Z"/>
        <path d="M508.44,159.44c.69-.5,1.63-1.27,2.5-2.12,.84-.84,1.16-1.47,1.16-2.29,0-.91-.51-1.44-1.39-1.44s-1.44,.53-1.44,1.36c0,.18,.03,.39,.08,.64l-.74-.07c-.05-.19-.07-.39-.07-.58,0-1.22,.83-1.99,2.21-1.99s2.12,.75,2.12,2.07c0,.95-.46,1.78-1.46,2.73-.58,.57-1.25,1.13-1.98,1.63h3.54v.66h-4.53v-.61Z"/>
        <path d="M513.85,159.44c.69-.5,1.63-1.27,2.5-2.12,.84-.84,1.16-1.47,1.16-2.29,0-.91-.51-1.44-1.39-1.44s-1.44,.53-1.44,1.36c0,.18,.03,.39,.08,.64l-.74-.07c-.05-.19-.07-.39-.07-.58,0-1.22,.83-1.99,2.21-1.99s2.12,.75,2.12,2.07c0,.95-.46,1.78-1.46,2.73-.58,.57-1.25,1.13-1.98,1.63h3.54v.66h-4.53v-.61Z"/>
      </g>
      <g>
        <path d="M420.31,90.49c0,1.43-.92,2.41-2.27,2.41-1.65,0-2.5-1.19-2.5-3.48s.92-3.75,2.55-3.75c1.16,0,1.9,.61,2.11,1.74l-.74,.15c-.17-.85-.62-1.27-1.38-1.27-1.2,0-1.84,1.06-1.83,3.05,.3-.76,.99-1.22,1.89-1.22,1.3,0,2.16,.94,2.16,2.38Zm-.74,.01c0-1.09-.6-1.77-1.56-1.77-.86,0-1.48,.59-1.71,1.6,.15,1.22,.79,1.95,1.75,1.95s1.52-.7,1.52-1.78Z"/>
        <path d="M421.26,89.27c0-2.22,.92-3.61,2.63-3.61s2.62,1.4,2.62,3.62-.91,3.61-2.62,3.61-2.63-1.4-2.63-3.62Zm4.53,0c0-1.85-.64-3-1.9-3s-1.9,1.15-1.9,2.99,.64,3,1.9,3,1.9-1.15,1.9-2.99Z"/>
      </g>
      <g>
        <path d="M420.29,72.12c0,1.2-.94,1.97-2.42,1.97s-2.46-.74-2.46-1.93c0-.96,.52-1.59,1.52-1.87-.89-.35-1.27-.87-1.27-1.69,0-1.05,.88-1.76,2.2-1.76s2.19,.68,2.19,1.75c0,.83-.46,1.39-1.33,1.63,1.12,.37,1.58,.94,1.58,1.9Zm-.73,0c0-.72-.41-1.14-1.35-1.42l-.62-.19c-1.01,.32-1.44,.79-1.44,1.54,0,.89,.67,1.45,1.72,1.45s1.69-.51,1.69-1.38Zm-1.91-2.22l.36,.11c.97-.33,1.29-.69,1.29-1.39,0-.76-.55-1.22-1.47-1.22s-1.44,.46-1.44,1.2c0,.66,.37,1.04,1.26,1.3Z"/>
        <path d="M421.26,70.46c0-2.22,.92-3.61,2.63-3.61s2.62,1.4,2.62,3.62-.91,3.61-2.62,3.61-2.63-1.4-2.63-3.62Zm4.53,0c0-1.85-.64-3-1.9-3s-1.9,1.15-1.9,2.99,.64,3,1.9,3,1.9-1.15,1.9-2.99Z"/>
      </g>
      <g>
        <path d="M430.89,53.86h.82l1.82,5.34c.16,.45,.23,.73,.29,.99h.03c.06-.26,.13-.54,.29-.99l1.82-5.34h.82l-2.51,7.09h-.85l-2.51-7.09Z"/>
        <path d="M437.13,59.63c0-.48,.21-.87,.61-1.12,.36-.21,.85-.35,1.64-.45l1.11-.13v-.08c0-1.03-.36-1.44-1.21-1.44-.75,0-1.21,.39-1.25,1.1h-.75c.06-1.03,.84-1.68,1.99-1.68,1.34,0,1.92,.62,1.92,2.07v1.3c0,.78,.05,1.34,.16,1.75h-.73c-.05-.27-.08-.63-.09-1-.24,.7-.88,1.12-1.74,1.12-1,0-1.66-.58-1.66-1.44Zm3.36-.86v-.32l-1.42,.2c-.85,.12-1.22,.41-1.22,.96s.42,.88,1.09,.88c.93,0,1.55-.7,1.55-1.72Z"/>
        <path d="M443.68,60.95h-.69v-7.23h.69v7.23Z"/>
        <path d="M445.48,59.12v-3.16h.69v3.09c0,.98,.46,1.42,1.14,1.42,.91,0,1.46-.78,1.46-1.79v-2.72h.7v4.99h-.66v-1.03c-.23,.66-.86,1.15-1.62,1.15-1.25,0-1.71-.76-1.71-1.95Z"/>
        <path d="M455.2,58.63h-3.62c0,1.13,.63,1.82,1.6,1.82,.7,0,1.2-.39,1.41-1.07l.59,.24c-.31,.93-1.04,1.45-2.05,1.45-1.42,0-2.25-.91-2.25-2.58s.84-2.64,2.22-2.64,2.11,.8,2.11,2.32v.48Zm-.71-.66c0-1.03-.52-1.58-1.41-1.58s-1.49,.64-1.51,1.67h2.91v-.09Z"/>
        <path d="M460.31,55.3c-.23,.36-.79,.55-1.22,.55h-.32v-.66h.19c.7,0,1.3-.43,1.46-1.18h.62v6.94h-.73v-5.65Z"/>
      </g>
      <g>
        <path d="M419.18,109.02v1.82h-.69v-1.82h-3.31v-.51l3.19-4.61h.81v4.54h1.16v.58h-1.16Zm-.67-4.38h-.02c-.12,.29-.23,.47-.44,.78l-1.58,2.27c-.22,.34-.37,.55-.56,.76h2.58v-2.88c0-.47,0-.6,.02-.92Z"/>
        <path d="M421.26,107.36c0-2.22,.92-3.61,2.63-3.61s2.62,1.4,2.62,3.62-.91,3.61-2.62,3.61-2.63-1.4-2.63-3.62Zm4.53,.01c0-1.85-.64-3-1.9-3s-1.9,1.15-1.9,2.99,.64,3,1.9,3,1.9-1.15,1.9-2.99Z"/>
      </g>
      <g>
        <path d="M415.82,127.59c.69-.5,1.63-1.27,2.5-2.12,.84-.84,1.16-1.47,1.16-2.29,0-.91-.51-1.44-1.39-1.44s-1.44,.53-1.44,1.36c0,.18,.03,.39,.08,.64l-.74-.07c-.05-.19-.07-.39-.07-.58,0-1.22,.83-1.99,2.21-1.99s2.12,.75,2.12,2.07c0,.95-.46,1.78-1.46,2.73-.58,.57-1.25,1.13-1.98,1.63h3.54v.66h-4.53v-.61Z"/>
        <path d="M421.26,124.73c0-2.22,.92-3.61,2.63-3.61s2.62,1.4,2.62,3.62-.91,3.61-2.62,3.61-2.63-1.4-2.63-3.62Zm4.53,.01c0-1.85-.64-3-1.9-3s-1.9,1.15-1.9,2.99,.64,3,1.9,3,1.9-1.15,1.9-2.99Z"/>
      </g>
      <path d="M421.26,142.1c0-2.22,.92-3.61,2.63-3.61s2.62,1.4,2.62,3.62-.91,3.61-2.62,3.61-2.63-1.4-2.63-3.62Zm4.53,.01c0-1.85-.64-3-1.9-3s-1.9,1.15-1.9,2.99,.64,3,1.9,3,1.9-1.15,1.9-2.99Z"/>
      <path d="M432.46,145.6s2.65-.33,2.65-1.33,1.99-1.66,1.99-1.66c1.99-2.65,3.65-2.99,3.32-4.31-.33-1.33,.66-4.98,.66-5.97s1.99-2.99,1.99-3.98,1-3.32,1.33-4.31c.33-1,1.66-1.33,1.99-.33s.66,2.65,1.33,3.65,1.99,3.98,1.99,3.98c1.99-1,2.99-3.98,2.99-5.31s0-2.99,.33-3.65,1.66-2.99,1.99-3.65,1.33,.33,2.32-.66,2.32-2.65,2.32-3.32,2.65-.33,2.65-1.99,1.99-3.65,2.32-3.65,1.99,3.32,1.99,3.32c0,0,1,3.65,1.33,3.98s1.33,3.65,1.33,3.65c1.66-1.99,2.65-3.65,2.65-3.65l.66-2.99s2.65-3.32,2.32-4.31,1-2.65,1-3.32,1.33-1.99,1.33-2.99,.66-1.66,1-2.99c.33-1.33,1.99-2.99,1.99-2.99l1.99-2.99,1-2.65,2.99-2.99s1.66-1.99,1.33-2.99,.66-1.99,1-2.99,1.66-1.99,2.65-1,2.65,.33,2.65,.33c0,0,3.98,.33,4.31,1.99s1.33,3.98,1.33,3.98c0,0,1,2.32,1,2.99s.33,2.65,.33,2.65l.33,4.98s0,2.32,.33,3.65c.33,1.33,0,2.99,.66,4.64s2.65,1.66,2.99,.66c.33-1,1-2.65,1-2.65,0,0,1.99,.33,2.32-.33s.66-2.99,.66-2.99l2.32-1.66,2.32-1.33,2.65,1.33" fill="none" stroke="#f7a7b6" stroke-miterlimit="10" stroke-width="2.83"/>
      <g>
        <path d="M432.44,283.49c.69-.5,1.63-1.27,2.5-2.12,.84-.84,1.16-1.47,1.16-2.29,0-.91-.51-1.44-1.39-1.44s-1.44,.53-1.44,1.36c0,.18,.03,.39,.08,.64l-.74-.07c-.05-.19-.07-.39-.07-.58,0-1.22,.83-1.99,2.21-1.99s2.12,.75,2.12,2.07c0,.95-.46,1.78-1.46,2.73-.58,.57-1.25,1.13-1.98,1.63h3.54v.66h-4.53v-.61Z"/>
        <path d="M437.87,280.63c0-2.22,.92-3.61,2.63-3.61s2.62,1.4,2.62,3.62-.91,3.61-2.62,3.61-2.63-1.4-2.63-3.62Zm4.53,.01c0-1.85-.64-3-1.9-3s-1.9,1.15-1.9,2.99,.64,3,1.9,3,1.9-1.15,1.9-2.99Z"/>
        <path d="M444.04,283.49c.69-.5,1.63-1.27,2.5-2.12,.84-.84,1.16-1.47,1.16-2.29,0-.91-.51-1.44-1.39-1.44s-1.44,.53-1.44,1.36c0,.18,.03,.39,.08,.64l-.74-.07c-.05-.19-.07-.39-.07-.58,0-1.22,.83-1.99,2.21-1.99s2.12,.75,2.12,2.07c0,.95-.46,1.78-1.46,2.73-.58,.57-1.25,1.13-1.98,1.63h3.54v.66h-4.53v-.61Z"/>
        <path d="M449.48,280.63c0-2.22,.92-3.61,2.63-3.61s2.62,1.4,2.62,3.62-.91,3.61-2.62,3.61-2.63-1.4-2.63-3.62Zm4.53,.01c0-1.85-.64-3-1.9-3s-1.9,1.15-1.9,2.99,.64,3,1.9,3,1.9-1.15,1.9-2.99Z"/>
      </g>
      <g>
        <path d="M496.83,283.49c.69-.5,1.63-1.27,2.5-2.12,.84-.84,1.16-1.47,1.16-2.29,0-.91-.51-1.44-1.39-1.44s-1.44,.53-1.44,1.36c0,.18,.03,.39,.08,.64l-.74-.07c-.05-.19-.07-.39-.07-.58,0-1.22,.83-1.99,2.21-1.99s2.12,.75,2.12,2.07c0,.95-.46,1.78-1.46,2.73-.58,.57-1.25,1.13-1.98,1.63h3.54v.66h-4.53v-.61Z"/>
        <path d="M502.27,280.63c0-2.22,.92-3.61,2.63-3.61s2.62,1.4,2.62,3.62-.91,3.61-2.62,3.61-2.63-1.4-2.63-3.62Zm4.53,.01c0-1.85-.64-3-1.9-3s-1.9,1.15-1.9,2.99,.64,3,1.9,3,1.9-1.15,1.9-2.99Z"/>
        <path d="M508.44,283.49c.69-.5,1.63-1.27,2.5-2.12,.84-.84,1.16-1.47,1.16-2.29,0-.91-.51-1.44-1.39-1.44s-1.44,.53-1.44,1.36c0,.18,.03,.39,.08,.64l-.74-.07c-.05-.19-.07-.39-.07-.58,0-1.22,.83-1.99,2.21-1.99s2.12,.75,2.12,2.07c0,.95-.46,1.78-1.46,2.73-.58,.57-1.25,1.13-1.98,1.63h3.54v.66h-4.53v-.61Z"/>
        <path d="M513.85,283.49c.69-.5,1.63-1.27,2.5-2.12,.84-.84,1.16-1.47,1.16-2.29,0-.91-.51-1.44-1.39-1.44s-1.44,.53-1.44,1.36c0,.18,.03,.39,.08,.64l-.74-.07c-.05-.19-.07-.39-.07-.58,0-1.22,.83-1.99,2.21-1.99s2.12,.75,2.12,2.07c0,.95-.46,1.78-1.46,2.73-.58,.57-1.25,1.13-1.98,1.63h3.54v.66h-4.53v-.61Z"/>
      </g>
      <g>
        <path d="M413.12,211.15c-.23,.36-.79,.55-1.22,.55h-.32v-.66h.19c.7,0,1.3-.43,1.46-1.18h.62v6.94h-.73v-5.65Z"/>
        <path d="M415.62,215.12l.76-.08c.15,.76,.68,1.28,1.55,1.28,1,0,1.6-.69,1.6-1.8s-.54-1.82-1.56-1.82c-.79,0-1.34,.48-1.53,1.25l-.71-.07,.41-4.02h3.78v.64h-3.23l-.27,2.6c.34-.67,.93-1.02,1.73-1.02,1.32,0,2.12,.92,2.12,2.41s-.93,2.45-2.38,2.45c-1.22,0-2.09-.71-2.27-1.83Z"/>
        <path d="M421.26,213.33c0-2.22,.92-3.61,2.63-3.61s2.62,1.4,2.62,3.62-.91,3.61-2.62,3.61-2.63-1.4-2.63-3.62Zm4.53,.01c0-1.85-.64-3-1.9-3s-1.9,1.15-1.9,2.99,.64,3,1.9,3,1.9-1.15,1.9-2.99Z"/>
      </g>
      <g>
        <path d="M409.5,197.38c.69-.5,1.63-1.27,2.5-2.12,.84-.84,1.16-1.47,1.16-2.29,0-.91-.51-1.44-1.39-1.44s-1.44,.53-1.44,1.36c0,.18,.03,.39,.08,.64l-.74-.07c-.05-.19-.07-.39-.07-.58,0-1.22,.83-1.99,2.21-1.99s2.12,.75,2.12,2.07c0,.95-.46,1.78-1.46,2.73-.58,.57-1.25,1.13-1.98,1.63h3.54v.66h-4.53v-.61Z"/>
        <path d="M414.93,194.51c0-2.22,.92-3.61,2.63-3.61s2.62,1.4,2.62,3.62-.91,3.61-2.62,3.61-2.63-1.4-2.63-3.62Zm4.53,.01c0-1.85-.64-3-1.9-3s-1.9,1.15-1.9,2.99,.64,3,1.9,3,1.9-1.15,1.9-2.99Z"/>
        <path d="M421.26,194.51c0-2.22,.92-3.61,2.63-3.61s2.62,1.4,2.62,3.62-.91,3.61-2.62,3.61-2.63-1.4-2.63-3.62Zm4.53,.01c0-1.85-.64-3-1.9-3s-1.9,1.15-1.9,2.99,.64,3,1.9,3,1.9-1.15,1.9-2.99Z"/>
      </g>
      <g>
        <path d="M430.9,177.91h.82l1.82,5.34c.16,.45,.23,.73,.29,.99h.03c.06-.26,.13-.54,.29-.99l1.82-5.34h.82l-2.51,7.09h-.85l-2.51-7.09Z"/>
        <path d="M437.13,183.68c0-.48,.21-.87,.61-1.12,.36-.21,.85-.35,1.64-.45l1.11-.13v-.08c0-1.03-.36-1.44-1.21-1.44-.75,0-1.21,.39-1.25,1.1h-.75c.06-1.03,.84-1.68,1.99-1.68,1.34,0,1.92,.62,1.92,2.07v1.3c0,.78,.05,1.34,.16,1.75h-.73c-.05-.27-.08-.63-.09-1-.24,.7-.88,1.12-1.74,1.12-1,0-1.66-.58-1.66-1.44Zm3.36-.86v-.32l-1.42,.2c-.85,.12-1.22,.41-1.22,.96s.42,.88,1.09,.88c.93,0,1.55-.7,1.55-1.72Z"/>
        <path d="M443.68,185h-.69v-7.23h.69v7.23Z"/>
        <path d="M445.48,183.17v-3.16h.69v3.09c0,.98,.46,1.42,1.14,1.42,.91,0,1.46-.78,1.46-1.79v-2.72h.7v4.99h-.66v-1.03c-.23,.66-.86,1.15-1.62,1.15-1.25,0-1.71-.76-1.71-1.95Z"/>
        <path d="M455.2,182.68h-3.62c0,1.13,.63,1.82,1.6,1.82,.7,0,1.2-.39,1.41-1.07l.59,.24c-.31,.93-1.04,1.45-2.05,1.45-1.42,0-2.25-.91-2.25-2.58s.84-2.64,2.21-2.64,2.11,.8,2.11,2.32v.48Zm-.71-.66c0-1.03-.52-1.58-1.41-1.58s-1.49,.64-1.51,1.67h2.91v-.09Z"/>
        <path d="M458.75,184.39c.69-.5,1.63-1.27,2.5-2.12,.84-.84,1.16-1.47,1.16-2.29,0-.91-.51-1.44-1.39-1.44s-1.44,.53-1.44,1.36c0,.18,.03,.39,.08,.64l-.74-.07c-.05-.19-.07-.39-.07-.58,0-1.22,.83-1.99,2.21-1.99s2.12,.75,2.12,2.07c0,.95-.46,1.78-1.46,2.73-.58,.57-1.25,1.13-1.98,1.63h3.54v.66h-4.53v-.61Z"/>
      </g>
      <g>
        <path d="M412.42,229.24c-.23,.36-.79,.55-1.22,.55h-.32v-.66h.19c.7,0,1.3-.43,1.46-1.18h.62v6.94h-.73v-5.65Z"/>
        <path d="M414.93,231.42c0-2.22,.92-3.61,2.63-3.61s2.62,1.4,2.62,3.62-.91,3.61-2.62,3.61-2.63-1.4-2.63-3.62Zm4.53,.01c0-1.85-.64-3-1.9-3s-1.9,1.15-1.9,2.99,.64,3,1.9,3,1.9-1.15,1.9-2.99Z"/>
        <path d="M421.26,231.42c0-2.22,.92-3.61,2.63-3.61s2.62,1.4,2.62,3.62-.91,3.61-2.62,3.61-2.63-1.4-2.63-3.62Zm4.53,.01c0-1.85-.64-3-1.9-3s-1.9,1.15-1.9,2.99,.64,3,1.9,3,1.9-1.15,1.9-2.99Z"/>
      </g>
      <g>
        <path d="M415.62,250.58l.76-.08c.15,.76,.68,1.28,1.55,1.28,1,0,1.6-.69,1.6-1.8s-.54-1.82-1.56-1.82c-.79,0-1.34,.48-1.53,1.25l-.71-.07,.41-4.02h3.78v.64h-3.23l-.27,2.6c.34-.67,.93-1.02,1.73-1.02,1.32,0,2.12,.92,2.12,2.41s-.93,2.45-2.38,2.45c-1.22,0-2.09-.71-2.27-1.83Z"/>
        <path d="M421.26,248.78c0-2.22,.92-3.61,2.63-3.61s2.62,1.4,2.62,3.62-.91,3.61-2.62,3.61-2.63-1.4-2.63-3.62Zm4.53,.01c0-1.85-.64-3-1.9-3s-1.9,1.15-1.9,2.99,.64,3,1.9,3,1.9-1.15,1.9-2.99Z"/>
      </g>
      <path d="M421.26,266.15c0-2.22,.92-3.61,2.63-3.61s2.62,1.4,2.62,3.62-.91,3.61-2.62,3.61-2.63-1.4-2.63-3.62Zm4.53,.01c0-1.85-.64-3-1.9-3s-1.9,1.15-1.9,2.99,.64,3,1.9,3,1.9-1.15,1.9-2.99Z"/>
      <g>
        <path d="M75.75,26.4c0,1-.66,1.97-2.38,1.97h-2.97v-7.09h2.8c1.75,0,2.35,.93,2.35,1.86,0,.71-.41,1.33-1.23,1.55,.88,.15,1.42,.77,1.42,1.72Zm-4.06-4.14v2.02h1.31c1,0,1.24-.51,1.24-1,0-.53-.29-1.02-1.24-1.02h-1.31Zm2.75,4.02c0-.61-.38-1.06-1.23-1.06h-1.52v2.17h1.45c.95,0,1.3-.51,1.3-1.11Z"/>
        <path d="M76.52,27.01c0-.48,.21-.88,.61-1.13,.36-.21,.84-.34,1.63-.45l1.06-.13v-.13c0-.75-.29-1.07-.93-1.07-.59,0-.94,.31-.98,.88h-1.23c.08-1.07,.92-1.73,2.21-1.73,1.48,0,2.14,.63,2.14,2.08v1.49c0,.68,.05,1.2,.15,1.55h-1.2c-.04-.25-.07-.55-.08-.86-.24,.61-.87,.98-1.68,.98-1.02,0-1.7-.59-1.7-1.48Zm3.32-.69v-.32l-1.13,.17c-.66,.11-.96,.35-.96,.78s.32,.69,.85,.69c.74,0,1.24-.52,1.24-1.32Z"/>
        <path d="M82.04,25.88c0-1.56,.86-2.62,2.11-2.62,.66,0,1.15,.27,1.44,.83v-2.95h1.2v7.23h-1.13v-.9c-.28,.64-.85,1.02-1.6,1.02-1.21,0-2.02-1.05-2.02-2.6Zm3.57,.16v-.32c0-.98-.44-1.55-1.16-1.55s-1.17,.62-1.17,1.69,.45,1.71,1.18,1.71,1.15-.59,1.15-1.53Z"/>
      </g>
      <g>
        <path d="M427.48,24.84c0-2.2,1.25-3.72,3.37-3.72,1.92,0,2.71,1.19,2.88,2.16l-1.28,.22c-.11-.63-.54-1.36-1.63-1.36-1.3,0-2.04,1.08-2.04,2.69s.68,2.67,2.05,2.67c1.44,0,1.81-1.18,1.81-1.83v-.13h-1.92v-.99h3.08v3.81h-.92l-.11-1.09c-.33,.76-1.13,1.26-2.19,1.26-1.96,0-3.12-1.52-3.12-3.7Z"/>
        <path d="M434.89,25.86c0-1.67,1.01-2.6,2.45-2.6s2.44,.94,2.44,2.6-1.01,2.62-2.44,2.62-2.45-.95-2.45-2.62Zm3.66,0c0-1.14-.45-1.7-1.22-1.7s-1.23,.56-1.23,1.7,.46,1.72,1.23,1.72,1.22-.58,1.22-1.72Z"/>
        <path d="M440.56,25.86c0-1.67,1.01-2.6,2.45-2.6s2.44,.94,2.44,2.6-1.01,2.62-2.44,2.62-2.45-.95-2.45-2.62Zm3.66,0c0-1.14-.45-1.7-1.22-1.7s-1.23,.56-1.23,1.7,.46,1.72,1.23,1.72,1.22-.58,1.22-1.72Z"/>
        <path d="M446.24,25.88c0-1.56,.86-2.62,2.11-2.62,.66,0,1.15,.27,1.44,.83v-2.95h1.2v7.23h-1.13v-.9c-.28,.64-.85,1.02-1.6,1.02-1.21,0-2.02-1.05-2.02-2.6Zm3.57,.16v-.32c0-.98-.44-1.55-1.16-1.55s-1.17,.62-1.17,1.69,.45,1.71,1.18,1.71,1.15-.59,1.15-1.53Z"/>
      </g>
    </g>
  </g>
</svg>