<?xml version="1.0" encoding="UTF-8"?>
<svg xmlns="http://www.w3.org/2000/svg" viewBox="0 0 471.19 250">
  <g id="Hintergrund">
    <rect x="-63.82" y="-.88" width="600" height="250" fill="#f3f5fa"/>
  </g>
  <g id="Graphic">
    <circle cx="103.97" cy="129.55" r="38.56" transform="translate(-4.99 4.17) rotate(-2.24)" fill="#b2c2e0"/>
    <path d="M131.15,102.38c7.01,7.01,11.34,16.68,11.34,27.37,0,21.38-17.33,38.71-38.71,38.71s-38.71-17.33-38.71-38.71c0-21.38,17.33-38.71,38.71-38.71v38.71s27.37-27.37,27.37-27.37Z" fill="#039"/>
    <circle cx="355.39" cy="129.55" r="38.56" transform="translate(-4.8 14.01) rotate(-2.24)" fill="#b2c2e0"/>
    <path d="M382.57,102.38c7.01,7.01,11.34,16.68,11.34,27.37,0,21.38-17.33,38.71-38.71,38.71s-38.71-17.33-38.71-38.71c0-21.38,17.33-38.71,38.71-38.71v38.71s27.37-27.37,27.37-27.37Z" fill="#039"/>
  </g>
  <g id="Text">
    <text transform="translate(88.87 73.94)" font-family="Ubuntu-Regular, Ubuntu" font-size="10"><tspan x="0" y="0">85</tspan></text>
    <text transform="translate(337.52 107.82)" fill="#fff" font-family="Ubuntu-Regular, Ubuntu" font-size="10"><tspan x="0" y="0">85</tspan></text>
    <text transform="translate(125.79 73.94)" font-family="Ubuntu-Regular, Ubuntu" font-size="10"><tspan x="0" y="0">15</tspan></text>
    <text transform="translate(359.63 107.82)" fill="#039" font-family="Ubuntu-Regular, Ubuntu" font-size="10"><tspan x="0" y="0">15</tspan></text>
    <circle cx="79.51" cy="71.41" r="4.78" fill="#039"/>
    <circle cx="116.68" cy="71.41" r="4.78" fill="#b2c2e0"/>
    <rect x="259.48" y="24.54" width="29.87" height=".94" fill="#039"/>
    <rect x="30.59" y="24.54" width="20.64" height=".94" fill="#039"/>
    <text transform="translate(259.66 22.12)" font-family="Ubuntu-Bold, Ubuntu" font-size="10"><tspan x="0" y="0">GOOD</tspan></text>
    <text transform="translate(29.77 22.12)" font-family="Ubuntu-Bold, Ubuntu" font-size="10"><tspan x="0" y="0" letter-spacing="0em">B</tspan><tspan x="6.62" y="0">AD</tspan></text>
  </g>
</svg>