<?xml version="1.0" encoding="UTF-8"?>
<svg xmlns="http://www.w3.org/2000/svg" viewBox="0 0 471.19 250">
  <g id="Hintergrund">
    <rect x="-65.24" y="0" width="600" height="250" fill="#f3f5fa"/>
  </g>
  <g id="Text">
    <g>
      <text transform="translate(69.48 108.03)" font-family="Ubuntu-Regular, Ubuntu" font-size="10"><tspan x="0" y="0" letter-spacing="-.03em">P</tspan><tspan x="5.76" y="0">eople in the </tspan><tspan x="61.98" y="0" letter-spacing="-.02em">E</tspan><tspan x="67.47" y="0">U in the age 18 - 40</tspan></text>
      <text transform="translate(69.48 132.63)" font-family="Ubuntu-Regular, Ubuntu" font-size="10"><tspan x="0" y="0" letter-spacing="-.03em">P</tspan><tspan x="5.76" y="0">eople in the </tspan><tspan x="61.98" y="0" letter-spacing="-.02em">E</tspan><tspan x="67.47" y="0">U in the age 41 - 80</tspan></text>
      <circle cx="54.51" cy="104.56" r="6.56" fill="#039"/>
      <circle cx="54.51" cy="128.78" r="6.56" fill="#6685c2"/>
      <text transform="translate(69.48 156.16)" font-family="Ubuntu-Regular, Ubuntu" font-size="10"><tspan x="0" y="0" letter-spacing="-.03em">P</tspan><tspan x="5.76" y="0">eople in the </tspan><tspan x="61.98" y="0" letter-spacing="-.02em">E</tspan><tspan x="67.47" y="0">U in the age older than 80</tspan></text>
      <circle cx="54.51" cy="152.69" r="6.56" fill="#b2c2e0"/>
      <text transform="translate(330.69 108.03)" font-family="Ubuntu-Regular, Ubuntu" font-size="10"><tspan x="0" y="0">18 – 40</tspan></text>
      <text transform="translate(311.25 84.89)" font-family="Ubuntu-Regular, Ubuntu" font-size="10"><tspan x="0" y="0" letter-spacing="-.02em">E</tspan><tspan x="5.49" y="0">U-residents in the age...</tspan></text>
      <text transform="translate(330.69 132.63)" font-family="Ubuntu-Regular, Ubuntu" font-size="10"><tspan x="0" y="0">41 – 80</tspan></text>
      <circle cx="315.72" cy="104.56" r="6.56" fill="#039"/>
      <circle cx="315.72" cy="128.78" r="6.56" fill="#6685c2"/>
      <text transform="translate(330.69 156.16)" font-family="Ubuntu-Regular, Ubuntu" font-size="10"><tspan x="0" y="0">older than 80</tspan></text>
      <circle cx="315.72" cy="152.69" r="6.56" fill="#b2c2e0"/>
      <rect x="309.93" y="23.21" width="29.87" height=".94" fill="#039"/>
      <rect x="48.87" y="23.21" width="20.64" height=".94" fill="#039"/>
      <text transform="translate(308.72 20.79)" font-family="Ubuntu-Bold, Ubuntu" font-size="10"><tspan x="0" y="0">GOOD</tspan></text>
      <text transform="translate(48.04 20.79)" font-family="Ubuntu-Bold, Ubuntu" font-size="10"><tspan x="0" y="0" letter-spacing="0em">B</tspan><tspan x="6.62" y="0">AD</tspan></text>
    </g>
  </g>
</svg>