<?xml version="1.0" encoding="UTF-8"?>
<svg id="Graphic" xmlns="http://www.w3.org/2000/svg" viewBox="0 0 600 250">
  <rect width="600" height="250" fill="#e8e2e4"/>
  <g>
    <g>
      <path d="M178.67,218.76H99.47c-4.16,0-7.57-3.41-7.57-7.57V42.14c0-4.16,3.41-7.57,7.57-7.57h79.2c4.16,0,7.57,3.41,7.57,7.79V211.41c0,3.94-3.41,7.35-7.57,7.35Z" fill="#fdedf0"/>
      <rect x="86.53" y="28.75" width="94.34" height="184.19" rx="10.1" ry="10.1" fill="#fff" stroke="#f7a7b6" stroke-miterlimit="10" stroke-width=".71"/>
      <rect x="93.49" y="38.1" width="81.24" height="167.97" rx="2.83" ry="2.83" fill="#f7a7b6"/>
      <line x1="101.33" y1="69.92" x2="166.55" y2="69.92" fill="none" stroke="#fff" stroke-linecap="round" stroke-miterlimit="10" stroke-width="2.13"/>
      <circle cx="115.85" cy="69.92" r="10.63" fill="#fff" opacity=".6"/>
      <circle cx="134.09" cy="69.92" r="5.95" fill="#fff" opacity=".6"/>
      <circle cx="150.05" cy="69.92" r="12.89" fill="#fff" opacity=".6"/>
      <line x1="101.33" y1="102.42" x2="166.55" y2="102.42" fill="none" stroke="#fff" stroke-linecap="round" stroke-miterlimit="10" stroke-width="2.13"/>
      <circle cx="115.85" cy="102.42" r="6.49" fill="#fff" opacity=".6"/>
      <circle cx="123.34" cy="102.42" r="3.16" fill="#fff" opacity=".6"/>
      <circle cx="133.38" cy="102.8" r="4.02" fill="#fff" opacity=".6"/>
      <circle cx="154.61" cy="102.42" r="7.73" fill="#fff" opacity=".6"/>
      <line x1="101.33" y1="130.99" x2="166.55" y2="130.99" fill="none" stroke="#fff" stroke-linecap="round" stroke-miterlimit="10" stroke-width="2.13"/>
      <circle cx="115.85" cy="130.99" r="8.52" fill="#fff" opacity=".6"/>
      <circle cx="130.51" cy="130.99" r="11.96" fill="#fff" opacity=".6"/>
      <circle cx="159.49" cy="130.99" r="6" fill="#fff" opacity=".6"/>
      <line x1="105.69" y1="160.98" x2="158.73" y2="160.98" fill="none" stroke="#fff" stroke-linecap="round" stroke-miterlimit="10" stroke-width="2.13"/>
      <line x1="105.69" y1="169.62" x2="164.92" y2="169.62" fill="none" stroke="#fff" stroke-linecap="round" stroke-miterlimit="10" stroke-width="2.13"/>
      <line x1="105.69" y1="178.26" x2="161.01" y2="178.26" fill="none" stroke="#fff" stroke-linecap="round" stroke-miterlimit="10" stroke-width="2.13"/>
      <line x1="105.69" y1="186.9" x2="164.11" y2="186.9" fill="none" stroke="#fff" stroke-linecap="round" stroke-miterlimit="10" stroke-width="2.13"/>
    </g>
    <g>
      <rect x="287.76" y="-4.13" width="184.89" height="266.53" rx="17.01" ry="17.01" transform="translate(509.34 -251.08) rotate(90)" fill="#fdedf0"/>
      <rect x="281.17" y="-10.73" width="184.89" height="266.53" rx="17.01" ry="17.01" transform="translate(496.15 -251.08) rotate(90)" fill="#fff" stroke="#f7a7b6" stroke-miterlimit="10" stroke-width=".71"/>
      <rect x="261.95" y="40.63" width="221.7" height="165.23" rx="2.83" ry="2.83" fill="#f7a7b6"/>
      <line x1="274.35" y1="94.6" x2="474.41" y2="94.6" fill="none" stroke="#fff" stroke-linecap="round" stroke-miterlimit="10" stroke-width="2.13"/>
      <circle cx="288.87" cy="94.6" r="10.63" fill="#fff" opacity=".6"/>
      <circle cx="307.11" cy="94.6" r="5.95" fill="#fff" opacity=".6"/>
      <circle cx="323.07" cy="94.6" r="12.89" fill="#fff" opacity=".6"/>
      <circle cx="354.39" cy="94.6" r="6.49" fill="#fff" opacity=".6"/>
      <circle cx="361.88" cy="94.6" r="3.16" fill="#fff" opacity=".6"/>
      <circle cx="371.92" cy="94.6" r="4.02" fill="#fff" opacity=".6"/>
      <circle cx="393.15" cy="94.6" r="7.73" fill="#fff" opacity=".6"/>
      <circle cx="419.8" cy="94.6" r="8.52" fill="#fff" opacity=".6"/>
      <circle cx="434.45" cy="94.6" r="11.96" fill="#fff" opacity=".6"/>
      <circle cx="463.44" cy="94.6" r="6" fill="#fff" opacity=".6"/>
      <line x1="277.64" y1="172.12" x2="354.09" y2="172.12" fill="none" stroke="#fff" stroke-linecap="round" stroke-miterlimit="10" stroke-width="2.13"/>
      <line x1="277.64" y1="180.76" x2="363.01" y2="180.76" fill="none" stroke="#fff" stroke-linecap="round" stroke-miterlimit="10" stroke-width="2.13"/>
      <line x1="277.64" y1="137.43" x2="354.09" y2="137.43" fill="none" stroke="#fff" stroke-linecap="round" stroke-miterlimit="10" stroke-width="2.13"/>
      <line x1="277.64" y1="146.07" x2="363.01" y2="146.07" fill="none" stroke="#fff" stroke-linecap="round" stroke-miterlimit="10" stroke-width="2.13"/>
      <line x1="277.64" y1="154.71" x2="357.37" y2="154.71" fill="none" stroke="#fff" stroke-linecap="round" stroke-miterlimit="10" stroke-width="2.13"/>
      <line x1="277.64" y1="163.36" x2="361.83" y2="163.36" fill="none" stroke="#fff" stroke-linecap="round" stroke-miterlimit="10" stroke-width="2.13"/>
      <line x1="379.25" y1="172.12" x2="462.12" y2="172.12" fill="none" stroke="#fff" stroke-linecap="round" stroke-miterlimit="10" stroke-width="2.13"/>
      <line x1="379.25" y1="180.76" x2="458.7" y2="180.76" fill="none" stroke="#fff" stroke-linecap="round" stroke-miterlimit="10" stroke-width="2.13"/>
      <line x1="379.25" y1="137.43" x2="466.02" y2="137.43" fill="none" stroke="#fff" stroke-linecap="round" stroke-miterlimit="10" stroke-width="2.13"/>
      <line x1="379.25" y1="146.07" x2="447.46" y2="146.07" fill="none" stroke="#fff" stroke-linecap="round" stroke-miterlimit="10" stroke-width="2.13"/>
      <line x1="379.25" y1="154.71" x2="464.07" y2="154.71" fill="none" stroke="#fff" stroke-linecap="round" stroke-miterlimit="10" stroke-width="2.13"/>
      <line x1="379.25" y1="163.36" x2="457.72" y2="163.36" fill="none" stroke="#fff" stroke-linecap="round" stroke-miterlimit="10" stroke-width="2.13"/>
    </g>
  </g>
</svg>