<?xml version="1.0" encoding="UTF-8"?>
<svg xmlns="http://www.w3.org/2000/svg" viewBox="0 0 471.19 250">
  <g id="Hintergrund">
    <rect x="-64.07" y="-.88" width="600" height="250" fill="#f3f5fa"/>
  </g>
  <g id="Text">
    <g>
      <g>
        <text transform="translate(265.08 202.87)" fill="#58585a" font-family="Ubuntu-Regular, Ubuntu" font-size="10"><tspan x="0" y="0">0</tspan></text>
        <text transform="translate(259.44 169.39)" fill="#58585a" font-family="Ubuntu-Regular, Ubuntu" font-size="10"><tspan x="0" y="0">20</tspan></text>
        <text transform="translate(259.44 135.91)" fill="#58585a" font-family="Ubuntu-Regular, Ubuntu" font-size="10"><tspan x="0" y="0">40</tspan></text>
        <text transform="translate(259.44 102.43)" fill="#58585a" font-family="Ubuntu-Regular, Ubuntu" font-size="10"><tspan x="0" y="0">60</tspan></text>
        <text transform="translate(259.44 68.95)" fill="#58585a" font-family="Ubuntu-Regular, Ubuntu" font-size="10"><tspan x="0" y="0">80</tspan></text>
      </g>
      <g>
        <line x1="273.16" y1="166.65" x2="414.69" y2="166.65" fill="none" stroke="#c0c1c3" stroke-linecap="round" stroke-miterlimit="10" stroke-width=".57"/>
        <line x1="273.16" y1="133.17" x2="414.69" y2="133.17" fill="none" stroke="#c0c1c3" stroke-linecap="round" stroke-miterlimit="10" stroke-width=".57"/>
        <line x1="273.16" y1="99.69" x2="414.69" y2="99.69" fill="none" stroke="#c0c1c3" stroke-linecap="round" stroke-miterlimit="10" stroke-width=".57"/>
        <line x1="273.16" y1="66.2" x2="414.69" y2="66.2" fill="none" stroke="#c0c1c3" stroke-linecap="round" stroke-miterlimit="10" stroke-width=".57"/>
        <line x1="273.16" y1="200.13" x2="414.69" y2="200.13" fill="none" stroke="#c0c1c3" stroke-linecap="round" stroke-miterlimit="10" stroke-width=".85"/>
      </g>
    </g>
    <g>
      <rect x="288.55" y="66.2" width="22.55" height="133.92" fill="#039"/>
      <rect x="330.11" y="82.94" width="22.55" height="117.18" fill="#039"/>
      <rect x="370.42" y="133.17" width="22.55" height="66.96" fill="#039"/>
    </g>
    <text transform="translate(30.68 200.75)" fill="#58585a" font-family="Ubuntu-Regular, Ubuntu" font-size="10"><tspan x="0" y="0">20</tspan></text>
    <text transform="translate(30.68 135.38)" fill="#58585a" font-family="Ubuntu-Regular, Ubuntu" font-size="10"><tspan x="0" y="0">50</tspan></text>
    <text transform="translate(30.68 80)" fill="#58585a" font-family="Ubuntu-Regular, Ubuntu" font-size="10"><tspan x="0" y="0">75</tspan></text>
    <line x1="44.4" y1="200.27" x2="185.93" y2="200.27" fill="none" stroke="#c0c1c3" stroke-linecap="round" stroke-miterlimit="10" stroke-width=".57"/>
    <line x1="44.4" y1="133.31" x2="185.93" y2="133.31" fill="none" stroke="#c0c1c3" stroke-linecap="round" stroke-miterlimit="10" stroke-width=".57"/>
    <line x1="44.4" y1="77.5" x2="185.93" y2="77.5" fill="none" stroke="#c0c1c3" stroke-linecap="round" stroke-miterlimit="10" stroke-width=".57"/>
    <g>
      <rect x="59.79" y="66.34" width="22.55" height="134.09" fill="#039"/>
      <rect x="101.35" y="88.66" width="22.55" height="111.77" fill="#039"/>
      <rect x="141.66" y="155.63" width="22.55" height="44.81" fill="#039"/>
    </g>
    <rect x="261.1" y="21.64" width="29.87" height=".94" fill="#039"/>
    <rect x="32.04" y="21.64" width="20.64" height=".94" fill="#039"/>
    <text transform="translate(261.28 19.23)" font-family="Ubuntu-Bold, Ubuntu" font-size="10"><tspan x="0" y="0">GOOD</tspan></text>
    <text transform="translate(31.21 19.23)" font-family="Ubuntu-Bold, Ubuntu" font-size="10"><tspan x="0" y="0" letter-spacing="0em">B</tspan><tspan x="6.62" y="0">AD</tspan></text>
  </g>
</svg>