<?xml version="1.0" encoding="UTF-8"?>
<svg xmlns="http://www.w3.org/2000/svg" viewBox="0 0 600 250">
  <g id="Hintergrund">
    <rect x="-1.13" y="0" width="600" height="250" fill="rgba(214, 222, 239, .4)"/>
  </g>
  <g id="Text">
    <text transform="translate(116.43 108.03)" font-family="Ubuntu-Regular, Ubuntu" font-size="10"><tspan x="0" y="0" letter-spacing="-.03em">P</tspan><tspan x="5.76" y="0">eople in the </tspan><tspan x="61.98" y="0" letter-spacing="-.02em">E</tspan><tspan x="67.47" y="0">U in the age 18 - 40</tspan></text>
    <text transform="translate(116.43 132.63)" font-family="Ubuntu-Regular, Ubuntu" font-size="10"><tspan x="0" y="0" letter-spacing="-.03em">P</tspan><tspan x="5.76" y="0">eople in the </tspan><tspan x="61.98" y="0" letter-spacing="-.02em">E</tspan><tspan x="67.47" y="0">U in the age 41 - 80</tspan></text>
    <circle cx="101.46" cy="104.56" r="6.56" fill="#039"/>
    <circle cx="101.46" cy="128.78" r="6.56" fill="#6685c2"/>
    <text transform="translate(116.43 156.16)" font-family="Ubuntu-Regular, Ubuntu" font-size="10"><tspan x="0" y="0" letter-spacing="-.03em">P</tspan><tspan x="5.76" y="0">eople in the </tspan><tspan x="61.98" y="0" letter-spacing="-.02em">E</tspan><tspan x="67.47" y="0">U in the age older than 80</tspan></text>
    <circle cx="101.46" cy="152.69" r="6.56" fill="#b2c2e0"/>
    <text transform="translate(345.64 108.03)" font-family="Ubuntu-Regular, Ubuntu" font-size="10"><tspan x="0" y="0">18 – 40</tspan></text>
    <text transform="translate(326.2 84.89)" font-family="Ubuntu-Regular, Ubuntu" font-size="10"><tspan x="0" y="0" letter-spacing="-.02em">E</tspan><tspan x="5.49" y="0">U-residents in the age...</tspan></text>
    <text transform="translate(345.64 132.63)" font-family="Ubuntu-Regular, Ubuntu" font-size="10"><tspan x="0" y="0">41 – 80</tspan></text>
    <circle cx="330.67" cy="104.56" r="6.56" fill="#039"/>
    <circle cx="330.67" cy="128.78" r="6.56" fill="#6685c2"/>
    <text transform="translate(345.64 156.16)" font-family="Ubuntu-Regular, Ubuntu" font-size="10"><tspan x="0" y="0">older than 80</tspan></text>
    <circle cx="330.67" cy="152.69" r="6.56" fill="#b2c2e0"/>
    <rect x="324.88" y="23.21" width="29.87" height=".94" fill="#039"/>
    <rect x="95.82" y="23.21" width="20.64" height=".94" fill="#039"/>
    <text transform="translate(323.67 20.79)" font-family="Ubuntu-Bold, Ubuntu" font-size="10"><tspan x="0" y="0">GOOD</tspan></text>
    <text transform="translate(94.99 20.79)" font-family="Ubuntu-Bold, Ubuntu" font-size="10"><tspan x="0" y="0" letter-spacing="0em">B</tspan><tspan x="6.62" y="0">AD</tspan></text>
  </g>
</svg>