<?xml version="1.0" encoding="UTF-8"?>
<svg xmlns="http://www.w3.org/2000/svg" viewBox="0 0 600 250">
  <g id="Hintergrund">
    <rect y="-.88" width="600" height="250" fill="rgba(214, 222, 239, .4)"/>
  </g>
  <g id="Graphic">
    <line x1="416.23" y1="187.22" x2="182.96" y2="187.22" fill="none" stroke="#c0c1c3" stroke-linecap="round" stroke-miterlimit="10" stroke-width=".85"/>
    <line x1="416.23" y1="163.38" x2="182.96" y2="163.38" fill="none" stroke="#c0c1c3" stroke-linecap="round" stroke-miterlimit="10" stroke-width=".57"/>
    <line x1="416.23" y1="139.53" x2="182.96" y2="139.53" fill="none" stroke="#c0c1c3" stroke-linecap="round" stroke-miterlimit="10" stroke-width=".57"/>
    <line x1="416.23" y1="115.69" x2="182.96" y2="115.69" fill="none" stroke="#c0c1c3" stroke-linecap="round" stroke-miterlimit="10" stroke-width=".57"/>
    <path d="M183.86,169.09s4.94-.48,4.94-.96,2.97-1.2,2.97-1.2l2.47-2.4,.49-3.12,3.46-1.44,4.45-4.08,5.44-1.44s1.98-1.68,2.97-2.64,4.94-3.6,4.94-3.6l6.43-.24s2.47,2.16,4.94,1.68c2.47-.48,6.43-.72,6.92-1.92s-.99-.48,2.47-1.44c3.46-.96,6.43-2.16,6.43-2.16,0,0,1.48,.96,6.43-1.44,4.94-2.4,8.9-1.2,13.35-1.2,4.45,0,1.98,1.68,5.93,1.44s3.88-.24,7.38-.24c3.5,0,3.5,2.88,6.47,2.64,2.97-.24,3.96-2.16,3.96-2.16l3.46-2.16,2.47-3.36c2.47-2.88,.49-1.44,2.47-2.88,1.98-1.44,.99,1.44,1.98-1.44,.99-2.88,2.47-3.6,2.97-5.04,.49-1.44,2.47-2.4,2.97-3.36,.49-.96,3.96-2.64,3.96-2.64l3.46-3.12s4.45-2.88,5.93-2.88,12.36-2.4,12.36-2.4c0,0,5.93,.48,9.39,0s9.39-1.92,10.88-1.92,.99,.48,3.46,.24,0,0,4.94,0c4.94,0,6.92-.24,9.39-.24s-1.48,0,2.47,0h3.96l5.93,1.2s0,2.88,6.43,2.64,4.94,.72,10.38,.48l5.44-.24s3.46-2.64,8.41-2.64,6.42,2.26,6.42,2.26" fill="none" stroke="#039" stroke-dasharray="0 0 4 6" stroke-linecap="round" stroke-miterlimit="10" stroke-width="2"/>
    <line x1="416.23" y1="91.72" x2="182.96" y2="91.72" fill="none" stroke="#c0c1c3" stroke-linecap="round" stroke-miterlimit="10" stroke-width=".57"/>
  </g>
  <g id="Text">
    <text transform="translate(168.84 56.82)" fill="#1a171b" font-family="Ubuntu-Regular, Ubuntu" font-size="10"><tspan x="0" y="0">This is a subtitle</tspan></text>
    <text transform="translate(168.84 19.05)" font-family="Ubuntu-Light, Ubuntu" font-size="8"><tspan x="0" y="0">Figure Number X</tspan></text>
    <text transform="translate(183.98 214.6)" fill="#58585a" font-family="Ubuntu-Regular, Ubuntu" font-size="8"><tspan x="0" y="0" letter-spacing="-.01em">F</tspan><tspan x="4.18" y="0" letter-spacing="0em">ootno</tspan><tspan x="26.15" y="0" letter-spacing="0em">t</tspan><tspan x="29.29" y="0">e: </tspan><tspan x="37.58" y="0" letter-spacing="-.01em">L</tspan><tspan x="41.63" y="0">orem ipsum dolor sit ame</tspan><tspan x="133.74" y="0" letter-spacing=".01em">t</tspan><tspan x="137.05" y="0">.</tspan></text>
    <text transform="translate(183.98 229.53)" fill="#58585a" font-family="Ubuntu-Regular, Ubuntu" font-size="8"><tspan x="0" y="0">Source: </tspan><tspan x="28.66" y="0" letter-spacing=".02em">XX</tspan><tspan x="39.05" y="0" letter-spacing="0em">X</tspan></text>
    <text transform="translate(326.19 229.53)" fill="#58585a" font-family="Ubuntu-Regular, Ubuntu" font-size="8"><tspan x="0" y="0" letter-spacing="-.02em">A</tspan><tspan x="5.18" y="0">utho</tspan><tspan x="22.28" y="0" letter-spacing="-.05em">r</tspan><tspan x="24.93" y="0">, Liscene: </tspan><tspan x="59.56" y="0" letter-spacing=".02em">XX</tspan><tspan x="69.94" y="0" letter-spacing=".01em">X</tspan><tspan x="75.09" y="0">, </tspan><tspan x="78.91" y="0" letter-spacing=".02em">XX</tspan><tspan x="89.29" y="0">X</tspan></text>
    <text transform="translate(168.84 40.08)" fill="#1a171b" font-family="Ubuntu-Regular, Ubuntu" font-size="13"><tspan x="0" y="0">This is a title</tspan></text>
    <text transform="translate(182.38 199.7)" fill="#58585a" font-family="Ubuntu-Regular, Ubuntu" font-size="8"><tspan x="0" y="0">2020</tspan></text>
    <text transform="translate(401.12 199.7)" fill="#58585a" font-family="Ubuntu-Regular, Ubuntu" font-size="8"><tspan x="0" y="0">2022</tspan></text>
    <text transform="translate(168.49 118.73)" fill="#58585a" font-family="Ubuntu-Regular, Ubuntu" font-size="8"><tspan x="0" y="0">60</tspan></text>
    <text transform="translate(168.49 92.89)" fill="#58585a" font-family="Ubuntu-Regular, Ubuntu" font-size="8"><tspan x="0" y="0">80</tspan></text>
    <text transform="translate(190.21 74.85)" fill="#58585a" font-family="Ubuntu-Regular, Ubuntu" font-size="8"><tspan x="0" y="0" letter-spacing="-.03em">V</tspan><tspan x="5.05" y="0">alue 1</tspan></text>
    <text transform="translate(168.49 142.53)" fill="#58585a" font-family="Ubuntu-Regular, Ubuntu" font-size="8"><tspan x="0" y="0">40</tspan></text>
    <text transform="translate(168.49 166.87)" fill="#58585a" font-family="Ubuntu-Regular, Ubuntu" font-size="8"><tspan x="0" y="0">20</tspan></text>
    <text transform="translate(173 189.76)" fill="#58585a" font-family="Ubuntu-Regular, Ubuntu" font-size="8"><tspan x="0" y="0">0</tspan></text>
    <text transform="translate(250.67 74.09)" fill="#58585a" font-family="Ubuntu-Regular, Ubuntu" font-size="8"><tspan x="0" y="0" letter-spacing="-.03em">V</tspan><tspan x="5.05" y="0">alue 2</tspan></text>
    <path d="M183.03,186.62s7.24-.44,7.24-1.76,5.43-2.2,5.43-2.2c5.43-3.51,9.96-3.95,9.05-5.71s1.81-6.59,1.81-7.91,5.43-3.95,5.43-5.27,2.72-4.39,3.62-5.71,4.53-1.76,5.43-.44c.91,1.32,1.81,3.51,3.62,4.83,1.81,1.32,5.43,5.27,5.43,5.27,5.43-1.32,8.15-5.27,8.15-7.03s0-3.95,.91-4.83,4.53-3.95,5.43-4.83,3.62,.44,6.34-.88c2.72-1.32,6.34-3.51,6.34-4.39s7.24-.44,7.24-2.64,5.43-4.83,6.34-4.83,5.43,4.39,5.43,4.39c0,0,2.72,4.83,3.62,5.27s3.62,4.83,3.62,4.83c4.53-2.64,7.24-4.83,7.24-4.83l1.81-3.95s7.24-4.39,6.34-5.71c-.91-1.32,2.72-3.51,2.72-4.39s3.62-2.64,3.62-3.95,1.81-2.2,2.72-3.95,5.43-3.95,5.43-3.95l5.43-3.95,2.72-3.51,8.15-3.95s4.53-2.64,3.62-3.95c-.91-1.32,1.81-2.64,2.72-3.95s4.53-2.64,7.24-1.32c2.72,1.32,7.24,.44,7.24,.44,0,0,10.86,.44,11.77,2.64,.91,2.2,3.62,5.27,3.62,5.27,0,0,2.72,3.07,2.72,3.95s.91,3.51,.91,3.51l.91,6.59s0,3.07,.91,4.83,0,3.95,1.81,6.15,7.24,2.2,8.15,.88c.91-1.32,2.72-3.51,2.72-3.51,0,0,5.43,.44,6.34-.44,.91-.88,1.81-3.95,1.81-3.95l6.34-2.2,6.34-1.76,7.24,1.76" fill="none" stroke="#039" stroke-miterlimit="10" stroke-width="2"/>
    <line x1="229.73" y1="75.21" x2="238.6" y2="66.65" fill="none" stroke="#039" stroke-dasharray="0 0 4 6" stroke-linecap="round" stroke-miterlimit="10" stroke-width="2"/>
    <line x1="170.24" y1="75.21" x2="177.11" y2="68.58" fill="none" stroke="#039" stroke-linecap="round" stroke-miterlimit="10" stroke-width="2"/>
  </g>
</svg>