<?xml version="1.0" encoding="UTF-8"?>
<svg xmlns="http://www.w3.org/2000/svg" viewBox="0 0 600 250">
  <g id="Hintergrund">
    <rect x="-1.13" y="0" width="600" height="250" fill="rgba(214, 222, 239, .4)"/>
  </g>
  <g id="Graphic">
    <path d="M189.16,218.91H109.73c-4.18,0-7.59-3.42-7.59-7.59V41.77c0-4.18,3.42-7.59,7.59-7.59h79.43c4.18,0,7.59,3.42,7.59,7.82V211.54c0,3.95-3.42,7.37-7.59,7.37Z" fill="#b2c2e0"/>
    <rect x="96.75" y="28.34" width="94.62" height="184.73" rx="10.1" ry="10.1" fill="#fff" stroke="#039" stroke-miterlimit="10" stroke-width=".71"/>
    <rect x="103.73" y="37.71" width="81.48" height="168.46" rx="2.83" ry="2.83" fill="#039"/>
    <line x1="115.96" y1="169.62" x2="175.37" y2="169.62" fill="none" stroke="#fff" stroke-linecap="round" stroke-miterlimit="10" stroke-width="2.13"/>
    <line x1="115.96" y1="178.29" x2="171.45" y2="178.29" fill="none" stroke="#fff" stroke-linecap="round" stroke-miterlimit="10" stroke-width="2.13"/>
    <line x1="115.96" y1="186.96" x2="174.56" y2="186.96" fill="none" stroke="#fff" stroke-linecap="round" stroke-miterlimit="10" stroke-width="2.13"/>
    <rect x="298.57" y="-4.64" width="185.43" height="267.31" rx="17.01" ry="17.01" transform="translate(520.3 -262.27) rotate(90)" fill="#b2c2e0"/>
    <rect x="291.96" y="-11.25" width="185.43" height="267.31" rx="17.01" ry="17.01" transform="translate(507.07 -262.27) rotate(90)" fill="#fff" stroke="#039" stroke-miterlimit="10" stroke-width=".71"/>
    <rect x="272.69" y="40.25" width="222.35" height="165.71" rx="2.83" ry="2.83" fill="#039"/>
    <line x1="285.12" y1="94.38" x2="485.76" y2="94.38" fill="none" stroke="#fff" stroke-linecap="round" stroke-miterlimit="10"/>
    <circle cx="299.68" cy="94.38" r="10.66" fill="#fff" opacity=".6"/>
    <circle cx="317.97" cy="94.38" r="5.96" fill="#fff" opacity=".6"/>
    <circle cx="333.98" cy="94.38" r="12.92" fill="#fff" opacity=".6"/>
    <circle cx="365.39" cy="94.38" r="6.51" fill="#fff" opacity=".6"/>
    <circle cx="372.9" cy="94.38" r="3.17" fill="#fff" opacity=".6"/>
    <circle cx="382.97" cy="94.38" r="4.03" fill="#fff" opacity=".6"/>
    <circle cx="404.26" cy="94.38" r="7.75" fill="#fff" opacity=".6"/>
    <circle cx="430.99" cy="94.38" r="8.54" fill="#fff" opacity=".6"/>
    <circle cx="445.69" cy="94.38" r="12" fill="#fff" opacity=".6"/>
    <circle cx="474.76" cy="94.38" r="6.02" fill="#fff" opacity=".6"/>
    <line x1="143.88" y1="44.96" x2="143.88" y2="154.22" fill="none" stroke="#fff" stroke-linecap="round" stroke-miterlimit="10"/>
    <circle cx="143.88" cy="52.9" r="5.8" fill="#fff" opacity=".6"/>
    <circle cx="143.88" cy="62.86" r="3.25" fill="#fff" opacity=".6"/>
    <circle cx="143.88" cy="71.57" r="7.04" fill="#fff" opacity=".6"/>
    <circle cx="143.88" cy="88.68" r="3.54" fill="#fff" opacity=".6"/>
    <circle cx="143.88" cy="92.77" r="1.72" fill="#fff" opacity=".6"/>
    <circle cx="143.88" cy="98.25" r="2.19" fill="#fff" opacity=".6"/>
    <circle cx="143.88" cy="109.84" r="4.22" fill="#fff" opacity=".6"/>
    <circle cx="143.88" cy="124.4" r="4.65" fill="#fff" opacity=".6"/>
    <circle cx="143.88" cy="132.4" r="6.53" fill="#fff" opacity=".6"/>
    <circle cx="143.88" cy="148.23" r="3.28" fill="#fff" opacity=".6"/>
    <line x1="288.42" y1="172.13" x2="365.09" y2="172.13" fill="none" stroke="#fff" stroke-linecap="round" stroke-miterlimit="10" stroke-width="2.13"/>
    <line x1="288.42" y1="180.79" x2="374.03" y2="180.79" fill="none" stroke="#fff" stroke-linecap="round" stroke-miterlimit="10" stroke-width="2.13"/>
    <line x1="288.42" y1="137.34" x2="365.09" y2="137.34" fill="none" stroke="#fff" stroke-linecap="round" stroke-miterlimit="10" stroke-width="2.13"/>
    <line x1="288.42" y1="146" x2="374.03" y2="146" fill="none" stroke="#fff" stroke-linecap="round" stroke-miterlimit="10" stroke-width="2.13"/>
    <line x1="288.42" y1="154.67" x2="368.39" y2="154.67" fill="none" stroke="#fff" stroke-linecap="round" stroke-miterlimit="10" stroke-width="2.13"/>
    <line x1="288.42" y1="163.34" x2="372.86" y2="163.34" fill="none" stroke="#fff" stroke-linecap="round" stroke-miterlimit="10" stroke-width="2.13"/>
    <line x1="390.33" y1="172.13" x2="473.43" y2="172.13" fill="none" stroke="#fff" stroke-linecap="round" stroke-miterlimit="10" stroke-width="2.13"/>
    <line x1="390.33" y1="180.79" x2="470.01" y2="180.79" fill="none" stroke="#fff" stroke-linecap="round" stroke-miterlimit="10" stroke-width="2.13"/>
    <line x1="390.33" y1="137.34" x2="477.35" y2="137.34" fill="none" stroke="#fff" stroke-linecap="round" stroke-miterlimit="10" stroke-width="2.13"/>
    <line x1="390.33" y1="146" x2="458.74" y2="146" fill="none" stroke="#fff" stroke-linecap="round" stroke-miterlimit="10" stroke-width="2.13"/>
    <line x1="390.33" y1="154.67" x2="475.39" y2="154.67" fill="none" stroke="#fff" stroke-linecap="round" stroke-miterlimit="10" stroke-width="2.13"/>
    <line x1="390.33" y1="163.34" x2="469.03" y2="163.34" fill="none" stroke="#fff" stroke-linecap="round" stroke-miterlimit="10" stroke-width="2.13"/>
  </g>
</svg>