<?xml version="1.0" encoding="UTF-8"?>
<svg xmlns="http://www.w3.org/2000/svg" viewBox="0 0 471.19 250">
  <g id="Hintergrund">
    <rect x="-64.47" y="-.88" width="600" height="250" fill="#f3f5fa"/>
  </g>
  <g id="Graphic">
    <line x1="204" y1="211.83" x2="50.38" y2="211.83" fill="none" stroke="#c0c1c3" stroke-linecap="round" stroke-miterlimit="10" stroke-width=".85"/>
    <line x1="204" y1="195.65" x2="50.38" y2="195.65" fill="none" stroke="#c0c1c3" stroke-linecap="round" stroke-miterlimit="10" stroke-width=".57"/>
    <line x1="204" y1="179.47" x2="50.38" y2="179.47" fill="none" stroke="#c0c1c3" stroke-linecap="round" stroke-miterlimit="10" stroke-width=".57"/>
    <line x1="204" y1="163.29" x2="50.38" y2="163.29" fill="none" stroke="#c0c1c3" stroke-linecap="round" stroke-miterlimit="10" stroke-width=".57"/>
    <line x1="204" y1="147.11" x2="50.38" y2="147.11" fill="none" stroke="#c0c1c3" stroke-linecap="round" stroke-miterlimit="10" stroke-width=".57"/>
    <line x1="204" y1="130.93" x2="50.38" y2="130.93" fill="none" stroke="#c0c1c3" stroke-linecap="round" stroke-miterlimit="10" stroke-width=".57"/>
    <line x1="204" y1="114.75" x2="50.38" y2="114.75" fill="none" stroke="#c0c1c3" stroke-linecap="round" stroke-miterlimit="10" stroke-width=".57"/>
    <line x1="204" y1="98.57" x2="50.38" y2="98.57" fill="none" stroke="#c0c1c3" stroke-linecap="round" stroke-miterlimit="10" stroke-width=".57"/>
    <line x1="204" y1="82.22" x2="50.38" y2="82.22" fill="none" stroke="#c0c1c3" stroke-linecap="round" stroke-miterlimit="10" stroke-width=".57"/>
    <line x1="431.17" y1="211.83" x2="277.56" y2="211.83" fill="none" stroke="#c0c1c3" stroke-linecap="round" stroke-miterlimit="10" stroke-width=".85"/>
    <line x1="431.17" y1="179.47" x2="277.56" y2="179.47" fill="none" stroke="#c0c1c3" stroke-linecap="round" stroke-miterlimit="10" stroke-width=".57"/>
    <line x1="431.17" y1="147.11" x2="277.56" y2="147.11" fill="none" stroke="#c0c1c3" stroke-linecap="round" stroke-miterlimit="10" stroke-width=".57"/>
    <line x1="431.17" y1="114.75" x2="277.56" y2="114.75" fill="none" stroke="#c0c1c3" stroke-linecap="round" stroke-miterlimit="10" stroke-width=".57"/>
    <line x1="431.17" y1="82.22" x2="277.56" y2="82.22" fill="none" stroke="#c0c1c3" stroke-linecap="round" stroke-miterlimit="10" stroke-width=".57"/>
  </g>
  <g id="Text">
    <text transform="translate(47.7 58.45)" font-family="Ubuntu-Regular, Ubuntu" font-size="5.32"><tspan x="0" y="0">This is a title</tspan></text>
    <text transform="translate(47.7 224.56)" fill="#58585a" font-family="Ubuntu-Regular, Ubuntu" font-size="5.32"><tspan x="0" y="0">2020</tspan></text>
    <text transform="translate(188.8 224.56)" fill="#58585a" font-family="Ubuntu-Regular, Ubuntu" font-size="5.32"><tspan x="0" y="0">2022</tspan></text>
    <text transform="translate(32.46 116.04)" fill="#58585a" font-family="Ubuntu-Regular, Ubuntu" font-size="10"><tspan x="0" y="0">60</tspan></text>
    <text transform="translate(32.46 99.57)" fill="#58585a" font-family="Ubuntu-Regular, Ubuntu" font-size="10"><tspan x="0" y="0">70</tspan></text>
    <text transform="translate(32.46 82.23)" fill="#58585a" font-family="Ubuntu-Regular, Ubuntu" font-size="10"><tspan x="0" y="0">80</tspan></text>
    <text transform="translate(32.46 132.94)" fill="#58585a" font-family="Ubuntu-Regular, Ubuntu" font-size="10"><tspan x="0" y="0">50</tspan></text>
    <text transform="translate(32.46 148.55)" fill="#58585a" font-family="Ubuntu-Regular, Ubuntu" font-size="10"><tspan x="0" y="0">40</tspan></text>
    <text transform="translate(32.46 164.15)" fill="#58585a" font-family="Ubuntu-Regular, Ubuntu" font-size="10"><tspan x="0" y="0">30</tspan></text>
    <text transform="translate(32.46 179.75)" fill="#58585a" font-family="Ubuntu-Regular, Ubuntu" font-size="10"><tspan x="0" y="0">20</tspan></text>
    <text transform="translate(32.46 195.35)" fill="#58585a" font-family="Ubuntu-Regular, Ubuntu" font-size="10"><tspan x="0" y="0">10</tspan></text>
    <text transform="translate(38.1 210.96)" fill="#58585a" font-family="Ubuntu-Regular, Ubuntu" font-size="10"><tspan x="0" y="0">0</tspan></text>
    <text transform="translate(274.87 51.25)" font-family="Ubuntu-Bold, Ubuntu" font-size="13"><tspan x="0" y="0">This is a title</tspan></text>
    <text transform="translate(47.7 69.55)" font-family="Ubuntu-Bold, Ubuntu" font-size="5.32"><tspan x="0" y="0">This is a subtitle</tspan></text>
    <text transform="translate(274.87 65.45)" font-family="Ubuntu-Regular, Ubuntu" font-size="10"><tspan x="0" y="0">This is a subtitle</tspan></text>
    <text transform="translate(276.6 224.56)" fill="#58585a" font-family="Ubuntu-Regular, Ubuntu" font-size="8"><tspan x="0" y="0">2020</tspan></text>
    <text transform="translate(411.92 224.56)" fill="#58585a" font-family="Ubuntu-Regular, Ubuntu" font-size="8"><tspan x="0" y="0">2022</tspan></text>
    <text transform="translate(262.46 117.33)" fill="#58585a" font-family="Ubuntu-Regular, Ubuntu" font-size="8"><tspan x="0" y="0">60</tspan></text>
    <text transform="translate(262.46 84.09)" fill="#58585a" font-family="Ubuntu-Regular, Ubuntu" font-size="8"><tspan x="0" y="0">80</tspan></text>
    <text transform="translate(262.46 149.55)" fill="#58585a" font-family="Ubuntu-Regular, Ubuntu" font-size="8"><tspan x="0" y="0">40</tspan></text>
    <text transform="translate(262.46 182.18)" fill="#58585a" font-family="Ubuntu-Regular, Ubuntu" font-size="8"><tspan x="0" y="0">20</tspan></text>
    <text transform="translate(266.97 211.96)" fill="#58585a" font-family="Ubuntu-Regular, Ubuntu" font-size="8"><tspan x="0" y="0">0</tspan></text>
    <path d="M51.65,211.02s4.77-.6,4.77-2.38,3.58-2.98,3.58-2.98c3.58-4.77,6.56-5.37,5.96-7.75-.6-2.38,1.19-8.94,1.19-10.73s3.58-5.37,3.58-7.15,1.79-5.96,2.38-7.75c.6-1.79,2.98-2.38,3.58-.6,.6,1.79,1.19,4.77,2.38,6.56,1.19,1.79,3.58,7.15,3.58,7.15,3.58-1.79,5.37-7.15,5.37-9.54s0-5.37,.6-6.56c.6-1.19,2.98-5.37,3.58-6.56,.6-1.19,2.38,.6,4.17-1.19s4.17-4.77,4.17-5.96,4.77-.6,4.77-3.58,3.58-6.56,4.17-6.56,3.58,5.96,3.58,5.96c0,0,1.79,6.56,2.38,7.15s2.38,6.56,2.38,6.56c2.98-3.58,4.77-6.56,4.77-6.56l1.19-5.37s4.77-5.96,4.17-7.75,1.79-4.77,1.79-5.96,2.38-3.58,2.38-5.37,1.19-2.98,1.79-5.37c.6-2.38,3.58-5.37,3.58-5.37l3.58-5.37,1.79-4.77,5.37-5.37s2.98-3.58,2.38-5.37c-.6-1.79,1.19-3.58,1.79-5.37,.6-1.79,2.98-3.58,4.77-1.79s4.77,.6,4.77,.6c0,0,7.15,.6,7.75,3.58,.6,2.98,2.38,7.15,2.38,7.15,0,0,1.79,4.17,1.79,5.37s.6,4.77,.6,4.77l.6,8.94s0,4.17,.6,6.56c.6,2.38,0,5.37,1.19,8.35s4.77,2.98,5.37,1.19c.6-1.79,1.79-4.77,1.79-4.77,0,0,3.58,.6,4.17-.6,.6-1.19,1.19-5.37,1.19-5.37l4.17-2.98,4.17-2.38,4.77,2.38" fill="none" stroke="#039" stroke-miterlimit="10"/>
    <path d="M277.61,211.02s4.77-.6,4.77-2.38,3.58-2.98,3.58-2.98c3.58-4.77,6.56-5.37,5.96-7.75-.6-2.38,1.19-8.94,1.19-10.73s3.58-5.37,3.58-7.15,1.79-5.96,2.38-7.75,2.98-2.38,3.58-.6c.6,1.79,1.19,4.77,2.38,6.56s3.58,7.15,3.58,7.15c3.58-1.79,5.37-7.15,5.37-9.54s0-5.37,.6-6.56,2.98-5.37,3.58-6.56c.6-1.19,2.38,.6,4.17-1.19,1.79-1.79,4.17-4.77,4.17-5.96s4.77-.6,4.77-3.58,3.58-6.56,4.17-6.56,3.58,5.96,3.58,5.96c0,0,1.79,6.56,2.38,7.15,.6,.6,2.38,6.56,2.38,6.56,2.98-3.58,4.77-6.56,4.77-6.56l1.19-5.37s4.77-5.96,4.17-7.75,1.79-4.77,1.79-5.96,2.38-3.58,2.38-5.37,1.19-2.98,1.79-5.37c.6-2.38,3.58-5.37,3.58-5.37l3.58-5.37,1.79-4.77,5.37-5.37s2.98-3.58,2.38-5.37,1.19-3.58,1.79-5.37,2.98-3.58,4.77-1.79c1.79,1.79,4.77,.6,4.77,.6,0,0,7.15,.6,7.75,3.58,.6,2.98,2.38,7.15,2.38,7.15,0,0,1.79,4.17,1.79,5.37s.6,4.77,.6,4.77l.6,8.94s0,4.17,.6,6.56c.6,2.38,0,5.37,1.19,8.35s4.77,2.98,5.37,1.19c.6-1.79,1.79-4.77,1.79-4.77,0,0,3.58,.6,4.17-.6,.6-1.19,1.19-5.37,1.19-5.37l4.17-2.98,4.17-2.38,4.77,2.38" fill="none" stroke="#039" stroke-miterlimit="10" stroke-width="2"/>
    <rect x="263.25" y="22.26" width="29.87" height=".94" fill="#039"/>
    <rect x="33.39" y="22.26" width="20.64" height=".94" fill="#039"/>
    <text transform="translate(263.43 19.85)" font-family="Ubuntu-Bold, Ubuntu" font-size="10"><tspan x="0" y="0">GOOD</tspan></text>
    <text transform="translate(32.57 19.85)" font-family="Ubuntu-Bold, Ubuntu" font-size="10"><tspan x="0" y="0" letter-spacing="0em">B</tspan><tspan x="6.62" y="0">AD</tspan></text>
  </g>
</svg>