<?xml version="1.0" encoding="UTF-8"?>
<svg xmlns="http://www.w3.org/2000/svg" viewBox="0 0 600 250">
  <g id="Hintergrund">
    <rect y="-.88" width="600" height="250" fill="rgba(214, 222, 239, .4)"/>
  </g>
  <g id="Graphic">
    <line x1="396.95" y1="216.26" x2="195.34" y2="216.26" fill="none" stroke="#c0c1c3" stroke-linecap="round" stroke-miterlimit="10" stroke-width=".85"/>
    <line x1="396.95" y1="173.73" x2="195.34" y2="173.73" fill="none" stroke="#c0c1c3" stroke-linecap="round" stroke-miterlimit="10" stroke-width=".57"/>
    <line x1="396.95" y1="131.21" x2="195.34" y2="131.21" fill="none" stroke="#c0c1c3" stroke-linecap="round" stroke-miterlimit="10" stroke-width=".57"/>
    <line x1="396.95" y1="88.69" x2="195.34" y2="88.69" fill="none" stroke="#c0c1c3" stroke-linecap="round" stroke-miterlimit="10" stroke-width=".57"/>
    <line x1="396.95" y1="46.16" x2="195.34" y2="46.16" fill="none" stroke="#c0c1c3" stroke-linecap="round" stroke-miterlimit="10" stroke-width=".57"/>
  </g>
  <g id="Text">
    <text transform="translate(194.29 232.96)" fill="#58585a" font-family="Ubuntu-Regular, Ubuntu" font-size="10"><tspan x="0" y="0">2020</tspan></text>
    <text transform="translate(373.98 232.96)" fill="#58585a" font-family="Ubuntu-Regular, Ubuntu" font-size="10"><tspan x="0" y="0">2022</tspan></text>
    <text transform="translate(175.34 92.03)" fill="#58585a" font-family="Ubuntu-Regular, Ubuntu" font-size="10"><tspan x="0" y="0">60</tspan></text>
    <text transform="translate(175.34 49.64)" fill="#58585a" font-family="Ubuntu-Regular, Ubuntu" font-size="10"><tspan x="0" y="0">80</tspan></text>
    <text transform="translate(175.34 133.2)" fill="#58585a" font-family="Ubuntu-Regular, Ubuntu" font-size="10"><tspan x="0" y="0">40</tspan></text>
    <text transform="translate(175.34 176.3)" fill="#58585a" font-family="Ubuntu-Regular, Ubuntu" font-size="10"><tspan x="0" y="0">20</tspan></text>
    <text transform="translate(180.98 219.65)" fill="#58585a" font-family="Ubuntu-Regular, Ubuntu" font-size="10"><tspan x="0" y="0">0</tspan></text>
    <g>
      <path d="M283.91,111.4c-7.8,0-11.58-31.42-18.09-9.03-1.09,3.76-6.26,3.13-6.26,4.69-1.81,7.95-13.77,9.08-15.65,17.99-11.99,39.77-12.24-7.63-20.34,3.92-8.18,16.11-16.28,49.12-28.17,50.86v34.17c11.9-1.74,24.83-8.29,30.08-46.38,1.93-13.97,11.16,30.4,23.15-9.37,1.88-8.92,.29-10.77,6.06-16.54,4.96-4.96,9.37,0,11.12-5.17,7.48-22.09,11.4,12.33,19.2,12.33,2.99,0,5.98-4.83,10.22-13.22v-50.63c-5.63,13.96-7.75,26.37-11.33,26.37Z" fill="#b2c2e0"/>
      <path d="M369.1,82.81c-1.13-.47-2.11,13.49-3.28,4.69-4.19-31.22-8.42-59.21-31.19-55.48-9.63,1.58-12.49,18.23-20.95,25.36-.42,.36-.83,.72-1.24,1.09v43.57c.41-.73,.82-1.47,1.24-2.22,5.45-9.63,11.32-35.91,20.95-37.48,22.78-3.73,11.65,20.29,19.84,50.71,3.86,14.33,10.72,4.89,14.88,.55,6.12-6.37,8.77-18.71,24.01-8.36v-34.17c-15.24-10.35-15.88,14.54-24.25,11.74Z" fill="#b2c2e0"/>
    </g>
    <path d="M312.77,74.44l2.35-6.26,7.04-7.04s3.91-4.69,3.13-7.04c-.78-2.35,1.56-4.69,2.35-7.04,.78-2.35,3.91-4.69,6.26-2.35,2.35,2.35,6.26,.78,6.26,.78,0,0,9.39,.78,10.17,4.69,.78,3.91,3.13,9.39,3.13,9.39,0,0,2.35,5.48,2.35,7.04s.78,6.26,.78,6.26l.78,11.74s0,5.48,.78,8.61c.78,3.13,0,7.04,1.56,10.95,1.56,3.91,6.26,3.91,7.04,1.56s2.35-6.26,2.35-6.26c0,0,4.69,.78,5.48-.78s1.56-7.04,1.56-7.04l5.48-3.91,5.48-3.13,6.26,3.13" fill="none" stroke="#039" stroke-miterlimit="10" stroke-width="2"/>
    <path d="M195.4,196.49s6.26-.78,6.26-3.13,4.69-3.91,4.69-3.91c4.69-6.26,8.61-7.04,7.82-10.17-.78-3.13,1.56-11.74,1.56-14.08s4.69-7.04,4.69-9.39,2.35-7.82,3.13-10.17c.78-2.35,3.91-3.13,4.69-.78,.78,2.35,1.56,6.26,3.13,8.61,1.56,2.35,4.69,9.39,4.69,9.39,4.69-2.35,7.04-9.39,7.04-12.52s0-7.04,.78-8.61c.78-1.56,3.91-7.04,4.69-8.61,.78-1.56,3.13,.78,5.48-1.56,2.35-2.35,5.48-6.26,5.48-7.82s6.26-.78,6.26-4.69,4.69-8.61,5.48-8.61,4.69,7.82,4.69,7.82c0,0,2.35,8.61,3.13,9.39s3.13,8.61,3.13,8.61c3.91-4.69,6.26-8.61,6.26-8.61l1.56-7.04s5.07-6.27,4.29-8.62" fill="none" stroke="#039" stroke-miterlimit="10" stroke-width="2"/>
    <line x1="192.93" y1="199.04" x2="390.31" y2="38.6" fill="none" stroke="#039" stroke-dasharray="0 0 8.5 11.34" stroke-linecap="round" stroke-miterlimit="10" stroke-width="2"/>
  </g>
</svg>