<?xml version="1.0" encoding="UTF-8"?>
<svg xmlns="http://www.w3.org/2000/svg" viewBox="0 0 600 250">
  <g id="Hintergrund">
    <rect y="-.88" width="600" height="250" fill="rgba(214, 222, 239, .4)"/>
  </g>
  <g id="Text">
    <text transform="translate(129.9 223.12) rotate(-90)" font-family="Ubuntu-Regular, Ubuntu" font-size="10"><tspan x="0" y="0" letter-spacing="-.01em">C</tspan><tspan x="6.05" y="0">ount</tspan><tspan x="27.45" y="0" letter-spacing=".02em">r</tspan><tspan x="31.52" y="0">y A</tspan></text>
    <text transform="translate(165.7 222.92) rotate(-90)" font-family="Ubuntu-Regular, Ubuntu" font-size="10"><tspan x="0" y="0" letter-spacing="-.01em">C</tspan><tspan x="6.05" y="0">ount</tspan><tspan x="27.45" y="0" letter-spacing=".02em">r</tspan><tspan x="31.52" y="0">y B</tspan></text>
    <text transform="translate(201.83 222.69) rotate(-90)" font-family="Ubuntu-Regular, Ubuntu" font-size="10"><tspan x="0" y="0" letter-spacing="-.01em">C</tspan><tspan x="6.05" y="0">ount</tspan><tspan x="27.45" y="0" letter-spacing=".02em">r</tspan><tspan x="31.52" y="0">y C</tspan></text>
    <text transform="translate(325.07 99.25)" fill="#1a181b" font-family="Ubuntu-Regular, Ubuntu" font-size="10"><tspan x="0" y="0" letter-spacing="-.02em">C</tspan><tspan x="6.05" y="0">ount</tspan><tspan x="27.45" y="0" letter-spacing=".02em">r</tspan><tspan x="31.52" y="0">y A</tspan></text>
    <text transform="translate(325.21 128.21)" fill="#1a181b" font-family="Ubuntu-Regular, Ubuntu" font-size="10"><tspan x="0" y="0" letter-spacing="-.02em">C</tspan><tspan x="6.05" y="0">ount</tspan><tspan x="27.45" y="0" letter-spacing=".02em">r</tspan><tspan x="31.52" y="0">y B</tspan></text>
    <text transform="translate(325.38 157.76)" fill="#1a181b" font-family="Ubuntu-Regular, Ubuntu" font-size="10"><tspan x="0" y="0" letter-spacing="-.02em">C</tspan><tspan x="6.05" y="0">ount</tspan><tspan x="27.45" y="0" letter-spacing=".02em">r</tspan><tspan x="31.52" y="0">y C</tspan></text>
    <g>
      <g>
        <text transform="translate(99.81 168.12)" fill="#58585a" font-family="Ubuntu-Regular, Ubuntu" font-size="8"><tspan x="0" y="0">0</tspan></text>
        <text transform="translate(95.3 146.46)" fill="#58585a" font-family="Ubuntu-Regular, Ubuntu" font-size="8"><tspan x="0" y="0">20</tspan></text>
        <text transform="translate(95.3 124.81)" fill="#58585a" font-family="Ubuntu-Regular, Ubuntu" font-size="8"><tspan x="0" y="0">40</tspan></text>
        <text transform="translate(95.3 103.15)" fill="#58585a" font-family="Ubuntu-Regular, Ubuntu" font-size="8"><tspan x="0" y="0">60</tspan></text>
        <text transform="translate(95.3 81.49)" fill="#58585a" font-family="Ubuntu-Regular, Ubuntu" font-size="8"><tspan x="0" y="0">80</tspan></text>
      </g>
      <g>
        <line x1="106.37" y1="144.69" x2="225.52" y2="144.69" fill="none" stroke="#c0c1c3" stroke-linecap="round" stroke-miterlimit="10" stroke-width=".57"/>
        <line x1="106.37" y1="123.03" x2="225.52" y2="123.03" fill="none" stroke="#c0c1c3" stroke-linecap="round" stroke-miterlimit="10" stroke-width=".57"/>
        <line x1="106.37" y1="101.38" x2="225.52" y2="101.38" fill="none" stroke="#c0c1c3" stroke-linecap="round" stroke-miterlimit="10" stroke-width=".57"/>
        <line x1="106.37" y1="79.72" x2="225.52" y2="79.72" fill="none" stroke="#c0c1c3" stroke-linecap="round" stroke-miterlimit="10" stroke-width=".57"/>
        <line x1="106.37" y1="166.34" x2="225.52" y2="166.34" fill="none" stroke="#c0c1c3" stroke-linecap="round" stroke-miterlimit="10" stroke-width=".85"/>
      </g>
    </g>
    <g>
      <rect x="119.33" y="79.72" width="18.98" height="86.62" fill="#039"/>
      <rect x="154.32" y="90.55" width="18.98" height="75.79" fill="#039"/>
      <rect x="188.25" y="123.03" width="18.98" height="43.31" fill="#039"/>
    </g>
    <g>
      <text transform="translate(375.04 76.84)" fill="#58585a" font-family="Ubuntu-Regular, Ubuntu" font-size="8"><tspan x="0" y="0">0</tspan></text>
      <text transform="translate(401.66 76.84)" fill="#58585a" font-family="Ubuntu-Regular, Ubuntu" font-size="8"><tspan x="0" y="0">20</tspan></text>
      <text transform="translate(428.96 76.84)" fill="#58585a" font-family="Ubuntu-Regular, Ubuntu" font-size="8"><tspan x="0" y="0">40</tspan></text>
      <text transform="translate(457.79 76.84)" fill="#58585a" font-family="Ubuntu-Regular, Ubuntu" font-size="8"><tspan x="0" y="0">60</tspan></text>
      <text transform="translate(486.3 76.84)" fill="#58585a" font-family="Ubuntu-Regular, Ubuntu" font-size="8"><tspan x="0" y="0">80</tspan></text>
      <g>
        <line x1="406.02" y1="82.77" x2="406.02" y2="165.7" fill="none" stroke="#c0c1c3" stroke-linecap="round" stroke-miterlimit="10" stroke-width=".57"/>
        <line x1="434.21" y1="82.77" x2="434.21" y2="165.7" fill="none" stroke="#c0c1c3" stroke-linecap="round" stroke-miterlimit="10" stroke-width=".57"/>
        <line x1="462.4" y1="82.77" x2="462.4" y2="165.7" fill="none" stroke="#c0c1c3" stroke-linecap="round" stroke-miterlimit="10" stroke-width=".57"/>
        <line x1="490.58" y1="82.77" x2="490.58" y2="165.7" fill="none" stroke="#c0c1c3" stroke-linecap="round" stroke-miterlimit="10" stroke-width=".57"/>
        <line x1="377.84" y1="82.77" x2="377.84" y2="165.7" fill="none" stroke="#c0c1c3" stroke-linecap="round" stroke-miterlimit="10" stroke-width=".85"/>
      </g>
    </g>
    <g>
      <rect x="377.84" y="87" width="112.74" height="18.98" fill="#039"/>
      <rect x="377.84" y="114.8" width="98.65" height="18.98" fill="#039"/>
      <rect x="377.84" y="142.95" width="56.37" height="18.98" fill="#039"/>
    </g>
    <rect x="324.8" y="22.65" width="29.87" height=".94" fill="#039"/>
    <rect x="96.1" y="23.6" width="20.64" height=".94" fill="#039"/>
    <text transform="translate(324.98 20.24)" font-family="Ubuntu-Bold, Ubuntu" font-size="10"><tspan x="0" y="0">GOOD</tspan></text>
    <text transform="translate(95.28 21.19)" font-family="Ubuntu-Bold, Ubuntu" font-size="10"><tspan x="0" y="0" letter-spacing="0em">B</tspan><tspan x="6.62" y="0">AD</tspan></text>
  </g>
</svg>