<?xml version="1.0" encoding="UTF-8"?>
<svg id="Text" xmlns="http://www.w3.org/2000/svg" viewBox="0 0 600 250">
  <rect x="0" y="0" width="600" height="250" fill="#f3f5fa"/>
  <line x1="395.51" y1="188.11" x2="189.21" y2="188.11" fill="none" stroke="#58585a" stroke-linecap="round" stroke-miterlimit="10" stroke-width=".57"/>
  <line x1="395.51" y1="102.32" x2="189.21" y2="102.32" fill="none" stroke="#58585a" stroke-linecap="round" stroke-miterlimit="10" stroke-width=".57"/>
  <line x1="395.51" y1="145.78" x2="189.21" y2="145.78" fill="none" stroke="#58585a" stroke-linecap="round" stroke-miterlimit="10" stroke-width=".57"/>
  <line x1="395.51" y1="58.86" x2="189.21" y2="58.87" fill="none" stroke="#58585a" stroke-linecap="round" stroke-miterlimit="10" stroke-width=".57"/>
  <line x1="189.24" y1="204.72" x2="213.39" y2="204.72" fill="none" stroke="#1a181b" stroke-linecap="round" stroke-miterlimit="10" stroke-width=".57"/>
  <text transform="translate(364.51 202.56)" font-family="Ubuntu-Regular, Ubuntu" font-size="8"><tspan x="0" y="0" letter-spacing="-.02em">A</tspan><tspan x="5.18" y="0" letter-spacing="0em">uthor</tspan></text>
  <text transform="translate(188.85 202.56)" font-family="Ubuntu-Regular, Ubuntu" font-size="8"><tspan x="0" y="0">Source</tspan></text>
  <text transform="translate(189.57 226.37)" font-family="Ubuntu-Regular, Ubuntu" font-size="8"><tspan x="0" y="0">Reuse Liscence</tspan></text>
  <path d="M197.68,188.3s6.1-.77,6.1-3.08,4.58-3.86,4.58-3.86c4.58-6.17,8.39-6.94,7.63-10.02s1.53-11.57,1.53-13.88,4.58-6.94,4.58-9.25,2.29-7.71,3.05-10.02c.76-2.31,3.81-3.08,4.58-.77,.76,2.31,1.53,6.17,3.05,8.48,1.53,2.31,4.58,9.25,4.58,9.25,4.58-2.31,6.86-9.25,6.86-12.34s0-6.94,.76-8.48,3.81-6.94,4.58-8.48c.76-1.54,3.05,.77,5.34-1.54,2.29-2.31,5.34-6.17,5.34-7.71s6.1-.77,6.1-4.63,4.58-8.48,5.34-8.48,4.58,7.71,4.58,7.71c0,0,2.29,8.48,3.05,9.25,.76,.77,3.05,8.48,3.05,8.48,3.81-4.63,6.1-8.48,6.1-8.48l1.53-6.94s6.1-7.71,5.34-10.02c-.76-2.31,2.29-6.17,2.29-7.71s3.05-4.63,3.05-6.94,1.53-3.86,2.29-6.94c.76-3.08,4.58-6.94,4.58-6.94l4.58-6.94,2.29-6.17,6.86-6.94s3.81-4.63,3.05-6.94c-.76-2.31,1.53-4.63,2.29-6.94s3.81-4.63,6.1-2.31c2.29,2.31,6.1,.77,6.1,.77,0,0,9.15,.77,9.91,4.63,.76,3.86,3.05,9.25,3.05,9.25,0,0,2.29,5.4,2.29,6.94s.76,6.17,.76,6.17l.76,11.57s0,5.4,.76,8.48,0,6.94,1.53,10.8c1.53,3.86,6.1,3.86,6.86,1.54,.76-2.31,2.29-6.17,2.29-6.17,0,0,4.58,.77,5.34-.77,.76-1.54,1.53-6.94,1.53-6.94l5.34-3.86,5.34-3.08,6.1,3.08v106.75s-192.95-.34-192.95,.43Z" fill="#6685c2"/>
</svg>