<?xml version="1.0" encoding="UTF-8"?>
<svg xmlns="http://www.w3.org/2000/svg" viewBox="0 0 471.19 250">
  <g id="Hintergrund">
    <rect x="-63.97" y="-1.69" width="600" height="250" fill="#f3f5fa"/>
  </g>
  <g id="Text">
    <rect x="261.26" y="23.99" width="29.87" height=".94" fill="#039"/>
    <rect x="31.46" y="23.84" width="20.64" height=".94" fill="#039"/>
    <text transform="translate(261.44 21.59)" font-family="Ubuntu-Bold, Ubuntu" font-size="10"><tspan x="0" y="0">GOOD</tspan></text>
    <text transform="translate(30.64 21.43)" font-family="Ubuntu-Bold, Ubuntu" font-size="10"><tspan x="0" y="0" letter-spacing="0em">B</tspan><tspan x="6.62" y="0">AD</tspan></text>
    <ellipse cx="106.57" cy="132.95" rx="46.51" ry="47.43" fill="#ff9433"/>
    <g>
      <rect x="51.75" y="77.54" width="109.16" height="111.34" fill="none"/>
      <path d="M139.35,99.54c8.45,8.62,13.67,20.52,13.67,33.67,0,26.3-20.9,47.62-46.69,47.62s-46.69-21.32-46.69-47.62,20.9-47.62,46.69-47.62v47.62l33.01-33.67Z" fill="#80de85"/>
    </g>
    <ellipse cx="336.5" cy="131.18" rx="46.51" ry="47.43" fill="#039"/>
    <g>
      <rect x="281.68" y="75.77" width="109.16" height="111.34" fill="none"/>
      <path d="M369.28,97.77c8.45,8.62,13.67,20.52,13.67,33.67,0,26.3-20.9,47.62-46.69,47.62s-46.69-21.32-46.69-47.62,20.9-47.62,46.69-47.62v47.62l33.01-33.67Z" fill="#b2c2e0"/>
    </g>
  </g>
</svg>