<?xml version="1.0" encoding="UTF-8"?>
<svg xmlns="http://www.w3.org/2000/svg" viewBox="0 0 600 300">
  <g id="Graphic">
    <rect y="0" width="600" height="300" fill="#e8e2e4"/>
  </g>
  <g id="Text">
    <g>
      <line x1="416.96" y1="238.67" x2="212.49" y2="238.67" fill="none" stroke="#000" stroke-miterlimit="10"/>
      <line x1="416.96" y1="195.54" x2="212.49" y2="195.54" fill="none" stroke="#000" stroke-miterlimit="10"/>
      <line x1="416.96" y1="152.41" x2="212.49" y2="152.41" fill="none" stroke="#000" stroke-miterlimit="10"/>
      <line x1="416.96" y1="109.28" x2="212.49" y2="109.29" fill="none" stroke="#000" stroke-miterlimit="10"/>
      <line x1="416.96" y1="66.16" x2="212.49" y2="66.16" fill="none" stroke="#000" stroke-miterlimit="10"/>
      <g>
        <path d="M211.82,254.96c.73-.53,1.73-1.35,2.66-2.25,.89-.89,1.23-1.56,1.23-2.43,0-.97-.54-1.53-1.48-1.53s-1.53,.56-1.53,1.44c0,.19,.03,.41,.08,.68l-.79-.07c-.05-.2-.07-.41-.07-.62,0-1.3,.88-2.11,2.35-2.11s2.25,.8,2.25,2.2c0,1.01-.49,1.89-1.55,2.91-.62,.61-1.33,1.2-2.1,1.73h3.77v.7h-4.82v-.65Z"/>
        <path d="M217.61,251.91c0-2.36,.98-3.84,2.8-3.84s2.79,1.49,2.79,3.85-.97,3.84-2.79,3.84-2.8-1.49-2.8-3.85Zm4.82,.01c0-1.96-.68-3.2-2.02-3.2s-2.02,1.22-2.02,3.19,.68,3.2,2.02,3.2,2.02-1.22,2.02-3.19Z"/>
        <path d="M224.19,254.96c.73-.53,1.73-1.35,2.66-2.25,.89-.89,1.23-1.56,1.23-2.43,0-.97-.54-1.53-1.48-1.53s-1.53,.56-1.53,1.44c0,.19,.03,.41,.08,.68l-.79-.07c-.05-.2-.07-.41-.07-.62,0-1.3,.88-2.11,2.35-2.11s2.25,.8,2.25,2.2c0,1.01-.49,1.89-1.55,2.91-.62,.61-1.33,1.2-2.1,1.73h3.77v.7h-4.82v-.65Z"/>
        <path d="M229.98,251.91c0-2.36,.98-3.84,2.8-3.84s2.79,1.49,2.79,3.85-.97,3.84-2.79,3.84-2.8-1.49-2.8-3.85Zm4.82,.01c0-1.96-.68-3.2-2.02-3.2s-2.02,1.22-2.02,3.19,.68,3.2,2.02,3.2,2.02-1.22,2.02-3.19Z"/>
      </g>
      <g>
        <path d="M394.07,254.96c.73-.53,1.73-1.35,2.66-2.25,.89-.89,1.23-1.56,1.23-2.43,0-.97-.54-1.53-1.48-1.53s-1.53,.56-1.53,1.44c0,.19,.03,.41,.08,.68l-.79-.07c-.05-.2-.07-.41-.07-.62,0-1.3,.88-2.11,2.35-2.11s2.25,.8,2.25,2.2c0,1.01-.49,1.89-1.55,2.91-.62,.61-1.33,1.2-2.1,1.73h3.77v.7h-4.82v-.65Z"/>
        <path d="M399.86,251.91c0-2.36,.98-3.84,2.8-3.84s2.79,1.49,2.79,3.85-.97,3.84-2.79,3.84-2.8-1.49-2.8-3.85Zm4.82,.01c0-1.96-.68-3.2-2.02-3.2s-2.02,1.22-2.02,3.19,.68,3.2,2.02,3.2,2.02-1.22,2.02-3.19Z"/>
        <path d="M406.44,254.96c.73-.53,1.73-1.35,2.66-2.25,.89-.89,1.23-1.56,1.23-2.43,0-.97-.54-1.53-1.48-1.53s-1.53,.56-1.53,1.44c0,.19,.03,.41,.08,.68l-.79-.07c-.05-.2-.07-.41-.07-.62,0-1.3,.88-2.11,2.35-2.11s2.25,.8,2.25,2.2c0,1.01-.49,1.89-1.55,2.91-.62,.61-1.33,1.2-2.1,1.73h3.77v.7h-4.82v-.65Z"/>
        <path d="M412.2,254.96c.73-.53,1.73-1.35,2.66-2.25,.89-.89,1.23-1.56,1.23-2.43,0-.97-.54-1.53-1.48-1.53s-1.53,.56-1.53,1.44c0,.19,.03,.41,.08,.68l-.79-.07c-.05-.2-.07-.41-.07-.62,0-1.3,.88-2.11,2.35-2.11s2.25,.8,2.25,2.2c0,1.01-.49,1.89-1.55,2.91-.62,.61-1.33,1.2-2.1,1.73h3.77v.7h-4.82v-.65Z"/>
      </g>
      <g>
        <path d="M196.46,110.28c0,1.52-.98,2.56-2.41,2.56-1.75,0-2.66-1.26-2.66-3.71s.98-3.99,2.72-3.99c1.23,0,2.02,.65,2.24,1.85l-.79,.16c-.18-.9-.66-1.35-1.46-1.35-1.27,0-1.95,1.13-1.94,3.25,.32-.81,1.05-1.3,2.01-1.3,1.38,0,2.29,1,2.29,2.53Zm-.79,.01c0-1.16-.64-1.88-1.66-1.88-.91,0-1.57,.63-1.82,1.7,.16,1.3,.84,2.07,1.86,2.07s1.61-.74,1.61-1.89Z"/>
        <path d="M197.47,108.98c0-2.36,.98-3.84,2.8-3.84s2.79,1.49,2.79,3.85-.97,3.84-2.79,3.84-2.8-1.49-2.8-3.85Zm4.82,.01c0-1.96-.68-3.2-2.02-3.2s-2.02,1.22-2.02,3.19,.68,3.2,2.02,3.2,2.02-1.22,2.02-3.19Z"/>
      </g>
      <g>
        <path d="M196.44,67.75c0,1.27-1,2.09-2.57,2.09s-2.62-.79-2.62-2.05c0-1.02,.55-1.69,1.61-1.99-.95-.37-1.35-.92-1.35-1.79,0-1.12,.93-1.87,2.34-1.87s2.33,.72,2.33,1.86c0,.88-.49,1.48-1.41,1.73,1.19,.39,1.68,1,1.68,2.02Zm-.78,0c0-.76-.44-1.21-1.43-1.51l-.66-.2c-1.07,.34-1.53,.84-1.53,1.64,0,.95,.71,1.54,1.83,1.54s1.79-.54,1.79-1.47Zm-2.03-2.36l.38,.12c1.03-.35,1.37-.73,1.37-1.48,0-.81-.58-1.3-1.56-1.3s-1.53,.49-1.53,1.27c0,.7,.39,1.1,1.34,1.38Z"/>
        <path d="M197.47,65.99c0-2.36,.98-3.84,2.8-3.84s2.79,1.49,2.79,3.86-.97,3.84-2.79,3.84-2.8-1.49-2.8-3.86Zm4.82,.01c0-1.96-.68-3.2-2.02-3.2s-2.02,1.22-2.02,3.19,.68,3.2,2.02,3.2,2.02-1.22,2.02-3.19Z"/>
      </g>
      <g>
        <path d="M195.26,152.5v1.93h-.73v-1.93h-3.53v-.54l3.4-4.91h.86v4.83h1.23v.62h-1.23Zm-.71-4.66h-.02c-.13,.31-.24,.5-.47,.83l-1.68,2.41c-.23,.36-.39,.58-.59,.81h2.74v-3.07c0-.5,0-.64,.02-.98Z"/>
        <path d="M197.47,150.74c0-2.36,.98-3.84,2.8-3.84s2.79,1.49,2.79,3.85-.97,3.84-2.79,3.84-2.8-1.49-2.8-3.85Zm4.82,.01c0-1.96-.68-3.2-2.02-3.2s-2.02,1.22-2.02,3.19,.68,3.2,2.02,3.2,2.02-1.22,2.02-3.19Z"/>
      </g>
      <g>
        <path d="M191.68,197.5c.73-.53,1.73-1.35,2.66-2.25,.89-.89,1.23-1.56,1.23-2.43,0-.97-.54-1.53-1.48-1.53s-1.53,.56-1.53,1.44c0,.19,.03,.41,.08,.68l-.79-.07c-.05-.2-.07-.41-.07-.62,0-1.3,.88-2.11,2.35-2.11s2.25,.8,2.25,2.2c0,1.01-.49,1.89-1.55,2.91-.62,.61-1.33,1.2-2.1,1.73h3.77v.7h-4.82v-.65Z"/>
        <path d="M197.47,194.45c0-2.36,.98-3.84,2.8-3.84s2.79,1.49,2.79,3.85-.97,3.84-2.79,3.84-2.8-1.49-2.8-3.85Zm4.82,.01c0-1.96-.68-3.2-2.02-3.2s-2.02,1.22-2.02,3.19,.68,3.2,2.02,3.2,2.02-1.22,2.02-3.19Z"/>
      </g>
      <path d="M197.47,233.81c0-2.36,.98-3.84,2.8-3.84s2.79,1.49,2.79,3.86-.97,3.84-2.79,3.84-2.8-1.49-2.8-3.86Zm4.82,.01c0-1.96-.68-3.2-2.02-3.2s-2.02,1.22-2.02,3.19,.68,3.2,2.02,3.2,2.02-1.22,2.02-3.19Z"/>
      <g>
        <path d="M302.32,132.32c-7.91,0-11.74-31.86-18.35-9.16-1.11,3.81-6.35,3.17-6.35,4.76-1.84,8.07-13.96,9.21-15.87,18.25-12.16,40.34-12.42-7.73-20.63,3.97-8.29,16.34-16.51,49.81-28.57,51.58v34.66c12.06-1.76,25.19-8.41,30.51-47.04,1.95-14.17,11.32,30.83,23.48-9.5,1.91-9.04,.3-10.92,6.15-16.77,5.03-5.03,9.5,0,11.28-5.24,7.59-22.4,11.56,12.51,19.47,12.51,3.03,0,6.07-4.9,10.37-13.41v-51.35c-5.71,14.15-7.86,26.74-11.49,26.74Z" fill="#fde5e9"/>
        <path d="M388.72,103.33c-1.15-.48-2.14,13.68-3.33,4.76-4.25-31.67-8.53-60.05-31.64-56.27-9.76,1.6-12.67,18.49-21.24,25.72-.43,.36-.85,.73-1.26,1.11v44.19c.42-.74,.83-1.49,1.26-2.25,5.53-9.76,11.48-36.41,21.24-38.01,23.1-3.78,11.82,20.58,20.12,51.43,3.91,14.53,10.87,4.96,15.09,.56,6.2-6.46,8.89-18.97,24.35-8.47v-34.66c-15.45-10.5-16.11,14.75-24.6,11.9Z" fill="#fde5e9"/>
      </g>
      <path d="M331.58,94.83l2.38-6.35,7.14-7.14s3.97-4.76,3.17-7.14c-.79-2.38,1.59-4.76,2.38-7.14,.79-2.38,3.97-4.76,6.35-2.38,2.38,2.38,6.35,.79,6.35,.79,0,0,9.52,.79,10.32,4.76,.79,3.97,3.17,9.52,3.17,9.52,0,0,2.38,5.55,2.38,7.14s.79,6.35,.79,6.35l.79,11.9s0,5.55,.79,8.73c.79,3.17,0,7.14,1.59,11.11,1.59,3.97,6.35,3.97,7.14,1.59,.79-2.38,2.38-6.35,2.38-6.35,0,0,4.76,.79,5.55-.79s1.59-7.14,1.59-7.14l5.55-3.97,5.55-3.17,6.35,3.17" fill="none" stroke="#f7a7b6" stroke-miterlimit="10" stroke-width="2.83"/>
      <path d="M212.55,218.62s6.35-.79,6.35-3.17,4.76-3.97,4.76-3.97c4.76-6.35,8.73-7.14,7.94-10.32-.79-3.17,1.59-11.9,1.59-14.28s4.76-7.14,4.76-9.52,2.38-7.94,3.17-10.32c.79-2.38,3.97-3.17,4.76-.79,.79,2.38,1.59,6.35,3.17,8.73,1.59,2.38,4.76,9.52,4.76,9.52,4.76-2.38,7.14-9.52,7.14-12.7s0-7.14,.79-8.73c.79-1.59,3.97-7.14,4.76-8.73,.79-1.59,3.17,.79,5.55-1.59,2.38-2.38,5.55-6.35,5.55-7.94s6.35-.79,6.35-4.76,4.76-8.73,5.55-8.73,4.76,7.94,4.76,7.94c0,0,2.38,8.73,3.17,9.52,.79,.79,3.17,8.73,3.17,8.73,3.97-4.76,6.35-8.73,6.35-8.73l1.59-7.14s5.14-6.36,4.35-8.74" fill="none" stroke="#f7a7b6" stroke-miterlimit="10" stroke-width="2.83"/>
      <line x1="210.04" y1="221.21" x2="410.22" y2="58.49" fill="none" stroke="#f7a7b6" stroke-dasharray="0 0 8.5 11.34" stroke-linecap="round" stroke-miterlimit="10" stroke-width="2.83"/>
    </g>
  </g>
</svg>