<?xml version="1.0" encoding="UTF-8"?>
<svg id="Graphic" xmlns="http://www.w3.org/2000/svg" viewBox="0 0 600 300">
  <rect y="0" width="600" height="300" fill="#e8e2e4"/>
  <g>
    <g>
      <g>
        <g isolation="isolate">
          <polyline points="46.23 208.42 46.23 207.81 231.68 181.74" fill="none" stroke="#818284" stroke-miterlimit="10" stroke-width=".71"/>
        </g>
        <g isolation="isolate">
          <polyline points="46.34 153.1 46.34 152.49 231.78 126.42" fill="none" stroke="#818284" stroke-miterlimit="10" stroke-width=".71"/>
        </g>
        <g isolation="isolate">
          <polyline points="231.88 71.72 46.44 97.78 46.44 97.17" fill="none" stroke="#818284" stroke-miterlimit="10" stroke-width=".71"/>
        </g>
      </g>
      <polygon points="71.59 119.97 56.95 112.01 56.99 89.57 71.63 97.53 71.59 119.97" fill="#fde5e9" stroke="#fff" stroke-miterlimit="10" stroke-width="1.42"/>
      <polygon points="101.1 93.52 101.05 116.07 71.87 120.17 71.91 97.62 101.1 93.52" fill="#fde5e9" stroke="#fff" stroke-miterlimit="10" stroke-width="1.42"/>
      <polygon points="101.12 116.1 101.03 160.95 71.85 165.06 71.93 120.2 101.12 116.1" fill="#facad3" stroke="#fff" stroke-miterlimit="10" stroke-width="1.42"/>
      <polygon points="71.57 164.86 56.93 156.9 57.01 112.33 71.65 120.29 71.57 164.86" fill="#facad3" stroke="#fff" stroke-miterlimit="10" stroke-width="1.42"/>
      <polygon points="101.17 161.06 100.98 260.51 71.8 264.61 71.98 165.16 101.17 161.06" fill="#f7a7b6" stroke="#fff" stroke-miterlimit="10" stroke-width="1.42"/>
      <polygon points="71.52 264.96 56.88 257 57.07 157.11 71.7 165.07 71.52 264.96" fill="#f7a7b6" stroke="#fff" stroke-miterlimit="10" stroke-width="1.42"/>
      <polygon points="132.5 132.01 117.86 124.05 117.92 90.55 132.56 98.51 132.5 132.01" fill="#fde5e9" stroke="#fff" stroke-miterlimit="10" stroke-width="1.42"/>
      <polygon points="162.03 94.31 161.97 128.47 132.79 132.57 132.85 98.42 162.03 94.31" fill="#fde5e9" stroke="#fff" stroke-miterlimit="10" stroke-width="1.42"/>
      <polygon points="162.05 128.57 161.95 184.67 132.77 188.77 132.87 132.67 162.05 128.57" fill="#facad3" stroke="#fff" stroke-miterlimit="10" stroke-width="1.42"/>
      <polygon points="132.48 188.03 117.84 180.07 117.94 124.44 132.58 132.4 132.48 188.03" fill="#facad3" stroke="#fff" stroke-miterlimit="10" stroke-width="1.42"/>
      <polygon points="162.06 184.71 161.94 250.78 132.76 254.89 132.88 188.81 162.06 184.71" fill="#f7a7b6" stroke="#fff" stroke-miterlimit="10" stroke-width="1.42"/>
      <polygon points="132.47 255.23 117.83 247.27 117.95 180.58 132.59 188.54 132.47 255.23" fill="#f7a7b6" stroke="#fff" stroke-miterlimit="10" stroke-width="1.42"/>
      <polygon points="192.15 157.22 177.52 149.25 177.56 126.82 192.19 134.78 192.15 157.22" fill="#fde5e9" stroke="#fff" stroke-miterlimit="10" stroke-width="1.42"/>
      <polygon points="221.66 130.76 221.62 153.49 192.44 157.59 192.48 134.86 221.66 130.76" fill="#fde5e9" stroke="#fff" stroke-miterlimit="10" stroke-width="1.42"/>
      <polygon points="221.65 153.54 221.63 164.85 192.45 168.95 192.47 157.65 221.65 153.54" fill="#facad3" stroke="#fff" stroke-miterlimit="10" stroke-width="1.42"/>
      <polygon points="192.16 168.75 177.53 160.79 177.55 149.41 192.18 157.38 192.16 168.75" fill="#facad3" stroke="#fff" stroke-miterlimit="10" stroke-width="1.42"/>
      <polygon points="221.71 164.96 221.57 242.1 192.39 246.2 192.53 169.06 221.71 164.96" fill="#f7a7b6" stroke="#fff" stroke-miterlimit="10" stroke-width="1.42"/>
      <polygon points="192.1 246.55 177.47 238.58 177.61 160.83 192.25 168.79 192.1 246.55" fill="#f7a7b6" stroke="#fff" stroke-miterlimit="10" stroke-width="1.42"/>
      <polygon points="71.63 97.53 56.99 89.57 86.74 85.39 101.38 93.35 71.63 97.53" fill="#fde5e9" stroke="#fff" stroke-miterlimit="10" stroke-width="1.42"/>
      <polygon points="132.56 98.51 117.92 90.55 147.68 86.37 162.31 94.33 132.56 98.51" fill="#fde5e9" stroke="#fff" stroke-miterlimit="10" stroke-width="1.42"/>
      <polygon points="192.19 134.78 177.56 126.82 207.31 122.63 221.95 130.59 192.19 134.78" fill="#fde5e9" stroke="#fff" stroke-miterlimit="10" stroke-width="1.42"/>
      <line x1="231.73" y1="241.08" x2="46.28" y2="267.14" fill="none" stroke="#818284" stroke-miterlimit="10" stroke-width=".99"/>
    </g>
    <g>
      <g>
        <line x1="351" y1="192.23" x2="538.21" y2="192.23" fill="none" stroke="#818284" stroke-miterlimit="10" stroke-width=".71"/>
        <line x1="351" y1="134.65" x2="538.21" y2="134.65" fill="none" stroke="#818284" stroke-miterlimit="10" stroke-width=".71"/>
        <line x1="351" y1="77.06" x2="538.21" y2="77.06" fill="none" stroke="#818284" stroke-miterlimit="10" stroke-width=".71"/>
      </g>
      <g>
        <rect x="367.42" y="77.06" width="33.11" height="23.03" fill="#fde5e9" stroke="#fff" stroke-miterlimit="10" stroke-width="1.42"/>
        <rect x="367.42" y="100.1" width="33.11" height="46.07" fill="#facad3" stroke="#fff" stroke-miterlimit="10" stroke-width="1.42"/>
        <rect x="367.42" y="146.17" width="33.11" height="103.66" fill="#f7a7b6" stroke="#fff" stroke-miterlimit="10" stroke-width="1.42"/>
      </g>
      <g>
        <rect x="423.6" y="88.58" width="33.11" height="34.55" fill="#fde5e9" stroke="#fff" stroke-miterlimit="10" stroke-width="1.42"/>
        <rect x="423.6" y="123.13" width="33.11" height="57.59" fill="#facad3" stroke="#fff" stroke-miterlimit="10" stroke-width="1.42"/>
        <rect x="423.6" y="180.72" width="33.11" height="69.1" fill="#f7a7b6" stroke="#fff" stroke-miterlimit="10" stroke-width="1.42"/>
      </g>
      <g>
        <rect x="479.78" y="134.65" width="33.11" height="23.03" fill="#fde5e9" stroke="#fff" stroke-miterlimit="10" stroke-width="1.42"/>
        <rect x="479.78" y="157.68" width="33.11" height="11.52" fill="#facad3" stroke="#fff" stroke-miterlimit="10" stroke-width="1.42"/>
        <rect x="479.78" y="169.2" width="33.11" height="80.62" fill="#f7a7b6" stroke="#fff" stroke-miterlimit="10" stroke-width="1.42"/>
      </g>
      <line x1="351" y1="249.82" x2="538.21" y2="249.82" fill="none" stroke="#818284" stroke-miterlimit="10" stroke-width=".99"/>
    </g>
    <g>
      <path d="M62.18,38.08c0,1.16-.76,2.28-2.75,2.28h-3.44v-8.2h3.25c2.02,0,2.73,1.07,2.73,2.15,0,.82-.47,1.54-1.42,1.79,1.02,.17,1.64,.89,1.64,1.99Zm-4.7-4.79v2.33h1.51c1.16,0,1.43-.59,1.43-1.16,0-.61-.33-1.18-1.43-1.18h-1.51Zm3.18,4.66c0-.7-.44-1.22-1.42-1.22h-1.76v2.51h1.67c1.1,0,1.5-.59,1.5-1.28Z"/>
      <path d="M63.07,38.79c0-.55,.24-1.02,.7-1.31,.42-.24,.97-.39,1.88-.52l1.22-.15v-.15c0-.87-.33-1.24-1.07-1.24-.68,0-1.09,.36-1.13,1.02h-1.42c.09-1.24,1.06-2,2.55-2,1.71,0,2.47,.73,2.47,2.4v1.72c0,.79,.06,1.39,.17,1.79h-1.39c-.05-.29-.08-.64-.09-.99-.28,.7-1,1.13-1.94,1.13-1.18,0-1.96-.68-1.96-1.71Zm3.85-.8v-.37l-1.31,.2c-.76,.13-1.11,.4-1.11,.9s.37,.8,.98,.8c.85,0,1.43-.6,1.43-1.52Z"/>
      <path d="M69.48,37.48c0-1.8,.99-3.04,2.44-3.04,.76,0,1.33,.31,1.66,.96v-3.42h1.39v8.37h-1.31v-1.04c-.32,.74-.98,1.18-1.85,1.18-1.4,0-2.33-1.21-2.33-3.01Zm4.14,.18v-.37c0-1.13-.51-1.79-1.34-1.79s-1.35,.72-1.35,1.95,.52,1.98,1.36,1.98,1.33-.68,1.33-1.77Z"/>
    </g>
    <g>
      <path d="M347.64,36.27c0-2.54,1.44-4.31,3.9-4.31,2.22,0,3.14,1.37,3.34,2.49l-1.48,.25c-.13-.73-.62-1.57-1.88-1.57-1.5,0-2.36,1.25-2.36,3.12s.79,3.1,2.37,3.1c1.66,0,2.09-1.36,2.09-2.11v-.15h-2.22v-1.14h3.57v4.41h-1.06l-.13-1.26c-.38,.88-1.31,1.46-2.53,1.46-2.26,0-3.62-1.76-3.62-4.29Z"/>
      <path d="M356.21,37.46c0-1.93,1.17-3.01,2.83-3.01s2.83,1.09,2.83,3.01-1.17,3.04-2.83,3.04-2.83-1.1-2.83-3.04Zm4.24,0c0-1.32-.52-1.96-1.41-1.96s-1.42,.65-1.42,1.96,.53,1.99,1.42,1.99,1.41-.67,1.41-1.99Z"/>
      <path d="M362.79,37.46c0-1.93,1.17-3.01,2.83-3.01s2.83,1.09,2.83,3.01-1.17,3.04-2.83,3.04-2.83-1.1-2.83-3.04Zm4.24,0c0-1.32-.52-1.96-1.41-1.96s-1.42,.65-1.42,1.96,.53,1.99,1.42,1.99,1.41-.67,1.41-1.99Z"/>
      <path d="M369.38,37.48c0-1.8,.99-3.04,2.44-3.04,.76,0,1.33,.31,1.66,.96v-3.42h1.39v8.37h-1.31v-1.04c-.32,.74-.98,1.18-1.85,1.18-1.4,0-2.33-1.21-2.33-3.01Zm4.14,.18v-.37c0-1.13-.51-1.79-1.34-1.79s-1.35,.72-1.35,1.95,.52,1.98,1.36,1.98,1.33-.68,1.33-1.77Z"/>
    </g>
  </g>
</svg>