<?xml version="1.0" encoding="UTF-8"?>
<svg id="Graphic" xmlns="http://www.w3.org/2000/svg" viewBox="0 0 600 250">
  <rect x="0" y="0" width="600" height="250" fill="#f3f5fa"/>
  <path d="M190.29,218.91H110.86c-4.18,0-7.59-3.42-7.59-7.59V41.77c0-4.18,3.42-7.59,7.59-7.59h79.43c4.18,0,7.59,3.42,7.59,7.82V211.54c0,3.95-3.42,7.37-7.59,7.37Z" fill="#b2c2e0"/>
  <rect x="97.88" y="28.34" width="94.62" height="184.73" rx="10.1" ry="10.1" fill="#fff" stroke="#039" stroke-miterlimit="10" stroke-width=".71"/>
  <rect x="104.86" y="37.71" width="81.48" height="168.46" rx="2.83" ry="2.83" fill="#039"/>
  <line x1="117.09" y1="169.62" x2="176.5" y2="169.62" fill="none" stroke="#fff" stroke-linecap="round" stroke-miterlimit="10" stroke-width="2.13"/>
  <line x1="117.09" y1="178.29" x2="172.58" y2="178.29" fill="none" stroke="#fff" stroke-linecap="round" stroke-miterlimit="10" stroke-width="2.13"/>
  <line x1="117.09" y1="186.96" x2="175.68" y2="186.96" fill="none" stroke="#fff" stroke-linecap="round" stroke-miterlimit="10" stroke-width="2.13"/>
  <rect x="299.7" y="-4.64" width="185.43" height="267.31" rx="17.01" ry="17.01" transform="translate(521.43 -263.4) rotate(90)" fill="#b2c2e0"/>
  <rect x="293.09" y="-11.25" width="185.43" height="267.31" rx="17.01" ry="17.01" transform="translate(508.2 -263.4) rotate(90)" fill="#fff" stroke="#039" stroke-miterlimit="10" stroke-width=".71"/>
  <rect x="273.82" y="40.25" width="222.35" height="165.71" rx="2.83" ry="2.83" fill="#039"/>
  <line x1="286.25" y1="94.38" x2="486.89" y2="94.38" fill="none" stroke="#fff" stroke-linecap="round" stroke-miterlimit="10"/>
  <circle cx="300.81" cy="94.38" r="10.66" fill="#fff" opacity=".6"/>
  <circle cx="319.1" cy="94.38" r="5.96" fill="#fff" opacity=".6"/>
  <circle cx="335.11" cy="94.38" r="12.92" fill="#fff" opacity=".6"/>
  <circle cx="366.52" cy="94.38" r="6.51" fill="#fff" opacity=".6"/>
  <circle cx="374.03" cy="94.38" r="3.17" fill="#fff" opacity=".6"/>
  <circle cx="384.1" cy="94.38" r="4.03" fill="#fff" opacity=".6"/>
  <circle cx="405.39" cy="94.38" r="7.75" fill="#fff" opacity=".6"/>
  <circle cx="432.12" cy="94.38" r="8.54" fill="#fff" opacity=".6"/>
  <circle cx="446.82" cy="94.38" r="12" fill="#fff" opacity=".6"/>
  <circle cx="475.89" cy="94.38" r="6.02" fill="#fff" opacity=".6"/>
  <line x1="145.01" y1="44.96" x2="145.01" y2="154.22" fill="none" stroke="#fff" stroke-linecap="round" stroke-miterlimit="10"/>
  <circle cx="145.01" cy="52.9" r="5.8" fill="#fff" opacity=".6"/>
  <circle cx="145.01" cy="62.86" r="3.25" fill="#fff" opacity=".6"/>
  <circle cx="145.01" cy="71.57" r="7.04" fill="#fff" opacity=".6"/>
  <circle cx="145.01" cy="88.68" r="3.54" fill="#fff" opacity=".6"/>
  <circle cx="145.01" cy="92.77" r="1.72" fill="#fff" opacity=".6"/>
  <circle cx="145.01" cy="98.25" r="2.19" fill="#fff" opacity=".6"/>
  <circle cx="145.01" cy="109.84" r="4.22" fill="#fff" opacity=".6"/>
  <circle cx="145.01" cy="124.4" r="4.65" fill="#fff" opacity=".6"/>
  <circle cx="145.01" cy="132.4" r="6.53" fill="#fff" opacity=".6"/>
  <circle cx="145.01" cy="148.23" r="3.28" fill="#fff" opacity=".6"/>
  <line x1="289.55" y1="172.13" x2="366.22" y2="172.13" fill="none" stroke="#fff" stroke-linecap="round" stroke-miterlimit="10" stroke-width="2.13"/>
  <line x1="289.55" y1="180.79" x2="375.16" y2="180.79" fill="none" stroke="#fff" stroke-linecap="round" stroke-miterlimit="10" stroke-width="2.13"/>
  <line x1="289.55" y1="137.34" x2="366.22" y2="137.34" fill="none" stroke="#fff" stroke-linecap="round" stroke-miterlimit="10" stroke-width="2.13"/>
  <line x1="289.55" y1="146" x2="375.16" y2="146" fill="none" stroke="#fff" stroke-linecap="round" stroke-miterlimit="10" stroke-width="2.13"/>
  <line x1="289.55" y1="154.67" x2="369.51" y2="154.67" fill="none" stroke="#fff" stroke-linecap="round" stroke-miterlimit="10" stroke-width="2.13"/>
  <line x1="289.55" y1="163.34" x2="373.99" y2="163.34" fill="none" stroke="#fff" stroke-linecap="round" stroke-miterlimit="10" stroke-width="2.13"/>
  <line x1="391.46" y1="172.13" x2="474.56" y2="172.13" fill="none" stroke="#fff" stroke-linecap="round" stroke-miterlimit="10" stroke-width="2.13"/>
  <line x1="391.46" y1="180.79" x2="471.13" y2="180.79" fill="none" stroke="#fff" stroke-linecap="round" stroke-miterlimit="10" stroke-width="2.13"/>
  <line x1="391.46" y1="137.34" x2="478.48" y2="137.34" fill="none" stroke="#fff" stroke-linecap="round" stroke-miterlimit="10" stroke-width="2.13"/>
  <line x1="391.46" y1="146" x2="459.87" y2="146" fill="none" stroke="#fff" stroke-linecap="round" stroke-miterlimit="10" stroke-width="2.13"/>
  <line x1="391.46" y1="154.67" x2="476.52" y2="154.67" fill="none" stroke="#fff" stroke-linecap="round" stroke-miterlimit="10" stroke-width="2.13"/>
  <line x1="391.46" y1="163.34" x2="470.15" y2="163.34" fill="none" stroke="#fff" stroke-linecap="round" stroke-miterlimit="10" stroke-width="2.13"/>
</svg>