<?xml version="1.0" encoding="UTF-8"?>
<svg id="Graphic" xmlns="http://www.w3.org/2000/svg" viewBox="0 0 600 250">
  <rect x="0" y="-.09" width="600" height="250" fill="rgba(255, 245, 207, .4)"/>
  <path d="M346.68,222.94h-80.67c-4.24,0-7.71-3.47-7.71-7.71V43.04c0-4.24,3.47-7.71,7.71-7.71h80.67c4.24,0,7.71,3.47,7.71,7.94V215.46c0,4.02-3.47,7.49-7.71,7.49Z" fill="#fff4c6"/>
  <rect x="252.82" y="29.4" width="96.1" height="187.62" rx="10.1" ry="10.1" fill="#ffd940" stroke="#fff" stroke-linejoin="round" stroke-width=".71"/>
  <g>
    <rect x="259.91" y="38.92" width="82.75" height="171.1" rx="2.83" ry="2.83" fill="#fff"/>
    <rect x="259.91" y="38.92" width="82.75" height="171.1" rx="2.83" ry="2.83" fill="none" stroke="#ffd940" stroke-linejoin="round" stroke-width="2.13"/>
  </g>
  <path d="M310.99,60.86c2.54,2.54,4.11,6.05,4.11,9.93,0,7.76-6.29,14.05-14.05,14.05s-14.05-6.29-14.05-14.05,6.29-14.05,14.05-14.05v14.05l9.93-9.93Z" fill="#ffd940"/>
  <line x1="271.42" y1="102.99" x2="330.43" y2="102.99" fill="none" stroke="#ffd940" stroke-linecap="round" stroke-miterlimit="10" stroke-width="2.13"/>
  <line x1="271.42" y1="111.43" x2="325.13" y2="111.43" fill="none" stroke="#ffd940" stroke-linecap="round" stroke-miterlimit="10" stroke-width="2.13"/>
  <line x1="271.42" y1="119.88" x2="327.45" y2="119.88" fill="none" stroke="#ffd940" stroke-linecap="round" stroke-miterlimit="10" stroke-width="2.13"/>
  <line x1="271.42" y1="128.53" x2="325.46" y2="128.53" fill="none" stroke="#ffd940" stroke-linecap="round" stroke-miterlimit="10" stroke-width="2.13"/>
  <line x1="271.42" y1="136.97" x2="331.76" y2="136.97" fill="none" stroke="#ffd940" stroke-linecap="round" stroke-miterlimit="10" stroke-width="2.13"/>
  <line x1="271.42" y1="145.41" x2="327.78" y2="145.41" fill="none" stroke="#ffd940" stroke-linecap="round" stroke-miterlimit="10" stroke-width="2.13"/>
  <line x1="271.42" y1="163.67" x2="322.51" y2="163.67" fill="none" stroke="#ffd940" stroke-linecap="round" stroke-miterlimit="10" stroke-width="2.13"/>
  <line x1="271.42" y1="172.32" x2="328.98" y2="172.32" fill="none" stroke="#ffd940" stroke-linecap="round" stroke-miterlimit="10" stroke-width="2.13"/>
  <line x1="271.42" y1="180.76" x2="323.5" y2="180.76" fill="none" stroke="#ffd940" stroke-linecap="round" stroke-miterlimit="10" stroke-width="2.13"/>
  <line x1="271.42" y1="190.07" x2="327.19" y2="190.07" fill="none" stroke="#ffd940" stroke-linecap="round" stroke-miterlimit="10" stroke-width="2.13"/>
</svg>